<?xml version="1.0" encoding="iso-8859-1"?>
<!-- Generator: Adobe Illustrator 19.0.0, SVG Export Plug-In . SVG Version: 6.00 Build 0)  -->
<svg version="1.1" id="Capa_1" xmlns="http://www.w3.org/2000/svg" xmlns:xlink="http://www.w3.org/1999/xlink" x="0px" y="0px"
	 viewBox="0 0 480 480" style="enable-background:new 0 0 480 480;" xml:space="preserve">
<path style="fill:#0071BC;" d="M392,112V40c0-13.255,10.745-24,24-24s24,10.745,24,24v72H392z"/>
<path style="fill:#29ABE2;" d="M392,248V40c0-13.255,10.745-24,24-24H224c-13.255,0-24,10.745-24,24v208H392z"/>
<path style="fill:#E6E6E6;" d="M8,168h240v304H8V168z"/>
<path style="fill:#FBB03B;" d="M136,168h112v64H136V168z"/>
<path style="fill:#29ABE2;" d="M8,168h128v64H8V168z"/>
<circle style="fill:#FBB03B;" cx="128" cy="352" r="72"/>
<path style="fill:#F15A24;" d="M168,168h48v32h-48V168z"/>
<path style="fill:#CCCCCC;" d="M48,136h64c8.837,0,16,7.163,16,16l0,0c0,8.837-7.163,16-16,16H48c-8.837,0-16-7.163-16-16l0,0
	C32,143.163,39.163,136,48,136z"/>
<path style="fill:#E6E6E6;" d="M48,104h64c8.837,0,16,7.163,16,16l0,0c0,8.837-7.163,16-16,16H48c-8.837,0-16-7.163-16-16l0,0
	C32,111.163,39.163,104,48,104z"/>
<path style="fill:#CCCCCC;" d="M48,72h64c8.837,0,16,7.163,16,16l0,0c0,8.837-7.163,16-16,16H48c-8.837,0-16-7.163-16-16l0,0
	C32,79.163,39.163,72,48,72z"/>
<path style="fill:#FBB03B;" d="M432,472H304l-24-160h176L432,472z"/>
<circle style="fill:#0071BC;" cx="128" cy="352" r="40"/>
<path d="M128,304c-26.51,0-48,21.49-48,48s21.49,48,48,48s48-21.49,48-48C175.974,325.501,154.499,304.026,128,304z M128,384
	c-17.673,0-32-14.327-32-32s14.327-32,32-32s32,14.327,32,32S145.673,384,128,384z"/>
<path d="M128,272c-44.183,0-80,35.817-80,80s35.817,80,80,80s80-35.817,80-80C207.952,307.837,172.163,272.048,128,272z M128,416
	c-35.346,0-64-28.654-64-64s28.654-64,64-64s64,28.654,64,64C191.96,387.33,163.33,415.96,128,416z"/>
<path d="M208,256h16v16h-16V256z"/>
<path d="M32,256h16v16H32V256z"/>
<path d="M32,432h16v16H32V432z"/>
<path d="M208,432h16v16h-16V432z"/>
<path d="M32,192h16v16H32V192z"/>
<path d="M64,192h48v16H64V192z"/>
<path d="M464,40h-16c0-17.673-14.327-32-32-32H224c-17.673,0-32,14.327-32,32h-16V0h-16v48c0,4.418,3.582,8,8,8h24v104h-57.472
	c3.078-8.263,1.219-17.556-4.8-24c8.32-9.044,8.32-22.956,0-32c8.894-9.75,8.2-24.864-1.55-33.758
	C123.757,66.209,117.984,63.982,112,64H48c-13.197-0.058-23.943,10.593-24.002,23.79C23.972,93.785,26.2,99.571,30.24,104
	c-8.32,9.044-8.32,22.956,0,32c-6.019,6.444-7.878,15.737-4.8,24H8c-4.418,0-8,3.582-8,8v304c0,4.418,3.582,8,8,8h240
	c4.418,0,8-3.582,8-8V256h136c4.418,0,8-3.582,8-8V120h40c4.418,0,8-3.582,8-8V56h24c4.418,0,8-3.582,8-8V0h-16V40z M240,224h-96
	v-48h16v24c0,4.418,3.582,8,8,8h48c4.418,0,8-3.582,8-8v-24h16V224z M176,176h32v16h-32V176z M40,120c0-4.418,3.582-8,8-8h64
	c4.418,0,8,3.582,8,8s-3.582,8-8,8H48C43.582,128,40,124.418,40,120z M48,80h64c4.418,0,8,3.582,8,8s-3.582,8-8,8H48
	c-4.418,0-8-3.582-8-8S43.582,80,48,80z M40,152c0-4.418,3.582-8,8-8h64c4.418,0,8,3.582,8,8s-3.582,8-8,8H48
	C43.582,160,40,156.418,40,152z M48,176h80v48H16v-48H48z M16,464V240h224v224H16z M384,240H256v-16h80v-16h-80v-40
	c0-4.418-3.582-8-8-8h-40V40c0-8.837,7.163-16,16-16h164.448c-2.879,4.843-4.415,10.366-4.448,16V240z M432,104h-32V40
	c0-8.837,7.163-16,16-16s16,7.163,16,16h-16v16h16V104z"/>
<path d="M304,480h128c3.961,0,7.326-2.899,7.912-6.816l24-160c0.654-4.37-2.358-8.442-6.728-9.096
	C456.792,304.029,456.396,304,456,304H280c-4.418,0-8,3.582-8,8c0,0.396,0.029,0.792,0.088,1.184l24,160
	C296.674,477.101,300.039,480,304,480z M446.712,320l-21.6,144H310.888l-21.6-144H446.712z"/>
<path d="M328,368h80c4.418,0,8-3.582,8-8v-24h-16v16h-64v-16h-16v24C320,364.418,323.582,368,328,368z"/>
<path d="M352,208h16v16h-16V208z"/>
<g>
</g>
<g>
</g>
<g>
</g>
<g>
</g>
<g>
</g>
<g>
</g>
<g>
</g>
<g>
</g>
<g>
</g>
<g>
</g>
<g>
</g>
<g>
</g>
<g>
</g>
<g>
</g>
<g>
</g>
</svg>
