<svg id="Capa_1" enable-background="new 0 0 511.586 511.586" height="512" viewBox="0 0 511.586 511.586" width="512" xmlns="http://www.w3.org/2000/svg"><g><g><g><path d="m336.188 7.699c.901 0 1.785.239 2.563.691l45.932 26.722 58.13 33.828 19.92 11.597c1.89 1.103 3.06 3.127 3.06 5.332v82.966c0 3.397-2.753 6.15-6.15 6.15h-69.562c-2.246 0-4.065 1.822-4.061 4.068l.234 148.204h-260.68v-109.733-38.486c0-2.238-1.814-4.052-4.052-4.052h-69.579c-3.397 0-6.15-2.753-6.15-6.15v-82.966c0-2.205 1.17-4.23 3.06-5.332l123.981-72.147c.779-.453 1.663-.692 2.564-.692z" fill="#f9b1b1"/><g><path d="m170.784 295.5v-109.48-10.362c0-17.716-14.362-32.078-32.078-32.078h-17.858c-16.483 0-29.845-13.362-29.845-29.845v-57.684l-42.15 24.471c-1.89 1.1-3.06 3.12-3.06 5.32v82.76c0 3.396 2.753 6.15 6.15 6.15h69.578c2.238 0 4.052 1.814 4.052 4.052v38.388 109.48h260.68l-.049-31.172z" fill="#f79595"/></g><path d="m158.785 225.75c-5.009 0-9.681 1.432-13.638 3.903-5.191-8.24-14.363-13.719-24.821-13.719-16.194 0-29.321 13.127-29.321 29.321s13.128 29.321 29.321 29.321c7.041 0 13.501-2.484 18.556-6.621 4.731 5.732 11.891 9.386 19.904 9.386 14.247 0 25.796-11.549 25.796-25.796s-11.55-25.795-25.797-25.795z" fill="#99e6fc"/><path d="m466.293 297.74-24.254 171.281c-2.848 20.114-20.065 35.065-40.38 35.065h-290.732c-20.315 0-37.532-14.951-40.38-35.065l-24.254-171.281-6.109-29.048h439.97z" fill="#f9f3f1"/><path d="m313.31 142.863c-3.91 6.259-9.506 11.552-16.619 15.976-3.248 2.021-3.438 6.699-.31 8.902 6.51 4.586 12.072 9.996 16.513 16.381 2.143 3.081 6.652 3.11 8.794.028 4.728-6.802 10.321-12.412 16.764-16.85 3.086-2.126 3.146-6.616.103-8.803-6.512-4.681-11.993-9.99-16.392-15.958-2.248-3.051-6.845-2.892-8.853.324z" fill="#fef48b"/><circle cx="135.449" cy="112.622" fill="#c8effe" r="19.603"/><path d="m425.279 36.202c-4.546-.56-8.944.238-12.796 2.068-2.418-4.574-6.951-7.936-12.476-8.617-8.977-1.106-17.15 5.275-18.256 14.252s5.275 17.151 14.252 18.256c1.141.141 2.268.157 3.37.066 1.31 10.296 9.448 18.795 20.222 20.122 12.743 1.57 24.346-7.488 25.916-20.231 1.569-12.743-7.488-24.346-20.232-25.916z" fill="#c8effe"/><path d="m289.844 433.958c-8.707 0-15.765-7.058-15.765-15.765v-42.47c0-8.707 7.058-15.765 15.765-15.765 8.707 0 15.765 7.058 15.765 15.765v42.47c0 8.706-7.058 15.765-15.765 15.765z" fill="#99e6fc"/><g id="XMLID_682_"><g><path d="m111.82 268.692h-.446-71.19l6.109 29.048 24.254 171.281c2.848 20.114 20.065 35.065 40.38 35.065h71.636c-20.315 0-37.532-14.951-40.38-35.065l-10.264-72.487c-5.892-41.607 26.404-78.799 68.427-78.799h263.117l2.831-19.995 13.861-29.048z" fill="#f3eae6"/><path d="m489.413 267.316v20.06c0 5.72-4.64 10.36-10.37 10.36h-79.7-30.95-335.85c-5.73 0-10.37-4.64-10.37-10.36v-20.06c0-5.73 4.64-10.37 10.37-10.37h315.89 53.69 76.92c5.73 0 10.37 4.64 10.37 10.37z" fill="#f9f3f1"/></g></g><path d="m406.087 241.84c0-17.739-14.993-31.976-32.998-30.731-15.554 1.076-27.996 13.94-28.593 29.52-.582 15.18 9.826 28.024 23.902 31.238v101.541c0 8.547 6.928 15.475 15.475 15.475 8.547 0 15.475-6.928 15.475-15.475v-112.347c4.213-5.27 6.739-11.949 6.739-19.221z" fill="#99e6fc"/></g></g><path d="m331.803 7.699c0 21.114-8.45 40.233-22.12 54.066-13.66 13.843-32.54 22.4-53.39 22.4-41.7 0-75.51-34.238-75.51-76.466z" fill="#f79595"/><g><path d="m479.046 249.449h-66.254c.509-2.497.795-5.043.795-7.609 0-10.579-4.438-20.789-12.176-28.01-2.279-2.126-4.765-3.93-7.401-5.417v-25.619h66.134c7.526 0 13.649-6.123 13.649-13.649v-82.764c0-4.845-2.603-9.367-6.796-11.805l-14.579-8.464c.228-1.009.409-2.035.537-3.076 2.073-16.827-9.931-32.204-26.758-34.277h-.001c-3.689-.456-7.4-.236-10.968.625-3.761-3.92-8.794-6.495-14.303-7.174-6.165-.767-12.079.91-16.777 4.265l-42.32-24.57c-2.148-1.247-4.593-1.905-7.072-1.905h-156.926c-2.479 0-4.924.658-7.074 1.905l-74.824 43.443c-3.583 2.08-4.8 6.67-2.721 10.252 1.392 2.397 3.908 3.735 6.493 3.735 1.278 0 2.574-.327 3.759-1.015l70.433-40.893c4.855 41.179 39.933 73.239 82.396 73.239 8.527 0 16.956-1.298 25.051-3.856 3.949-1.249 6.139-5.463 4.891-9.412s-5.463-6.137-9.412-4.891c-6.631 2.097-13.538 3.159-20.53 3.159-35.02 0-63.933-26.607-67.609-60.666h135.178c-1.799 16.487-9.571 31.911-22.003 43.139-3.074 2.776-3.315 7.52-.539 10.594 1.48 1.639 3.521 2.473 5.568 2.473 1.792 0 3.59-.639 5.024-1.934 14.967-13.518 24.436-32.015 26.799-51.831l36.547 21.219c-.441 1.388-.767 2.832-.952 4.329-1.538 12.486 6.905 23.945 19.061 26.343 3.767 10.921 13.471 19.004 25.31 20.462 1.278.158 2.554.236 3.822.236 6.816 0 13.399-2.255 18.858-6.516 1.556-1.215 2.972-2.561 4.246-4.013l13.19 7.657v80.637h-72.282c-4.142 0-7.5 3.357-7.5 7.5v28.42c-2.116-.201-4.266-.238-6.438-.088-19.208 1.328-34.832 17.455-35.571 36.715-.119 3.112.141 6.164.739 9.107h-145.68c-.45-16.812-14.257-30.353-31.176-30.353-4.417 0-8.683.904-12.617 2.652-4.034-4.366-9.104-7.647-14.69-9.569v-36.885c0-4.143-3.358-7.5-7.5-7.5h-72.284v-80.636l22.029-12.789c3.582-2.08 4.8-6.67 2.721-10.252-2.081-3.582-6.669-4.799-10.252-2.721l-22.706 13.182c-4.19 2.436-6.792 6.958-6.792 11.803v82.765c0 7.526 6.123 13.649 13.649 13.649h66.134v27.615c-18.016 1.757-32.144 16.986-32.144 35.455 0 1.205.06 2.4.179 3.585h-54.071c-9.85 0-17.863 8.014-17.863 17.863v20.064c0 9.85 8.013 17.863 17.863 17.863h7.241l23.341 164.832c3.351 23.667 23.903 41.514 47.806 41.514h290.732c23.902 0 44.455-17.847 47.806-41.514l23.341-164.832h6.241c9.85 0 17.863-8.014 17.863-17.863v-20.064c-.001-9.85-8.015-17.864-17.865-17.864zm-40.979-188.247c-.514 4.175-2.624 7.899-5.939 10.487-3.316 2.589-7.441 3.729-11.616 3.217-7.157-.882-12.79-6.484-13.699-13.624-.48-3.773-3.693-6.554-7.433-6.554-.206 0-.415.008-.624.025-.614.051-1.233.039-1.836-.035-4.858-.599-8.324-5.038-7.725-9.896s5.038-8.317 9.896-7.726c2.872.354 5.4 2.104 6.763 4.68 1.878 3.552 6.221 4.992 9.848 3.269 2.696-1.281 5.692-1.767 8.661-1.399 8.617 1.062 14.765 8.938 13.704 17.556zm-64.461 157.39c.563-.039 1.124-.059 1.682-.059 5.936 0 11.526 2.191 15.889 6.264 4.778 4.459 7.41 10.512 7.41 17.043 0 5.34-1.763 10.367-5.097 14.537-1.063 1.329-1.642 2.981-1.642 4.684v112.347c0 4.397-3.578 7.976-7.975 7.976s-7.975-3.578-7.975-7.976v-101.542c0-3.499-2.419-6.533-5.831-7.312-10.904-2.489-18.506-12.431-18.076-23.639.448-11.71 9.943-21.517 21.615-22.323zm-272.173 27.272c0-11.374 9.253-20.627 20.627-20.627 7.271 0 14.086 3.902 17.786 10.184 1.096 1.861 2.941 3.159 5.063 3.563 2.12.405 4.314-.129 6.017-1.458 2.872-2.243 6.315-3.429 9.958-3.429 8.646 0 15.711 6.814 16.155 15.353h-75.274c-.208-1.177-.332-2.371-.332-3.586zm333.18 222.105c-2.31 16.314-16.478 28.617-32.954 28.617h-290.732c-16.477 0-30.644-12.303-32.954-28.617l-23.043-162.729h23.022c4.142 0 7.5-3.357 7.5-7.5s-3.358-7.5-7.5-7.5h-45.412c-1.579 0-2.863-1.284-2.863-2.863v-20.064c0-1.579 1.285-2.863 2.863-2.863h311.836c4.14 5.662 9.815 10.187 16.522 12.898v12.893h-250.984c-4.142 0-7.5 3.357-7.5 7.5s3.358 7.5 7.5 7.5h250.983v68.167c0 12.669 10.307 22.976 22.975 22.976s22.975-10.307 22.975-22.976v-68.168h50.809zm47.297-180.592c0 1.579-1.285 2.863-2.863 2.863h-72.199v-25.791h72.199c1.579 0 2.863 1.284 2.863 2.863z"/><path d="m306.736 188.404c2.414 3.471 6.368 5.543 10.579 5.543h.002c4.194-.001 8.13-2.063 10.529-5.517 4.176-6.007 9.176-11.038 14.86-14.954 3.462-2.384 5.554-6.305 5.596-10.49.042-4.177-1.965-8.132-5.369-10.579-5.898-4.239-10.854-9.057-14.732-14.318-2.536-3.44-6.608-5.381-10.856-5.232-4.252.164-8.139 2.419-10.396 6.032v.001c-3.209 5.139-7.994 9.708-14.217 13.58-3.686 2.291-5.96 6.246-6.084 10.579-.124 4.302 1.901 8.348 5.415 10.822 5.942 4.188 10.879 9.077 14.673 14.533zm11.233-39.023c3.915 4.873 8.557 9.383 13.853 13.454-5.423 4.079-10.292 8.972-14.526 14.595-3.909-5.126-8.607-9.796-14.021-13.933 5.994-4.099 10.919-8.83 14.694-14.116z"/><path d="m162.551 112.622c0-14.944-12.158-27.103-27.103-27.103s-27.103 12.158-27.103 27.103 12.158 27.103 27.103 27.103 27.103-12.159 27.103-27.103zm-39.205 0c0-6.674 5.429-12.103 12.103-12.103s12.103 5.429 12.103 12.103-5.429 12.103-12.103 12.103-12.103-5.429-12.103-12.103z"/><path d="m289.844 352.458c-12.829 0-23.265 10.437-23.265 23.265v42.47c0 12.829 10.437 23.266 23.265 23.266s23.265-10.437 23.265-23.266v-42.47c0-12.828-10.437-23.265-23.265-23.265zm8.265 65.734c0 4.558-3.708 8.266-8.265 8.266s-8.265-3.708-8.265-8.266v-42.47c0-4.558 3.708-8.265 8.265-8.265s8.265 3.707 8.265 8.265z"/></g></g></svg>