<svg enable-background="new 0 0 256 256" height="512" viewBox="0 0 256 256" width="512" xmlns="http://www.w3.org/2000/svg"><path d="m183.861 87.5h-26.723c-3.101 0-5.639 2.537-5.639 5.639v21.723c0 3.101 2.537 5.639 5.639 5.639h26.723c3.101 0 5.639-2.537 5.639-5.639v-21.723c0-3.102-2.537-5.639-5.639-5.639z" fill="#fc3850"/><circle cx="170.5" cy="100.5" fill="#f9677f" r="5"/><path d="m151.5 114.861v-21.722c0-3.101 2.537-5.639 5.639-5.639h26.723c.78 0 1.524.161 2.201.451 2.823-7.12 4.391-14.873 4.391-22.998-.001-34.492-27.962-62.453-62.454-62.453s-62.453 27.961-62.453 62.453 27.961 62.453 62.453 62.453c10.307 0 20.021-2.512 28.589-6.934-2.846-.279-5.089-2.695-5.089-5.611z" fill="#facb35"/><path d="m105.386 50.344c.458 0 .906.039 1.345.107v-.993c0-.005 0-.01 0-.014.001-.705.663-1.225 1.353-1.081 3.798.795 15.093 2.154 22.75-7.475.42-.528 1.196-.577 1.678-.105 1.763 1.728 6.352 5.18 15.061 5.435.594.017 1.07.507 1.082 1.102.002.109.003.218.003.328v2.804c.439-.068.887-.107 1.345-.107 2.359 0 4.497.938 6.071 2.456v-15.745c0-6.586-5.389-11.975-11.975-11.975-2.234 0-4.322.631-6.117 1.708-2.097-3.499-5.916-5.861-10.269-5.861h-6.149c-11.901 0-21.639 9.738-21.639 21.639v9.696c1.498-1.199 3.394-1.919 5.461-1.919z" fill="#843418"/><path d="m151.5 114.861v-16.192l-4.048-1.019-9.794-4.829-4.5 9.284c-.335.69-1.034 1.129-1.802 1.129-.2 0-7.073 0-7.03 0-.788 0-1.502-.462-1.825-1.18l-4.159-9.233-9.794 4.829-16.281 4.098c-3.511.884-6.039 3.948-6.241 7.563l-.076 1.816c11.098 10.112 25.853 16.279 42.049 16.279 10.311 0 20.033-2.508 28.603-6.933-2.851-.272-5.102-2.691-5.102-5.612z" fill="#1387ce"/><g fill="#f9c1a8"><path d="m150.004 50.344c-.458 0-.906.039-1.345.107v1.421 14.449c0 .473-.021.941-.053 1.406.456.073.921.122 1.398.122 4.834 0 8.753-3.919 8.753-8.753s-3.919-8.752-8.753-8.752z"/><path d="m106.731 51.872v-1.422c-.439-.068-.887-.107-1.345-.107-4.834 0-8.753 3.919-8.753 8.753s3.919 8.753 8.753 8.753c.477 0 .942-.049 1.398-.122-.031-.465-.053-.933-.053-1.406z"/><path d="m130.835 40.886c-7.657 9.629-18.952 8.27-22.75 7.475-.69-.144-1.352.376-1.353 1.081v.014 16.864c0 11.53 9.434 20.964 20.964 20.964 11.53 0 20.964-9.434 20.964-20.964v-18.674c0-.11-.001-.219-.003-.328-.012-.595-.488-1.085-1.082-1.102-8.709-.255-13.298-3.707-15.061-5.435-.483-.472-1.26-.422-1.679.105z"/><path d="m127.695 87.284c-3.357 0-6.533-.804-9.353-2.222v7.759l4.159 9.233c.323.718 1.038 1.18 1.825 1.18h7.03c.767 0 1.467-.438 1.802-1.129l4.5-9.284v-8.072c-2.968 1.616-6.363 2.535-9.963 2.535z"/></g><path d="m159.699 239.674c0-7.604-6.222-13.826-13.826-13.826h-35.745c-7.604 0-13.826 6.222-13.826 13.826s6.222 13.826 13.826 13.826h35.745c7.604 0 13.826-6.222 13.826-13.826z" fill="#a0d85d"/><path d="m181.502 141.826h-107.004c-7.604 0-13.826 6.222-13.826 13.826s6.222 13.826 13.826 13.826h107.003c7.604 0 13.826-6.222 13.826-13.826.001-7.604-6.221-13.826-13.825-13.826z" fill="#c5e3ff"/><path d="m181.502 183.837h-107.004c-7.604 0-13.826 6.222-13.826 13.826s6.222 13.826 13.826 13.826h107.003c7.604 0 13.826-6.222 13.826-13.826.001-7.604-6.221-13.826-13.825-13.826z" fill="#c5e3ff"/><path d="m150.004 70.349c-.563 0-1.149-.05-1.794-.154-1.275-.205-2.185-1.347-2.098-2.636.027-.41.047-.822.047-1.238v-15.871c0-1.233.899-2.282 2.117-2.471 7.003-1.08 12.98 4.348 12.98 11.117.001 6.205-5.047 11.253-11.252 11.253zm1.155-17.398v12.291c2.897-.543 5.098-3.092 5.098-6.146s-2.2-5.602-5.098-6.145z"/><path d="m105.386 70.349c-6.204 0-11.252-5.048-11.252-11.252 0-6.769 5.994-12.194 12.98-11.117 1.218.189 2.117 1.238 2.117 2.471v15.871c0 .417.02.828.047 1.238.087 1.289-.822 2.431-2.098 2.636-.644.102-1.231.153-1.794.153zm-1.155-17.398c-2.897.543-5.098 3.092-5.098 6.146s2.2 5.603 5.098 6.146z"/><path d="m127.695 89.785c-12.938 0-23.464-10.526-23.464-23.464v-16.864c.002-1.104.488-2.122 1.335-2.808.853-.691 1.959-.958 3.03-.734 3.876.811 13.617 1.795 20.281-6.585.64-.805 1.594-1.303 2.618-1.367 1.022-.058 2.032.312 2.767 1.032 1.369 1.342 5.412 4.488 13.384 4.722 1.93.057 3.47 1.617 3.508 3.552.004.113.005.245.005.377v18.675c0 12.938-10.525 23.464-23.464 23.464zm-18.464-38.686v15.222c0 10.181 8.283 18.464 18.464 18.464s18.464-8.283 18.464-18.464v-17.67c-7.292-.484-11.817-3.068-14.299-5.103-7.557 8.463-17.811 8.24-22.629 7.551zm23.561-8.658c.001 0-.001.003-.003.003.001 0 .002-.002.003-.003zm-1.957-1.555h.01z"/><path d="m156.076 55.299c-.636 0-1.261-.242-1.736-.7-1.174-1.132-2.714-1.755-4.336-1.755-.309 0-.632.026-.962.077-.724.111-1.456-.098-2.01-.573s-.873-1.168-.873-1.898v-1.799c-7.292-.484-11.817-3.068-14.299-5.103-7.604 8.514-17.935 8.239-22.711 7.539-.129.486-.401.928-.791 1.261-.554.475-1.284.684-2.01.573-1.858-.289-3.499.203-4.862 1.294-.751.601-1.778.717-2.645.301-.866-.417-1.417-1.292-1.417-2.253v-9.696c0-13.311 10.829-24.139 24.14-24.139h6.148c4.268 0 8.33 1.942 11.063 5.185 1.694-.679 3.501-1.031 5.323-1.031 7.981 0 14.476 6.493 14.476 14.475v15.743c0 1.003-.6 1.909-1.522 2.301-.315.133-.647.198-.976.198zm-4.917-7.397c.827.085 1.637.26 2.416.521v-11.367c0-5.224-4.251-9.475-9.476-9.475-1.687 0-3.356.467-4.832 1.352-.568.341-1.251.44-1.893.281-.644-.161-1.196-.571-1.537-1.14-1.717-2.866-4.831-4.646-8.125-4.646h-6.148c-10.554 0-19.14 8.586-19.14 19.139v5.677c.707-.194 1.435-.319 2.169-.372.228-.468.557-.886.973-1.223.853-.691 1.959-.958 3.03-.734 3.876.811 13.617 1.795 20.281-6.585.64-.804 1.594-1.303 2.618-1.367 1.022-.058 2.032.312 2.767 1.032 1.369 1.342 5.412 4.488 13.384 4.722 1.93.057 3.47 1.617 3.509 3.552.003.113.004.245.004.377z"/><path d="m128 118c-1.281 0-2.5-1.044-2.5-2.5 0-1.609 1.484-2.766 2.99-2.45 1.14.217 2.01 1.238 2.01 2.45 0 1.389-1.147 2.5-2.5 2.5z"/><path d="m131.356 105.734h-7.029c-1.766 0-3.377-1.041-4.104-2.65l-4.16-9.235c-.146-.323-.221-.673-.221-1.027v-7.759c0-.867.449-1.673 1.188-2.128.737-.456 1.66-.495 2.435-.105 2.58 1.297 5.35 1.955 8.23 1.955 3.055 0 6.087-.771 8.768-2.231.775-.421 1.714-.404 2.473.046.758.451 1.223 1.268 1.223 2.149v8.072c0 .378-.086.75-.25 1.09l-4.5 9.284c-.75 1.543-2.34 2.539-4.053 2.539zm-6.708-5h6.396l4.113-8.486v-3.69c-4.617 1.556-9.725 1.619-14.316.2v3.526z"/><path d="m119.206 73.468c-.772-1.144-.471-2.698.673-3.471 1.146-.772 2.698-.472 3.472.673 2.22 3.29 7.072 3.301 9.299 0 .773-1.145 2.326-1.447 3.471-.673 1.145.772 1.446 2.326.674 3.471-4.201 6.221-13.375 6.239-17.589 0z"/><path d="m120.01 61.6c-1.377 0-2.5-1.111-2.5-2.5 0-2.336 2.826-3.22 4.26-1.77.471.46.74 1.11.74 1.77 0 1.364-1.126 2.5-2.5 2.5z"/><path d="m135.99 61.6c-1.369 0-2.5-1.154-2.5-2.5 0-1.639 1.522-2.758 2.989-2.45 1.119.208 2.011 1.203 2.011 2.45 0 1.326-1.073 2.5-2.5 2.5z"/><path d="m181.502 171.979h-107.004c-9.002 0-16.326-7.324-16.326-16.327s7.324-16.326 16.326-16.326h107.004c9.002 0 16.326 7.324 16.326 16.326s-7.324 16.327-16.326 16.327zm-107.004-27.653c-6.245 0-11.326 5.081-11.326 11.326 0 6.246 5.081 11.327 11.326 11.327h107.004c6.245 0 11.326-5.081 11.326-11.327 0-6.245-5.081-11.326-11.326-11.326z"/><path d="m181.502 213.989h-107.004c-9.002 0-16.326-7.324-16.326-16.326s7.324-16.326 16.326-16.326h107.004c9.002 0 16.326 7.324 16.326 16.326s-7.324 16.326-16.326 16.326zm-107.004-27.652c-6.245 0-11.326 5.081-11.326 11.326s5.081 11.326 11.326 11.326h107.004c6.245 0 11.326-5.081 11.326-11.326s-5.081-11.326-11.326-11.326z"/><path d="m145.872 256h-35.744c-9.002 0-16.326-7.324-16.326-16.326s7.324-16.327 16.326-16.327h35.744c9.002 0 16.326 7.324 16.326 16.327s-7.324 16.326-16.326 16.326zm-35.744-27.653c-6.245 0-11.326 5.081-11.326 11.327 0 6.245 5.081 11.326 11.326 11.326h35.744c6.245 0 11.326-5.081 11.326-11.326 0-6.246-5.081-11.327-11.326-11.327z"/><path d="m89.289 202.952c-.64 0-1.279-.244-1.768-.732l-5.578-5.578c-.977-.976-.977-2.559 0-3.535.977-.977 2.559-.977 3.535 0l5.578 5.578c.977.976.977 2.559 0 3.535-.488.488-1.127.732-1.767.732z"/><path d="m83.711 202.952c-.64 0-1.279-.244-1.768-.732-.977-.976-.977-2.559 0-3.535l5.578-5.578c.977-.977 2.559-.977 3.535 0 .977.976.977 2.559 0 3.535l-5.578 5.578c-.488.488-1.127.732-1.767.732z"/><path d="m110.039 202.952c-.64 0-1.279-.244-1.768-.732l-5.578-5.578c-.977-.976-.977-2.559 0-3.535.977-.977 2.559-.977 3.535 0l5.578 5.578c.977.976.977 2.559 0 3.535-.488.488-1.127.732-1.767.732z"/><path d="m104.461 202.952c-.64 0-1.279-.244-1.768-.732-.977-.976-.977-2.559 0-3.535l5.578-5.578c.977-.977 2.559-.977 3.535 0 .977.976.977 2.559 0 3.535l-5.578 5.578c-.488.488-1.127.732-1.767.732z"/><path d="m130.789 202.952c-.64 0-1.279-.244-1.768-.732l-5.578-5.578c-.977-.976-.977-2.559 0-3.535.977-.977 2.559-.977 3.535 0l5.578 5.578c.977.976.977 2.559 0 3.535-.488.488-1.127.732-1.767.732z"/><path d="m125.211 202.952c-.64 0-1.279-.244-1.768-.732-.977-.976-.977-2.559 0-3.535l5.578-5.578c.977-.977 2.559-.977 3.535 0 .977.976.977 2.559 0 3.535l-5.578 5.578c-.488.488-1.127.732-1.767.732z"/><path d="m151.539 202.952c-.64 0-1.279-.244-1.768-.732l-5.578-5.578c-.977-.976-.977-2.559 0-3.535.977-.977 2.559-.977 3.535 0l5.578 5.578c.977.976.977 2.559 0 3.535-.488.488-1.127.732-1.767.732z"/><path d="m145.961 202.952c-.64 0-1.279-.244-1.768-.732-.977-.976-.977-2.559 0-3.535l5.578-5.578c.977-.977 2.559-.977 3.535 0 .977.976.977 2.559 0 3.535l-5.578 5.578c-.488.488-1.127.732-1.767.732z"/><path d="m172.289 202.952c-.64 0-1.279-.244-1.768-.732l-5.578-5.578c-.977-.976-.977-2.559 0-3.535.977-.977 2.559-.977 3.535 0l5.578 5.578c.977.976.977 2.559 0 3.535-.488.488-1.127.732-1.767.732z"/><path d="m166.711 202.952c-.64 0-1.279-.244-1.768-.732-.977-.976-.977-2.559 0-3.535l5.578-5.578c.977-.977 2.559-.977 3.535 0 .977.976.977 2.559 0 3.535l-5.578 5.578c-.488.488-1.127.732-1.767.732z"/><path d="m183.861 123h-26.723c-4.487 0-8.139-3.651-8.139-8.139v-21.722c0-4.488 3.651-8.139 8.139-8.139h26.723c4.487 0 8.139 3.651 8.139 8.139v21.723c0 4.487-3.651 8.138-8.139 8.138zm-26.722-33c-1.73 0-3.139 1.408-3.139 3.139v21.723c0 1.73 1.408 3.139 3.139 3.139h26.723c1.73 0 3.139-1.408 3.139-3.139v-21.723c0-1.73-1.408-3.139-3.139-3.139z"/><path d="m181.988 90.02c-.042 0-.084-.001-.126-.003l-.176-.011-22.287-.006-.262.017c-.687.03-1.353-.214-1.849-.686s-.777-1.126-.777-1.812v-8.519c0-7.713 6.275-13.988 13.988-13.988s13.989 6.275 13.989 13.988v8.52c0 .685-.281 1.34-.777 1.812-.466.442-1.083.688-1.723.688zm-20.476-5.02h17.977v-6c0-4.956-4.032-8.988-8.988-8.988s-8.988 4.032-8.988 8.988v6z"/><path d="m128 129.906c-35.815 0-64.953-29.138-64.953-64.953s29.138-64.953 64.953-64.953 64.953 29.138 64.953 64.953c0 8.228-1.536 16.275-4.566 23.919-.249.627-.74 1.127-1.362 1.386s-1.324.257-1.944-.009c-.388-.166-.798-.25-1.219-.25h-26.723c-1.73 0-3.139 1.408-3.139 3.139v21.723c0 1.595 1.244 2.967 2.833 3.123 1.103.108 2.003.929 2.211 2.018.209 1.088-.324 2.184-1.309 2.692-9.274 4.785-19.278 7.212-29.735 7.212zm0-124.906c-33.059 0-59.953 26.895-59.953 59.953s26.894 59.953 59.953 59.953c8.027 0 15.766-1.549 23.066-4.611-1.291-1.443-2.066-3.349-2.066-5.433v-21.723c0-4.488 3.651-8.139 8.139-8.139h26.723c.212 0 .422.008.631.024 2.298-6.452 3.461-13.194 3.461-20.072-.001-33.057-26.895-59.952-59.954-59.952z"/><path d="m128 129.906c-16.219 0-31.75-6.013-43.732-16.931-.547-.498-.845-1.213-.814-1.952l.075-1.816c.267-4.769 3.532-8.726 8.129-9.883l16.024-4.033 9.555-4.711c.607-.3 1.312-.34 1.95-.111.639.229 1.156.708 1.435 1.326l4.035 8.957c.281-.018.537-.018.741-.018h5.647l4.363-9.002c.291-.6.809-1.058 1.438-1.274s1.319-.172 1.917.123l9.555 4.711 3.792.954c1.11.279 1.89 1.278 1.89 2.424v16.192c0 1.599 1.248 2.971 2.841 3.123 1.104.105 2.007.926 2.218 2.015.21 1.089-.322 2.187-1.309 2.695-9.269 4.784-19.277 7.211-29.75 7.211zm-39.502-19.856c10.937 9.588 24.918 14.855 39.502 14.855 8.048 0 15.798-1.552 23.104-4.62-1.308-1.454-2.104-3.366-2.104-5.425v-14.243l-2.159-.543c-.171-.043-.337-.104-.495-.182l-7.536-3.716-3.401 7.019c-.748 1.542-2.339 2.538-4.052 2.538h-7.029c-1.769 0-3.38-1.042-4.105-2.654l-3.096-6.871-7.472 3.684c-.158.078-.324.139-.495.182l-16.281 4.098c-2.463.62-4.214 2.741-4.355 5.278zm35.829-9.316v.045c.057-.006.112-.012.167-.016-.053-.019-.109-.029-.167-.029z"/><path d="m170.5 112c-1.381 0-2.5-1.119-2.5-2.5v-4c0-1.381 1.119-2.5 2.5-2.5s2.5 1.119 2.5 2.5v4c0 1.381-1.119 2.5-2.5 2.5z"/><path d="m170.5 108c-4.136 0-7.5-3.364-7.5-7.5s3.364-7.5 7.5-7.5 7.5 3.364 7.5 7.5-3.364 7.5-7.5 7.5zm0-10c-1.379 0-2.5 1.122-2.5 2.5s1.121 2.5 2.5 2.5 2.5-1.122 2.5-2.5-1.121-2.5-2.5-2.5z"/></svg>