<svg id="Layer_1_1_" enable-background="new 0 0 64 64" height="512" viewBox="0 0 64 64" width="512" xmlns="http://www.w3.org/2000/svg"><path d="m18 13c-3.482 1.161-5.649 4.631-5.164 8.269l1.164 8.731h8l1.49-4.433 1.004-3.871c.284-3.999-2.381-7.782-6.494-8.696z" fill="#e3e3e3"/><path d="m13 42-6 20h5l5-16 5-16h-8z" fill="#5070a1"/><path d="m20 19c-1.097 2.194-.173 4.86 2.046 5.904l1.439.677.005-.014-.005.014 11.515 5.419v-3z" fill="#fee6d5"/><path d="m23 8c0-.734-.167-1.425-.451-2.052l-9.549 2.052c0 2.761 2.239 5 5 5s5-2.239 5-5z" fill="#fee6d5"/><path d="m17 46-1.648 4.945-.001.001.649 11.054h4l2-32z" fill="#47648f"/><path d="m18.721 13.196c-.235-.075-.475-.141-.721-.196-3.482 1.161-5.649 4.631-5.164 8.269l1.164 8.731h1.232l-1.164-8.731c-.461-3.456 1.474-6.756 4.653-8.073z" fill="#d6d6d6"/><path d="m26.091 5.996c-.1-1.1-1.073-1.911-2.174-1.811l-2.464.224c-.896-.867-2.107-1.409-3.453-1.409-2.761 0-5 2.239-5 5l6.562-1.41z" fill="#5070a1"/><path d="m57 55.184v-11.184h-2-14v14h1c0-1.657 1.343-3 3-3s3 1.343 3 3h7c0-1.304.837-2.403 2-2.816z" fill="#90622a"/><path d="m41 36h14v8h-14z" fill="#90622a"/><path d="m44 55v-11h11v-3h-11v-5h-3v22h16v-3z" fill="#7a5324"/><path d="m35 28h6v3h-6z" fill="#e3e3e3"/><path d="m48 40h-2c-.552 0-1-.448-1-1 0-.552.448-1 1-1h2c.552 0 1 .448 1 1 0 .552-.448 1-1 1z" fill="#deaf76"/><path d="m42 57v-29h-2v30c0 .552.447 1 1 1h16v-2z" fill="#bfbfbf"/><circle cx="45" cy="59" fill="#e3e3e3" r="3"/><path d="m58 56c-.353 0-.686.072-1 .184-1.163.413-2 1.512-2 2.816 0 1.657 1.343 3 3 3s3-1.343 3-3-1.343-3-3-3z" fill="#e3e3e3"/><g fill="#bfbfbf"><circle cx="45" cy="59" r="1"/><circle cx="58" cy="59" r="1"/></g></svg>