<svg id="Layer_1" enable-background="new 0 0 512 512" height="512" viewBox="0 0 512 512" width="512" xmlns="http://www.w3.org/2000/svg"><g><g><g><path d="m69.152 411.667h28.154v73.333h-28.154z" fill="#ffdbb5"/><path d="m97.306 411.667h28.154v73.333h-28.154z" fill="#ffd1a1"/></g><g><g><g><g fill="#cf8230"><path d="m64.932 504.5h32.425v-24.559h-32.425c-6.782 0-12.279 5.498-12.279 12.279 0 6.782 5.497 12.28 12.279 12.28z"/><path d="m129.783 504.5h-32.425v-24.559h32.425c6.782 0 12.279 5.498 12.279 12.279 0 6.782-5.497 12.28-12.279 12.28z"/></g><g><path d="m69.152 348.929h56.308v68.712h-56.308z" fill="#cf8230"/><g><g><g><g><path d="m97.305 137.691c-19.509 0-35.324 15.815-35.324 35.324v45.285c0 19.402 15.793 35.131 35.274 35.131h.102c19.481 0 35.274-15.729 35.274-35.131v-45.285c-.001-19.508-15.816-35.324-35.326-35.324z" fill="#ffdbb5"/></g></g></g><path d="m97.306 137.691c-5.364 0-10.446 1.202-15 3.341 12.007 5.641 20.324 17.838 20.324 31.983v45.285c0 14.079-8.318 26.217-20.324 31.821 4.54 2.119 9.604 3.31 14.949 3.31h.101c19.481 0 35.274-15.729 35.274-35.131v-45.284c0-19.509-15.815-35.325-35.324-35.325z" fill="#ffd1a1"/><path d="m144.637 348.929h-94.663v-62.967c0-18.002 14.594-32.596 32.596-32.596h29.471c18.002 0 32.596 14.594 32.596 32.596z" fill="#2ae88f"/><g fill="#ffdbb5"><path d="m62.214 377.661h-.049c-6.732 0-12.19-5.458-12.19-12.19v-73.55h24.43v73.55c-.001 6.733-5.459 12.19-12.191 12.19z"/><path d="m132.447 377.661h-.049c-6.732 0-12.19-5.458-12.19-12.19v-73.55h24.43v73.55c-.001 6.733-5.459 12.19-12.191 12.19z"/></g></g><path d="m132.63 188.612h-12.423l-11.825-12.612-11.077 12.612h-35.116v-15.754c0-19.422 15.745-35.167 35.167-35.167h.106c19.422 0 35.167 15.745 35.167 35.167v15.754z" fill="#cf8230"/><g><path d="m97.463 137.691h-.106c-5.346 0-10.41 1.198-14.947 3.333 11.947 5.619 20.22 17.758 20.22 31.835v9.691l5.752-6.55 11.824 12.613h12.423v-15.754c.001-19.423-15.744-35.168-35.166-35.168z" fill="#c7751e"/></g></g></g><g><g><path d="m276.726 84.661-97.886-1.461v-37.147c0-21.292 17.261-38.553 38.553-38.553h20.78c21.292 0 38.553 17.261 38.553 38.553z" fill="#5d76cf"/><path d="m238.173 7.5h-20.78c-1.561 0-3.097.104-4.61.284 19.118 2.28 33.943 18.538 33.943 38.269v53.091h30v-53.091c0-21.292-17.26-38.553-38.553-38.553z" fill="#4d69cf"/><g><g><g><path d="m178.84 83.2v21.238c0 26.883 21.881 48.676 48.873 48.676h.141c26.992 0 48.873-21.793 48.873-48.676v-52.656h-19.847c-8.579 0-16.78 3.937-21.833 10.871-6.615 9.079-21.784 20.547-56.207 20.547z" fill="#ffdbb5"/></g></g></g><path d="m256.88 51.782c-3.513 0-6.958.67-10.154 1.926v50.73c0 21.696-14.255 40.068-33.943 46.354 4.707 1.503 9.722 2.322 14.93 2.322h.141c26.992 0 48.873-21.793 48.873-48.676v-52.656z" fill="#ffd1a1"/></g><path d="m227.783 282.75h-33.126v197.192h33.126 33.127v-197.192z" fill="#a6d4ff"/><path d="m283.474 282.75h-111.382v-91.175c0-21.182 17.171-38.353 38.353-38.353h34.677c21.182 0 38.353 17.171 38.353 38.353v91.175z" fill="#ffd52b"/><path d="m186.493 323.046h-.058c-7.922 0-14.343-6.422-14.343-14.343v-103.627h28.745v103.626c0 7.922-6.422 14.344-14.344 14.344z" fill="#ffdbb5"/><path d="m269.131 323.046h-.058c-7.922 0-14.343-6.422-14.343-14.343v-103.627h28.745v103.626c-.001 7.922-6.422 14.344-14.344 14.344z" fill="#ffdbb5"/><g fill="#5d76cf"><path d="m187.667 504.5h40.116v-24.559h-40.116c-6.782 0-12.279 5.498-12.279 12.279 0 6.782 5.497 12.28 12.279 12.28z"/><path d="m267.899 504.5h-40.116v-24.559h40.116c6.782 0 12.279 5.498 12.279 12.279 0 6.782-5.497 12.28-12.279 12.28z"/></g></g><g><circle cx="369.165" cy="68.5" fill="#5d76cf" r="61"/><path d="m369.166 7.5c-5.177 0-10.201.65-15 1.864 26.435 6.685 46 30.624 46 59.136s-19.565 52.451-46 59.136c4.799 1.214 9.823 1.864 15 1.864 33.689 0 61-27.311 61-61s-27.311-61-61-61z" fill="#4d69cf"/><g><g><g><g><g><path d="m356.102 56.717c-16.394 0-29.684 13.29-29.684 29.684v24.199c0 23.479 19.111 42.513 42.686 42.513h.123c23.575 0 42.686-19.034 42.686-42.513v-24.199c0-16.394-13.29-29.684-29.684-29.684z" fill="#edb374"/></g></g></g></g><path d="m382.229 56.717h-26.126c-.651 0-1.296.028-1.937.07 15.49.999 27.747 13.872 27.747 29.615v24.198c0 18.244-11.542 33.799-27.747 39.831 4.65 1.731 9.682 2.683 14.938 2.683h.123c23.575 0 42.686-19.034 42.686-42.513v-24.2c0-16.394-13.29-29.684-29.684-29.684z" fill="#e3a35d"/><path d="m369.165 282.75h-33.126v197.192h33.126 33.127v-197.192z" fill="#a6d4ff"/><path d="m424.857 282.75h-111.383v-91.175c0-21.182 17.171-38.353 38.353-38.353h34.677c21.182 0 38.353 17.171 38.353 38.353z" fill="#ff428e"/><path d="m327.876 323.046h-.058c-7.922 0-14.343-6.422-14.343-14.343v-103.627h28.745v103.626c-.001 7.922-6.423 14.344-14.344 14.344z" fill="#edb374"/><g><path d="m329.049 504.5h59.468v-24.559h-59.468c-6.782 0-12.279 5.498-12.279 12.279 0 6.782 5.498 12.28 12.279 12.28z" fill="#ff428e"/></g></g></g><g><g><path d="m414.694 334.194c-25.407 0-46.003-20.596-46.003-46.003v-33.86c0-25.369 20.565-45.934 45.934-45.934h.139c25.369 0 45.934 20.565 45.934 45.934v33.86c0 25.407-20.597 46.003-46.004 46.003z" fill="#5d76cf"/><path d="m414.764 208.397h-.139c-5.229 0-10.248.886-14.931 2.495 18.036 6.199 31.003 23.299 31.003 43.439v33.86c0 20.153-12.964 37.267-31.003 43.488 4.703 1.622 9.746 2.515 15 2.515 25.407 0 46.003-20.596 46.003-46.003v-33.86c.001-25.369-20.565-45.934-45.933-45.934z" fill="#4d69cf"/><g><g><path d="m386.541 420.333h28.154v64.667h-28.154z" fill="#ffdbb5"/><path d="m414.694 420.333h28.154v64.667h-28.154z" fill="#ffd1a1"/></g><g><g><g><path d="m388.517 254.468v22c0 14.378 11.703 26.034 26.14 26.034h.075c14.436 0 26.14-11.656 26.14-26.034v-22z" fill="#ffdbb5"/></g></g></g><path d="m414.694 254.468v22c0 9.642-5.267 18.054-13.089 22.553 3.842 2.21 8.296 3.481 13.051 3.481h.075c14.437 0 26.14-11.656 26.14-26.034v-22z" fill="#ffd1a1"/><path d="m429.43 303.366h-29.471c-18.002 0-32.596 14.594-32.596 32.596v42.967h19.177v48.712h56.308v-48.712h19.177v-42.967c.001-18.003-14.593-32.596-32.595-32.596z" fill="#ffd52b"/><g fill="#ffdbb5"><path d="m379.603 407.661h-.049c-6.733 0-12.19-5.458-12.19-12.19v-53.55h24.43v53.55c-.001 6.733-5.459 12.19-12.191 12.19z"/><path d="m449.835 407.661h-.049c-6.733 0-12.19-5.458-12.19-12.19v-53.55h24.43v53.55c0 6.733-5.458 12.19-12.191 12.19z"/></g></g></g><g fill="#a6d4ff"><path d="m382.321 504.5h32.425v-24.559h-32.425c-6.782 0-12.279 5.498-12.279 12.279 0 6.782 5.497 12.28 12.279 12.28z"/><path d="m447.172 504.5h-32.425v-24.559h32.425c6.782 0 12.279 5.498 12.279 12.279 0 6.782-5.497 12.28-12.279 12.28z"/></g></g></g></g></g><path d="m493.31 497h-26.967c.383-1.534.608-3.129.608-4.779 0-9.823-7.205-17.972-16.603-19.5v-57.586c10.619-.276 19.177-8.98 19.177-19.664v-59.51c0-8.596-2.728-16.562-7.351-23.096 3.951-7.588 6.023-16.015 6.023-24.675v-33.86c0-23.301-14.997-43.153-35.841-50.444v-12.312c0-19.845-12.675-36.781-30.353-43.15 9.537-8.219 15.947-19.941 17.182-33.146 11.915-12.733 18.479-29.307 18.479-46.778 0-37.771-30.729-68.5-68.5-68.5s-68.5 30.729-68.5 68.5c0 17.506 6.56 34.036 18.479 46.77 1.234 13.208 7.644 24.935 17.183 33.155-17.678 6.37-30.353 23.305-30.353 43.15v49.573c0 4.142 3.357 7.5 7.5 7.5s7.5-3.358 7.5-7.5v-28.572h13.745v96.126c0 3.773-3.07 6.843-6.902 6.843-3.773 0-6.843-3.07-6.843-6.843v-30.218c0-4.142-3.357-7.5-7.5-7.5s-7.5 3.358-7.5 7.5v30.218c0 12.044 9.799 21.843 21.901 21.843.222 0 .442-.01.663-.017v141.938c-10.669.274-19.269 9.02-19.269 19.753 0 1.651.226 3.246.608 4.779h-22.806c.383-1.534.608-3.129.608-4.779 0-10.734-8.6-19.479-19.27-19.753v-141.937c12.128.362 22.565-9.647 22.565-21.826v-117.128c0-19.279-11.966-35.806-28.857-42.573 13.429-10.277 22.109-26.426 22.109-44.564v-58.385c.002-25.394-20.658-46.053-46.052-46.053h-20.78c-25.394 0-46.053 20.659-46.053 46.053v58.384c0 18.139 8.679 34.287 22.108 44.564-16.89 6.768-28.856 23.294-28.856 42.573v117.127c0 12.176 10.427 22.189 22.564 21.826v141.938c-10.669.274-19.269 9.02-19.269 19.753 0 1.651.226 3.246.608 4.779h-19.542c.383-1.534.608-3.129.608-4.779 0-9.823-7.205-17.973-16.604-19.5v-87.586c10.619-.275 19.178-8.98 19.178-19.664v-79.51c0-16.76-10.342-31.144-24.975-37.126 7.991-7.75 12.968-18.571 12.968-30.535v-45.285c0-23.613-19.211-42.824-42.824-42.824-5.067 0-10.032.879-14.757 2.613-3.889 1.427-5.884 5.736-4.457 9.625s5.731 5.884 9.625 4.458c3.064-1.125 6.29-1.695 9.589-1.695 15.343 0 27.824 12.482 27.824 27.824v8.097h-1.674l-9.602-10.242c-2.987-3.186-8.225-3.101-11.106.18l-8.837 10.062h-24.43c0-4.831-.358-9.885.776-14.619.967-4.028-1.516-8.076-5.544-9.042-4.025-.967-8.075 1.516-9.042 5.543-.79 3.292-1.19 6.664-1.19 10.021v45.287c0 11.964 4.977 22.785 12.968 30.535-14.634 5.982-24.975 20.365-24.975 37.126v79.51c0 10.684 8.559 19.389 19.177 19.664v87.602c-9.347 1.57-16.498 9.698-16.498 19.484 0 1.651.226 3.246.608 4.779h-27.069c-4.143 0-7.5 3.358-7.5 7.5s3.357 7.5 7.5 7.5h474.62c4.143 0 7.5-3.358 7.5-7.5s-3.358-7.5-7.5-7.5zm-143.59-188.297v-18.453h11.512c.301 7.934 2.345 15.63 5.982 22.615-4.623 6.535-7.351 14.501-7.351 23.096v59.51c0 10.684 8.559 19.389 19.178 19.664v57.306h-35.502v-148.535c3.821-3.936 6.181-9.298 6.181-15.203zm83.652-32.235c0 10.22-8.361 18.534-18.715 18.534-10.278 0-18.64-8.314-18.64-18.534v-14.5h37.354v14.5zm-33.413 34.398h29.471c13.32 0 24.245 10.433 25.044 23.556h-16.878c-4.143 0-7.5 3.358-7.5 7.5v53.55c0 5.151 2.004 9.831 5.253 13.344v11.326h-41.308v-11.328c3.248-3.512 5.252-8.192 5.252-13.342v-53.55c0-4.142-3.357-7.5-7.5-7.5h-16.878c.799-13.123 11.724-23.556 25.044-23.556zm-25.096 38.555h9.43v46.05c0 2.586-2.104 4.69-4.69 4.69h-.049c-2.586 0-4.69-2.104-4.69-4.69v-46.05zm19.178 123.02v-37.3h13.153v37.3zm28.153 0v-37.3h13.154v37.3zm32.331-76.97c0 2.586-2.104 4.69-4.69 4.69h-.049c-2.586 0-4.69-2.104-4.69-4.69v-46.05h9.43v46.05zm-1.328-141.14v33.86c0 4.757-.867 9.415-2.539 13.779-3.017-1.891-6.301-3.391-9.783-4.43 4.683-5.763 7.496-13.094 7.496-21.072v-22c0-4.142-3.357-7.5-7.5-7.5h-52.354c-4.143 0-7.5 3.358-7.5 7.5v22c0 7.976 2.813 15.307 7.501 21.07-3.484 1.039-6.77 2.54-9.789 4.432-1.672-4.364-2.539-9.022-2.539-13.779v-33.86c0-21.192 17.241-38.434 38.434-38.434h.139c21.193 0 38.434 17.241 38.434 38.434zm-134.279-167.93v.51c-2.131-5.824-3.253-12.034-3.253-18.412 0-29.5 24-53.5 53.5-53.5s53.5 24 53.5 53.5c0 6.359-1.124 12.562-3.252 18.385v-.483c0-20.503-16.681-37.184-37.185-37.184h-26.126c-20.503 0-37.184 16.681-37.184 37.184zm15 0c0-12.232 9.952-22.184 22.185-22.184h26.126c12.232 0 22.185 9.952 22.185 22.184v24.199c0 19.306-15.784 35.013-35.187 35.013h-.122c-19.402 0-35.187-15.707-35.187-35.013zm-12.943 111.175v-6.001c0-17.012 13.841-30.853 30.853-30.853h34.677c17.012 0 30.853 13.84 30.853 30.853v9.387c-30.08-1.444-56.165 23.185-56.165 53.368v20.92h-11.473v-70.174c0-4.142-3.357-7.5-7.5-7.5zm-93.192 123.068c-4.143 0-7.5 3.358-7.5 7.5v144.297h-18.127v-148.535c3.821-3.935 6.181-9.297 6.181-15.203v-18.453h38.893v18.452c0 5.905 2.359 11.267 6.18 15.202v148.537h-18.126v-144.297c-.001-4.142-3.358-7.5-7.501-7.5zm48.192-11.941c0 3.773-3.07 6.843-6.844 6.843h-.059c-3.773 0-6.843-3.07-6.843-6.843v-96.126h13.745v96.126zm-58.582-293.703h20.78c16.528 0 30.078 12.98 31 29.282h-12.293c-11.099 0-21.526 5.216-27.894 13.954-5.312 7.291-17.003 15.856-42.646 17.26v-29.443c0-17.122 13.931-31.053 31.053-31.053zm-31.053 89.438v-13.92c32.087-1.599 47.462-13.419 54.77-23.447 3.554-4.876 9.449-7.788 15.771-7.788h12.347v45.156c0 22.705-18.56 41.176-41.373 41.176h-.141c-22.815-.002-41.374-18.473-41.374-41.177zm24.104 56.285h34.677c17.013 0 30.854 13.84 30.854 30.853v6.001h-21.245c-4.143 0-7.5 3.358-7.5 7.5v70.174h-38.893v-70.174c0-4.142-3.357-7.5-7.5-7.5h-21.245v-6.001c0-17.013 13.841-30.853 30.852-30.853zm-24.008 154.823c-3.773 0-6.844-3.07-6.844-6.843v-96.126h13.745v96.126c0 3.773-3.07 6.843-6.844 6.843zm-68.477 63.268v31.328h-13.153v-28.718c0-4.142-3.357-7.5-7.5-7.5s-7.5 3.358-7.5 7.5v28.718h-13.155v-31.326c3.249-3.513 5.253-8.193 5.253-13.344v-9.042h30.803v9.042c0 5.149 2.004 9.829 5.252 13.342zm-41.308 46.327h13.154v47.3h-13.154zm28.155 47.3v-47.3h13.153v47.3zm32.331-106.97c0 2.586-2.104 4.69-4.69 4.69h-.049c-2.586 0-4.69-2.104-4.69-4.69v-66.05h9.43v66.05zm-39.831-169.359c2.158 0 4.211-.929 5.635-2.551l5.624-6.402 6.171 6.583c1.418 1.513 3.398 2.371 5.472 2.371h4.923v22.187c0 14.629-11.488 26.632-25.959 27.565h-3.732c-14.471-.934-25.959-12.937-25.959-27.565v-22.188zm-14.737 64.754h29.472c13.32 0 24.245 10.433 25.044 23.556h-16.878c-4.143 0-7.5 3.358-7.5 7.5v49.507h-30.803v-49.507c0-4.142-3.357-7.5-7.5-7.5h-16.878c.799-13.123 11.724-23.556 25.043-23.556zm-25.094 104.605v-66.05h9.43v66.05c0 2.586-2.104 4.69-4.69 4.69h-.05c-2.587 0-4.69-2.104-4.69-4.69zm2.678 126.75c0-2.635 2.144-4.779 4.778-4.779h24.926v9.558h-24.925c-2.635 0-4.779-2.144-4.779-4.779zm44.704 4.779v-9.559h24.926c2.636 0 4.779 2.144 4.779 4.779s-2.143 4.78-4.779 4.78zm78.031-4.779c0-2.635 2.144-4.779 4.779-4.779h32.616v9.558h-32.616c-2.636 0-4.779-2.144-4.779-4.779zm52.395 4.779v-9.559h32.616c2.636 0 4.779 2.144 4.779 4.779s-2.143 4.78-4.779 4.78zm88.988-4.779c0-2.635 2.144-4.779 4.779-4.779h34.1c-.811 3.186-.811 6.372 0 9.559h-34.1c-2.636-.001-4.779-2.145-4.779-4.78zm58.05 4.779c-2.636 0-4.779-2.144-4.779-4.779s2.144-4.779 4.779-4.779h24.925v9.558zm39.925 0v-9.559h24.926c2.636 0 4.779 2.144 4.779 4.779s-2.143 4.78-4.779 4.78z"/></g></svg>