<svg height="512pt" viewBox="-118 0 512 512" width="512pt" xmlns="http://www.w3.org/2000/svg"><path d="m142.5 247.5 15 90c24.851562 0 45-20.148438 45-45zm0 0" fill="#353535"/><path d="m112.5 292.5c0 24.851562 20.144531 45 45 45v-90zm0 0" fill="#4f4f4f"/><path d="m187.5 172.5-30-.011719-30 60.003907 30 59.996093 45 .011719v-90zm0 0" fill="#dbf4ff"/><path d="m157.5 172.488281-30 .011719-15 30v90l45-.011719zm0 0" fill="#fff"/><path d="m117.503906 172.5c-11.042968 0-20 8.953125-20 20l-.003906 133.535156h30v-153.535156zm0 0" fill="#c27749"/><path d="m197.5 172.5h-10v153.535156h30v-133.535156c0-11.046875-8.953125-20-20-20zm0 0" fill="#a45e43"/><path d="m157.5 52.5v101l45-46v-10c0-24.851562-20.148438-45-45-45zm0 0" fill="#ffb4a9"/><path d="m157.5 52.5c-24.855469 0-45 20.148438-45 45v10l60 46v-56c0-24.851562-6.714844-45-15-45zm0 0" fill="#ffd9d4"/><path d="m176.207031 107.5c-1.050781-1.574219-2.300781-3.003906-3.707031-4.261719l-15 69.261719c24.851562 0 45-20.148438 45-45v-20zm0 0" fill="#c27749"/><path d="m172.5 127.5v-24.261719c-3.980469-3.566406-9.234375-5.738281-15-5.738281-7.800781 0-14.671875 3.96875-18.710938 10h-26.289062v20c0 24.851562 20.144531 45 45 45 8.285156 0 15-20.148438 15-45zm0 0" fill="#e18f4e"/><path d="m173.292969 17.5c-2.8125-5.90625-8.816407-10-15.792969-10s-12.984375 4.09375-15.792969 10c-9.664062 0-17.5 7.835938-17.5 17.5s7.835938 17.5 17.5 17.5h31.585938c9.664062 0 17.5-7.835938 17.5-17.5s-7.835938-17.5-17.5-17.5zm0 0" fill="#e18f4e"/><path d="m37.5 37.5-20 50 20 45h30v-95zm0 0" fill="#696969"/><path d="m7.5 37.5h30v95h-30zm0 0" fill="#808080"/><path d="m217.5 333.535156c4.140625 0 7.5-3.359375 7.5-7.5v-26.542968c28.171875-3.6875 50-27.832032 50-56.992188 0-29.488281-22.3125-53.847656-50.9375-57.117188-3.144531-11.722656-13.859375-20.382812-26.5625-20.382812h-3.308594c9.746094-9.539062 15.808594-22.820312 15.808594-37.5v-30c0-17.460938-8.578125-32.945312-21.730469-42.496094 6.082031-4.566406 10.023438-11.832031 10.023438-20.003906 0-12.257812-8.867188-22.484375-20.527344-24.597656-4.648437-6.429688-12.203125-10.402344-20.265625-10.402344-8.066406 0-15.617188 3.972656-20.265625 10.402344-11.660156 2.113281-20.527344 12.339844-20.527344 24.597656 0 8.171875 3.941407 15.4375 10.019531 20.003906-13.152343 9.550782-21.726562 25.035156-21.726562 42.496094v30c0 14.679688 6.0625 27.960938 15.808594 37.5h-3.308594c-12.5625 0-23.179688 8.472656-26.453125 20h-68.546875c-4.136719 0-7.5-3.363281-7.5-7.5s3.363281-7.5 7.5-7.5h15c4.144531 0 7.5-3.359375 7.5-7.5 0-4.144531-3.355469-7.5-7.5-7.5h-15c-12.40625 0-22.5 10.09375-22.5 22.5s10.09375 22.5 22.5 22.5h67.5v126.035156c0 4.140625 3.355469 7.5 7.5 7.5h22.5v155.558594l-24.871094 8.289062c-3.929687 1.308594-6.054687 5.558594-4.746094 9.488282 1.050782 3.140625 3.976563 5.128906 7.117188 5.128906.785156 0 1.585938-.125 2.371094-.386719l30-10c3.0625-1.019531 5.128906-3.886719 5.128906-7.113281v-154.574219c6.972656 3.3125 14.640625 5.074219 22.5 5.074219s15.527344-1.765625 22.5-5.074219v154.574219c0 3.226562 2.0625 6.09375 5.128906 7.113281l30 10c.785156.261719 1.585938.386719 2.371094.386719 3.140625 0 6.066406-1.988281 7.113281-5.128906 1.3125-3.929688-.8125-8.179688-4.742187-9.488282l-24.871094-8.289062v-155.558594zm42.5-91.035156c0 20.875-15.132812 38.269531-35 41.824219v-83.648438c19.867188 3.554688 35 20.949219 35 41.824219zm-50-50v126.035156h-15v-138.535156h2.5c6.890625 0 12.5 5.605469 12.5 12.5zm-75-12.5h15v82.488281c0 4.140625 3.355469 7.5 7.5 7.5 4.140625 0 7.5-3.359375 7.5-7.5v-82.488281h15v105h-45zm6.707031-135c-5.515625 0-10-4.484375-10-10s4.484375-10 10-10c2.894531 0 5.527344-1.664062 6.769531-4.277344 1.683594-3.53125 5.136719-5.722656 9.023438-5.722656 3.882812 0 7.339844 2.191406 9.019531 5.722656 1.242188 2.613282 3.878907 4.277344 6.773438 4.277344 5.511719 0 10 4.484375 10 10s-4.488281 10-10 10zm15.792969 15c20.675781 0 37.5 16.820312 37.5 37.5v2.5h-15.140625c-5.652344-6.324219-13.746094-10-22.359375-10s-16.707031 3.675781-22.363281 10h-15.136719v-2.5c0-20.679688 16.820312-37.5 37.5-37.5zm-37.5 67.5v-12.5h18.789062c2.503907 0 4.839844-1.25 6.234376-3.328125 2.796874-4.179687 7.460937-6.671875 12.476562-6.671875s9.679688 2.492188 12.476562 6.671875c1.394532 2.078125 3.730469 3.328125 6.230469 3.328125h18.792969v12.5c0 20.625-16.738281 37.410156-37.34375 37.496094-.054688 0-.105469-.007813-.15625-.007813-.054688 0-.105469.007813-.15625.007813-20.605469-.085938-37.34375-16.871094-37.34375-37.496094zm-15 191.035156v-126.035156c0-6.894531 5.605469-12.5 12.5-12.5h2.5v138.535156zm52.5 11.464844c-8.160156 0-16.035156-2.648438-22.5-7.503906v-22.496094h45v22.496094c-6.46875 4.855468-14.339844 7.503906-22.5 7.503906zm0 0"/><path d="m45 67.5c0 4.140625-3.359375 7.5-7.5 7.5s-7.5-3.359375-7.5-7.5 3.359375-7.5 7.5-7.5 7.5 3.359375 7.5 7.5zm0 0"/><path d="m7.5 140h60c4.144531 0 7.5-3.359375 7.5-7.5v-95c0-4.144531-3.355469-7.5-7.5-7.5h-60c-4.144531 0-7.5 3.355469-7.5 7.5v95c0 4.140625 3.355469 7.5 7.5 7.5zm7.5-95h45v80h-45zm0 0"/></svg>