<svg id="Capa_1" enable-background="new 0 0 512 512" height="512" viewBox="0 0 512 512" width="512" xmlns="http://www.w3.org/2000/svg"><g><g><path d="m97.09 262.285 30.869 104.21c1.008 3.404 4.136 5.739 7.686 5.739h192.499c4.427 0 8.016-3.589 8.016-8.016v-112.226h-231.384c-5.358 0-9.208 5.155-7.686 10.293z" fill="#eceaec"/><circle cx="95.677" cy="476.444" fill="#5d5360" r="24.048"/><circle cx="344.177" cy="171.831" fill="#ff8086" r="160.323"/><circle cx="336.161" cy="476.444" fill="#5d5360" r="24.048"/><path d="m360.21 316.121c-88.544 0-160.323-71.779-160.323-160.323 0-40.189 14.892-76.829 39.324-104.967-33.854 29.395-55.356 72.644-55.356 120.999 0 88.543 71.779 160.323 160.323 160.323 48.355 0 91.604-21.503 120.999-55.357-28.138 24.432-64.778 39.325-104.967 39.325z" fill="#e5646e"/></g><g><path d="m360.209 356.718c-4.142 0-7.5 3.358-7.5 7.5v8.016c0 9.125-7.423 16.548-16.548 16.548h-206.495c-7.275 0-13.8-4.872-15.867-11.847l-41.923-141.492h87.931c4.142 0 7.5-3.358 7.5-7.5s-3.358-7.5-7.5-7.5h-92.376l-7.559-25.51c-3.94-13.299-16.378-22.586-30.248-22.586h-22.124c-4.142 0-7.5 3.358-7.5 7.5s3.358 7.5 7.5 7.5h22.125c7.275 0 13.799 4.872 15.866 11.848l53.927 182.002c2.745 9.262 9.617 16.568 18.219 20.156l-17.543 43.858c-1.444-.203-2.917-.315-4.416-.315-17.396 0-31.548 14.152-31.548 31.548s14.152 31.548 31.548 31.548c14.812 0 27.265-10.262 30.64-24.048h179.204c3.375 13.786 15.829 24.048 30.64 24.048 17.396 0 31.548-14.152 31.548-31.548s-14.152-31.548-31.548-31.548c-14.812 0-27.265 10.262-30.64 24.048h-179.205c-1.817-7.424-6.268-13.821-12.303-18.148l18.805-47.013h203.342c17.396 0 31.548-14.152 31.548-31.548v-8.016c0-4.143-3.357-7.501-7.5-7.501zm-264.532 136.274c-9.125 0-16.548-7.423-16.548-16.548s7.423-16.548 16.548-16.548 16.548 7.423 16.548 16.548-7.423 16.548-16.548 16.548zm240.484-33.097c9.125 0 16.548 7.423 16.548 16.548s-7.423 16.548-16.548 16.548-16.548-7.423-16.548-16.548 7.423-16.548 16.548-16.548z"/><path d="m471.682 62.706c-2.694-3.145-7.429-3.511-10.575-.816-3.146 2.694-3.511 7.429-.816 10.575 23.673 27.636 36.71 62.925 36.71 99.366 0 84.267-68.556 152.823-152.823 152.823s-152.822-68.556-152.822-152.823 68.555-152.823 152.821-152.823c33.375 0 65.079 10.563 91.685 30.546 3.311 2.486 8.013 1.819 10.501-1.493 2.487-3.312 1.819-8.013-1.493-10.501-29.224-21.95-64.043-33.552-100.693-33.552-92.538 0-167.822 75.285-167.822 167.822s75.285 167.823 167.822 167.823 167.823-75.285 167.823-167.822c0-40.018-14.319-78.772-40.318-109.125z"/><path d="m272.032 251.476c1.919 0 3.839-.732 5.303-2.197l144.291-144.29c2.929-2.929 2.929-7.678 0-10.606-2.929-2.929-7.678-2.929-10.606 0l-144.291 144.29c-2.929 2.929-2.929 7.678 0 10.606 1.464 1.464 3.384 2.197 5.303 2.197z"/><path d="m327.629 123.734c0-21.816-17.749-39.564-39.564-39.564s-39.565 17.748-39.565 39.564 17.749 39.564 39.564 39.564 39.565-17.748 39.565-39.564zm-64.129 0c0-13.545 11.02-24.564 24.564-24.564s24.564 11.02 24.564 24.564-11.02 24.564-24.564 24.564-24.564-11.019-24.564-24.564z"/><path d="m392.274 267.508c21.816 0 39.564-17.749 39.564-39.565s-17.749-39.564-39.564-39.564c-21.816 0-39.565 17.749-39.565 39.564 0 21.817 17.749 39.565 39.565 39.565zm0-64.129c13.545 0 24.564 11.02 24.564 24.564s-11.02 24.565-24.564 24.565-24.565-11.02-24.565-24.565 11.02-24.564 24.565-24.564z"/></g></g></svg>