<svg id="Capa_1" enable-background="new 0 0 511.996 511.996" height="512" viewBox="0 0 511.996 511.996" width="512" xmlns="http://www.w3.org/2000/svg"><g><g><path d="m140.557 185.186v-52.052h-9.896c-2.41 0-4.717-.422-6.875-1.164-10 4.496-17.68 15.893-17.68 27.331 0 16.358 16.161 29.777 34.498 27.764-.018-.627-.047-1.251-.047-1.879z" fill="#ffb1a0"/><path d="m297.525 130.37c-2.281 1.725-5.107 2.764-8.171 2.764-1.838 0-4.632-.197-6.364-.564v52.616c0 .634-.031 1.26-.048 1.889 18.32 1.948 34.5-11.468 34.5-27.87 0-12.434-8.097-25.095-19.917-28.835z" fill="#ffb1a0"/><path d="m140.557 182.328c-8.123-5.075-13.548-13.555-13.548-23.028 0-9.798 5.645-19.553 13.548-24.979v-1.188h-9.896c-2.41 0-4.717-.422-6.875-1.164-10 4.496-17.68 15.893-17.68 27.331 0 16.358 16.161 29.777 34.498 27.764-.017-.626-.046-1.251-.046-1.879v-2.857z" fill="#ffa68e"/><path d="m303.895 133.457c-1.966-1.313-4.097-2.368-6.369-3.087-2.281 1.725-5.107 2.764-8.171 2.764-1.838 0-4.632-.197-6.364-.564v52.616c0 .634-.031 1.26-.048 1.889 7.715.821 15.045-1.092 20.952-4.796z" fill="#ffa68e"/><path d="m190.285 488.25v-11.053c0-1.935 1.553-3.504 3.47-3.504l28.819-1c-8.668-2.582-14.904-10.692-14.904-19.927v-143.74l-37.058-36.532c-.527.743-1.175 1.338-1.871 1.81l-102.358 39.977c-16.69 6.869-39.039 28.481-39.039 60.552v38.181h59.477v91.498h119.567c-8.857-.001-16.103-7.318-16.103-16.262z" fill="#ff656f"/><path d="m62.655 362.89c0-27.049 16.604-47.69 26.255-57.406l-22.527 8.798c-16.69 6.869-39.039 28.481-39.039 60.552v38.181h35.311c0-20.088 0-38.546 0-50.125z" fill="#ff4756"/><path d="m257.301 276.219c-2.767-1.069-5.605-4.731-5.613-7.713l-.02-26.725c-25.374 16.604-57.48 14.36-79.851-.106v26.788c0 1.717-.485 3.017-1.205 4.032l37.058 36.532v-12.759c0-11.461 9.324-19.785 20.785-19.785h29.527c-.301-.117-.536-.208-.681-.264z" fill="#ffb1a0"/><path d="m171.817 241.674v26.788c0 1.717-.485 3.017-1.205 4.032l37.058 36.532v-12.759-43.013c-12.952-.777-25.455-4.855-35.853-11.58z" fill="#ffa68e"/><path d="m195.991 336.727 10.679-9.679v-20.543l-35.657-34.657c-.571 1.061-1.386 1.855-2.271 2.456l-35.498 13.864 48.559 48.559c3.901 3.902 10.286 3.902 14.188 0z" fill="#ff7f87"/><path d="m27.344 411.263h63.115v36.084h-63.115z" fill="#ff7f87"/><path d="m62.655 411.263h-35.311v36.084h35.311c0-11.934 0-24.316 0-36.084z" fill="#ff656f"/><path d="m90.459 444.929h-63.115v46.573c0 7.185 5.825 13.009 13.009 13.009h50.106z" fill="#ffb1a0"/><path d="m62.655 444.929h-35.311v46.573c0 7.185 5.825 13.009 13.009 13.009h22.301c.001-12.199.001-35.097.001-59.582z" fill="#ffa68e"/><path d="m263.393 105.173c0-1.392-1.863-1.871-2.519-.644-8.464 15.83-25.143 26.604-44.349 26.604h-36.588v54.977c0 30.151 18.842 58.191 49.18 68.353 31.412-7.397 54.872-35.64 54.872-69.277v-54.616c-11.726-2.489-20.596-12.956-20.596-25.397z" fill="#ffcebe"/><g><path d="m180.826 185.186v-54.052h-41.27v54.052c0 37.205 29.151 71.186 73.247 71.186 6.931 0 13.626-1.014 19.965-2.87-31.927-8.914-51.942-37.499-51.942-68.316z" fill="#ffb1a0"/></g><path d="m279.365 40.429c-6.802.523-13.042-3.754-14.352-10.449-2.205-11.275-7.787-22.464-29.593-22.464h-75.654c-27.766 0-50.275 22.509-50.275 50.274v55.176c0 11.691 9.477 21.168 21.168 21.168h85.865c19.205 0 35.885-10.774 44.349-26.604.656-1.227 2.519-.748 2.519.644 0 14.279 11.682 25.961 25.961 25.961 7.484 0 13.608-6.124 13.608-13.608 0-20.917 0-36.195 0-57.578.001-13.565-11.833-23.425-23.596-22.52z" fill="#ffe181"/><g><path d="m156.308 114.391v-57.041c0-23.573 15.699-43.469 37.208-49.834h-33.749c-27.766 0-50.275 22.509-50.275 50.274v55.176c0 11.691 9.477 21.168 21.168 21.168h38.082c-7.355-3.527-12.434-11.041-12.434-19.743z" fill="#fec458"/></g><path d="m446.482 275.483h-220.027c-11.461 0-20.785 9.324-20.785 20.785v156.499c0 9.235 6.236 18.345 14.904 20.927h231.788c8.668-2.582 14.904-11.692 14.904-20.927 0-6.873 0-149.64 0-156.499.001-11.461-9.323-20.785-20.784-20.785z" fill="#dfebfa"/><path d="m255.49 452.767v-156.499c0-11.461 9.324-20.785 20.785-20.785h-49.82c-11.461 0-20.785 9.324-20.785 20.785v156.499c0 9.235 6.236 18.345 14.904 20.927h49.82c-8.668-2.582-14.904-11.692-14.904-20.927z" fill="#b1dbfc"/><path d="m337.454 386.307c-3.492 1.75-7.605 1.75-11.098 0l-48.834-24.468v48.741c0 4.119 2.198 7.971 5.823 9.926 14.455 7.794 30.986 12.23 48.56 12.23s34.105-4.436 48.56-12.23c3.625-1.955 5.823-5.807 5.823-9.926v-48.74z" fill="#6e60b8"/><g><path d="m302.002 422.329v-48.224l-24.479-12.265v48.741c0 4.119 2.198 7.971 5.823 9.926 6.523 3.517 13.473 6.343 20.747 8.394-1.331-1.892-2.091-4.181-2.091-6.572z" fill="#6353b2"/></g><path d="m481.182 472.693h-289.427c-1.917 0-3.47 1.569-3.47 3.504v12.053c0 8.943 7.247 16.261 16.104 16.261h264.16c8.857 0 16.103-7.318 16.103-16.261v-12.053c0-1.935-1.554-3.504-3.47-3.504z" fill="#b1dbfc"/><path d="m238.105 488.25v-12.053c0-1.935 1.554-3.504 3.47-3.504h-49.82c-1.917 0-3.47 1.569-3.47 3.504v12.053c0 8.943 7.247 16.261 16.104 16.261h49.82c-8.858 0-16.104-7.317-16.104-16.261z" fill="#8bcaff"/><path d="m407.744 344.293-70.289-35.218c-3.492-1.75-7.605-1.75-11.098 0l-52.432 26.27c.467 1.41 1.443 2.677 2.974 3.444l76.823 38.491c1.583.793 3.281 1.241 5 1.37l49.022-24.562c4.032-2.019 4.032-7.774 0-9.795z" fill="#9790cc"/><path d="m353.075 376.705-75.772-37.965c-1.578-.791-2.575-2.114-3.007-3.58l-18.229 9.133c-4.032 2.021-4.032 7.776 0 9.797l70.289 35.218c3.492 1.75 7.605 1.75 11.098 0l22.423-11.235c-2.32.142-4.668-.299-6.802-1.368z" fill="#8479c2"/><path d="m425.656 426.841-3.205-12.227c-1.369-5.223-6.181-8.629-11.581-8.578-.034 0-.068 0-.102 0s-.068 0-.102 0c-5.4-.051-10.212 3.354-11.581 8.578l-3.205 12.227c-1.319 5.031 2.477 9.95 7.678 9.95h14.42c5.201 0 8.997-4.919 7.678-9.95z" fill="#ffe181"/></g><g><path d="m40.353 511.996h428.195c13.015 0 23.604-10.659 23.604-23.761v-12.053c0-6.067-4.921-11.004-10.97-11.004h-9.36c1.882-3.799 2.945-8.029 2.945-12.427v-156.499c0-15.596-12.688-28.285-28.284-28.285h-97.077c-4.143 0-7.5 3.358-7.5 7.5s3.357 7.5 7.5 7.5h97.077c7.325 0 13.284 5.959 13.284 13.285v156.499c0 5.502-3.5 10.48-8.623 12.427h-229.337c-5.29-2.026-8.636-7.106-8.636-12.427 0-15.342 0-141.27 0-156.499 0-7.325 5.96-13.285 13.285-13.285h87.95c4.143 0 7.5-3.358 7.5-7.5s-3.357-7.5-7.5-7.5h-55.218l-.016-19.279c17.179-12.574 29.077-31.932 31.736-54.099 19.515-1.711 34.036-17.268 34.036-35.4 0-12.417-6.299-23.904-16.102-30.579 1.042-2.496 1.622-5.231 1.622-8.101v-14.699c0-4.142-3.357-7.5-7.5-7.5s-7.5 3.358-7.5 7.5v14.701c0 3.26-2.599 6.156-6.375 6.094-10.322-.151-18.194-8.706-18.194-18.447 0-4.063-2.754-7.591-6.697-8.58-4.021-1.005-8.07.913-9.937 4.4-7.466 13.965-21.925 22.641-37.734 22.641h-85.865c-7.192 0-13.668-5.844-13.668-13.668v-55.177c0-23.586 19.188-42.774 42.774-42.774h75.654c17.569 0 20.542 7.759 22.232 16.404 1.999 10.223 11.572 17.311 22.287 16.487 7.525-.578 15.521 5.941 15.521 15.042v7.877c0 4.142 3.357 7.5 7.5 7.5s7.5-3.358 7.5-7.5v-7.877c0-18.073-15.671-31.228-31.672-29.998-3.174.252-5.868-1.611-6.416-4.41-3.753-19.194-15.84-28.525-36.953-28.525h-75.654c-31.856 0-57.774 25.917-57.774 57.774v55.176c0 7.854 3.177 14.979 8.311 20.162-7.256 6.847-11.698 16.362-11.698 26.173 0 18.063 14.473 33.647 34.031 35.313 2.587 21.77 14.057 41.242 31.681 54.002v19.365c-20.046 7.829-80.417 31.408-100.662 39.314-.042.016-.084.033-.126.05-21.04 8.659-43.685 33.472-43.685 67.487v116.669c-.001 11.31 9.199 20.511 20.508 20.511zm251.138-370.485c2.347-.247 4.709-.923 6.654-1.824 6.983 3.552 11.798 11.295 11.798 19.503 0 10.254-8.151 18.514-18.452 20.221zm-159.434 37.918c-10.305-1.668-18.452-9.918-18.452-20.144 0-7.176 4.422-14.39 11.004-18.316 3.241.699 5.482.649 7.448.649zm345.095 300.749v8.057c0 4.831-3.859 8.761-8.604 8.761h-264.16c-4.744 0-8.604-3.93-8.604-8.761v-8.057zm-250.696-212.211c-13.184 0-24.288 9.067-27.409 21.292l-19.789-19.789c.079-1.246.059 1.038.059-12.333 10.814 4.671 22.143 6.719 33.487 6.719 11.149 0 21.756-2.345 31.375-6.545l.009 10.656zm-79.399-82.797v-43.552h69.469c16.579 0 31.984-7.077 42.718-18.875 3.521 7.24 9.586 13.011 17.016 16.185.078.033.153.071.231.104v46.139c0 21.619-11 41.567-28.861 53.281-42.963 27.209-100.573-1.966-100.573-53.282zm23.247 96.561 27.866 27.865v14.33l-7.483 7.483c-.972.973-2.608.973-3.58 0l-40.445-40.444zm-135.46 93.086c0-28.912 20.51-47.873 34.334-53.592l62.228-24.303 45.093 45.093c5.873 5.873 14.888 6.704 21.671 2.465v108.271c0 4.137.989 8.521 2.923 12.427h-9.338c-6.049 0-10.971 4.937-10.971 11.004v12.053c0 3.108.623 6.132 1.662 8.761h-84.487c0-12.675 0-92.766 0-111.665 0-4.142-3.357-7.5-7.5-7.5s-7.5 3.358-7.5 7.5v18.416h-48.115zm0 43.93h48.115v18.667h-48.115zm0 33.667h48.115v44.583h-42.606c-3.037 0-5.509-2.472-5.509-5.509z"/><path d="m252.708 337.573c-4.419 2.214-7.164 6.66-7.164 11.603s2.745 9.389 7.165 11.604l17.314 8.675v41.11c0 6.947 3.741 13.281 9.764 16.528 32.483 17.514 71.824 17.477 104.238 0 1.959-1.057 3.672-2.444 5.099-4.069l-.498 1.9c-2.565 9.784 4.808 19.351 14.933 19.351h14.42c10.113 0 17.501-9.557 14.934-19.351 0 0 0 0 0-.001l-3.205-12.226c-1.557-5.939-5.881-10.574-11.438-12.773v-50.748c0-4.943-2.745-9.389-7.165-11.604l-70.289-35.218c-5.578-2.795-12.238-2.794-17.816 0zm158.06 75.948c2.44-.014 3.995 1.327 4.429 2.979l3.205 12.227c.073.282-.132.548-.424.548h-14.42c-.289 0-.498-.264-.423-.548l3.205-12.228c.436-1.661 1.949-2.995 4.428-2.978zm-16.979-44.066 9.479-4.75v35.21c-3.979 1.576-7.328 4.409-9.479 8.084zm-15 41.11c0 1.403-.739 2.708-1.883 3.325-28.035 15.117-62.023 15.086-90 0-1.144-.617-1.883-1.922-1.883-3.325v-33.595l37.975 19.027c5.461 2.738 12.126 2.851 17.816 0l37.975-19.027zm-44.694-94.799 51.712 25.91h-53.901c-4.143 0-7.5 3.358-7.5 7.5s3.357 7.5 7.5 7.5h53.903c-5.239 2.625-45.896 22.996-51.714 25.911-1.371.687-3.008.687-4.379 0l-66.682-33.411 66.682-33.41c1.371-.687 3.008-.687 4.379 0z"/></g></g></svg>