<svg xmlns="http://www.w3.org/2000/svg" id="Layer_1" enable-background="new 0 0 48 48" viewBox="0 0 48 48"><path id="XMLID_1263_" fill="#a15b4c" d="M30,14H8c-2.2,0-4,1.8-4,4v18c0,2.2,1.8,4,4,4h28c2.2,0,4-1.8,4-4V21.4"/><path id="XMLID_1260_" fill="#fec367" d="M39,34h-8.1c-2.2,0-3.9-1.8-3.9-4v0c0-2.2,1.7-4,3.9-4H39"/><circle id="XMLID_956_" cx="37" cy="15" r="7" fill="#4b7da3"/><path d="M45,15c0-4.4-3.6-8-8-8c-3.7,0-6.8,2.6-7.7,6H8c-2.8,0-5,2.2-5,5v18c0,2.8,2.2,5,5,5h28c2.8,0,5-2.2,5-5V21.9    C43.4,20.5,45,18,45,15z M39,33h-8.1c-1.6,0-2.9-1.3-2.9-3s1.3-3,2.9-3H39V33z M39,25h-8.1c-2.7,0-4.9,2.2-4.9,5s2.2,5,4.9,5H39v1    c0,1.7-1.3,3-3,3H8c-1.7,0-3-1.3-3-3V18c0-1.7,1.3-3,3-3h21c0,4.4,3.6,8,8,8c0.7,0,1.4-0.1,2-0.3V25z M37,21c-3.3,0-6-2.7-6-6    s2.7-6,6-6s6,2.7,6,6S40.3,21,37,21z"/><path d="M40,14H34c-0.6,0-1,0.4-1,1s0.4,1,1,1H40c0.6,0,1-0.4,1-1S40.5,14,40,14z"/><ellipse cx="31" cy="30" rx="1" ry="1"/></svg>