<?xml version="1.0" encoding="iso-8859-1"?>
<!-- Generator: Adobe Illustrator 19.0.0, SVG Export Plug-In . SVG Version: 6.00 Build 0)  -->
<svg version="1.1" id="Capa_1" xmlns="http://www.w3.org/2000/svg" xmlns:xlink="http://www.w3.org/1999/xlink" x="0px" y="0px"
	 viewBox="0 0 512 512" style="enable-background:new 0 0 512 512;" xml:space="preserve">
<path style="fill:#455A64;" d="M394.667,73.532H117.333C52.561,73.603,0.071,126.093,0,190.865v21.333
	c0,5.891,4.776,10.667,10.667,10.667h490.667c5.891,0,10.667-4.776,10.667-10.667v-21.333
	C511.929,126.093,459.439,73.603,394.667,73.532z"/>
<path style="fill:#4CAF50;" d="M436.203,143.42L391.04,53.095C372.599,16.21,327.75,1.259,290.865,19.699
	c-0.669,0.334-1.332,0.679-1.991,1.033L69.611,138.791c-5.184,2.798-7.118,9.269-4.32,14.453c1.86,3.447,5.46,5.596,9.376,5.6h352
	c5.891,0,10.667-4.776,10.666-10.667c0-1.659-0.387-3.295-1.13-4.778V143.42z"/>
<path style="fill:#607D8B;" d="M74.667,137.532h362.667c41.237,0,74.667,33.429,74.667,74.667v213.333
	c0,41.237-33.429,74.667-74.667,74.667H74.667C33.429,500.199,0,466.769,0,425.532V212.199C0,170.961,33.429,137.532,74.667,137.532
	z"/>
<path style="fill:#455A64;" d="M501.333,244.199H416c-41.237,0.022-74.649,33.468-74.628,74.706
	c0.022,41.207,33.421,74.606,74.628,74.628h85.333c5.891,0,10.667-4.776,10.667-10.667v-128
	C512,248.974,507.224,244.199,501.333,244.199z"/>
<circle style="fill:#90A4AE;" cx="416" cy="318.865" r="32"/>
<path d="M437.333,500.177H74.667C33.429,500.177,0,466.748,0,425.511V212.177c0-41.237,33.429-74.667,74.667-74.667h362.667
	c41.237,0,74.667,33.429,74.667,74.667v213.333C512,466.748,478.571,500.177,437.333,500.177z M74.667,158.844
	c-29.455,0-53.333,23.878-53.333,53.333v0v213.333c0,29.455,23.878,53.333,53.333,53.333h362.667
	c29.455,0,53.333-23.878,53.333-53.333V212.177c0-29.455-23.878-53.333-53.333-53.333H74.667z"/>
<path d="M416,350.844c-17.673,0-32-14.327-32-32c0-17.673,14.327-32,32-32s32,14.327,32,32C448,336.517,433.673,350.844,416,350.844
	L416,350.844z M416,308.177c-5.891,0-10.667,4.776-10.667,10.667c0,5.891,4.776,10.667,10.667,10.667
	c5.891,0,10.667-4.776,10.667-10.667C426.667,312.953,421.891,308.177,416,308.177L416,308.177z"/>
<path d="M501.333,393.511H416c-41.237,0-74.667-33.429-74.667-74.667s33.429-74.667,74.667-74.667h85.333
	c5.891,0,10.667,4.776,10.667,10.667v128C512,388.735,507.224,393.511,501.333,393.511z M416,265.511
	c-29.455,0-53.333,23.878-53.333,53.333c0,29.455,23.878,53.333,53.333,53.333h74.667V265.511H416z"/>
<path d="M426.667,158.844c-4.037,0-7.728-2.279-9.536-5.888l-45.163-90.325c-13.185-26.339-45.226-37.003-71.565-23.818
	c-0.476,0.238-0.948,0.483-1.416,0.736L79.723,157.585c-5.19,2.798-11.666,0.859-14.464-4.331
	c-2.798-5.19-0.859-11.666,4.331-14.464L288.853,20.753C325.16,1.2,370.444,14.78,389.997,51.087
	c0.358,0.664,0.705,1.334,1.043,2.008l45.163,90.325c2.627,5.273,0.483,11.677-4.79,14.304
	C429.939,158.459,428.314,158.842,426.667,158.844z"/>
<path d="M10.667,222.844C4.776,222.844,0,218.068,0,212.177v-21.333C0.082,126.077,52.566,73.593,117.333,73.511H192
	c5.891,0,10.667,4.776,10.667,10.667c0,5.891-4.776,10.667-10.667,10.667h-74.667c-53.019,0-96,42.981-96,96v21.333
	C21.333,218.068,16.558,222.844,10.667,222.844z"/>
<path d="M501.333,222.844c-5.891,0-10.667-4.776-10.667-10.667v-21.333c0-53.019-42.981-96-96-96
	c-5.891,0-10.667-4.776-10.667-10.667c0-5.891,4.776-10.667,10.667-10.667C459.434,73.593,511.918,126.077,512,190.844v21.333
	C512,218.068,507.224,222.844,501.333,222.844z"/>
<g>
</g>
<g>
</g>
<g>
</g>
<g>
</g>
<g>
</g>
<g>
</g>
<g>
</g>
<g>
</g>
<g>
</g>
<g>
</g>
<g>
</g>
<g>
</g>
<g>
</g>
<g>
</g>
<g>
</g>
</svg>
