<svg id="Layer_3" enable-background="new 0 0 64 64" height="512" viewBox="0 0 64 64" width="512" xmlns="http://www.w3.org/2000/svg"><g><path d="m57.633 44.227-2.127 14.36c-.291 1.961-1.974 3.413-3.957 3.413h-39.098c-1.983 0-3.666-1.452-3.957-3.414l-2.127-14.36h-.001c.529-.149 1.078-.226 1.634-.226 1.298 0 2.561.421 3.6 1.2l.8.6c1.039.779 2.302 1.2 3.6 1.2 1.298 0 2.561-.421 3.6-1.2l.8-.6c1.039-.779 2.302-1.2 3.6-1.2 1.298 0 2.561.421 3.6 1.2l.8.6c1.039.779 2.302 1.2 3.6 1.2 1.298 0 2.561-.421 3.6-1.2l.8-.6c1.039-.779 2.302-1.2 3.6-1.2 1.298 0 2.561.421 3.6 1.2l.8.6c1.039.779 2.302 1.2 3.6 1.2 1.298 0 2.561-.421 3.6-1.2l.8-.6c1.039-.779 2.302-1.2 3.6-1.2.556 0 1.106.077 1.633.227z" fill="#d5cec2"/><path d="m59 35-1.367 9.227h.001c-.528-.15-1.078-.227-1.634-.227-1.298 0-2.561.421-3.6 1.2l-.8.6c-1.039.779-2.302 1.2-3.6 1.2-1.298 0-2.561-.421-3.6-1.2l-.8-.6c-1.039-.779-2.302-1.2-3.6-1.2-1.298 0-2.561.421-3.6 1.2l-.8.6c-1.039.779-2.302 1.2-3.6 1.2-1.298 0-2.561-.421-3.6-1.2l-.8-.6c-1.039-.779-2.302-1.2-3.6-1.2-1.298 0-2.561.421-3.6 1.2l-.8.6c-1.039.779-2.302 1.2-3.6 1.2-1.298 0-2.561-.421-3.6-1.2l-.8-.6c-1.039-.779-2.302-1.2-3.6-1.2-.556 0-1.105.077-1.634.227h.001l-1.367-9.227z" fill="#ebf7fe"/><path d="m46 29v-15c0-1.105.895-2 2-2h9v-10h-18.078c-.494 0-.912.362-.982.851-.413 2.911-2.915 5.149-5.94 5.149s-5.527-2.238-5.94-5.149c-.07-.489-.488-.851-.982-.851h-18.078v10h9c1.105 0 2 .895 2 2v15" fill="#f7d881"/><path d="m7 2h4v10h-4z" fill="#c16b3f"/><path d="m53 2h4v10h-4z" fill="#c16b3f"/><path d="m59 35h-54c-1.657 0-3-1.343-3-3 0-1.657 1.343-3 3-3h54c1.657 0 3 1.343 3 3 0 1.657-1.343 3-3 3z" fill="#c7e2fc"/><path d="m18 35v6h2.586c.906 0 1.774-.36 2.414-1 .64-.64 1.509-1 2.414-1h.172c.906 0 1.774.36 2.414 1 .64.64 1.509 1 2.414 1h2.172c.906 0 1.774-.36 2.414-1 .64-.64 1.509-1 2.414-1h.172c.906 0 1.774.36 2.414 1 .64.64 1.509 1 2.414 1h3.586v-6" fill="#f7d881"/><path d="m12 16-2.4 3.2c-.389.519-.6 1.151-.6 1.8 0 1.657 1.343 3 3 3 1.657 0 3-1.343 3-3 0-.649-.211-1.281-.6-1.8z" fill="#c7e2fc"/><path d="m52 16-2.4 3.2c-.389.519-.6 1.151-.6 1.8 0 1.657 1.343 3 3 3 1.657 0 3-1.343 3-3 0-.649-.211-1.281-.6-1.8z" fill="#c7e2fc"/><g><path d="m46.585 59.999h-.172c-1.179 0-2.288-.458-3.121-1.292-.456-.457-1.062-.707-1.707-.707h-1.172c-.645 0-1.25.251-1.707.707l-1.001 1-1.414-1.415 1-1c.835-.834 1.944-1.292 3.123-1.292h1.172c1.179 0 2.287.459 3.121 1.292.456.456 1.062.708 1.707.708h.172c.645 0 1.251-.251 1.707-.707l1-1 1.415 1.414-1 1c-.835.834-1.943 1.292-3.123 1.292z" fill="#e7e4dd"/></g><g><path d="m24.585 52.999h-.172c-1.179 0-2.288-.458-3.121-1.292-.456-.457-1.062-.707-1.707-.707h-1.172c-.645 0-1.25.251-1.707.707l-1 1-1.415-1.415 1-1c.835-.834 1.944-1.292 3.123-1.292h1.172c1.179 0 2.287.459 3.121 1.292.456.456 1.062.708 1.707.708h.172c.645 0 1.251-.251 1.707-.707l1-1 1.415 1.415-1 1c-.835.833-1.943 1.291-3.123 1.291z" fill="#e7e4dd"/></g><g><path d="m49 49h2v2h-2z" fill="#e7e4dd"/></g><g><path d="m28 57h2v2h-2z" fill="#e7e4dd"/></g><g><path d="m34 53h2v2h-2z" fill="#e7e4dd"/></g><g><path d="m17 58h2v2h-2z" fill="#e7e4dd"/></g><path d="m39 20c-1.657 0-3-1.343-3-3v-5h6v5c0 1.657-1.343 3-3 3z" fill="#c16b3f"/><g fill="#e39854"><path d="m40.808 12h-4.808v5c0 .547.157 1.052.413 1.494 2.574-1.034 4.395-3.55 4.395-6.494z"/><path d="m7 2v8.868c1.786-.508 3.245-1.784 4-3.451v-5.17c-.038-.084-.078-.166-.119-.247z"/><path d="m53 2v8.868c1.786-.508 3.245-1.784 4-3.451v-5.17c-.038-.084-.078-.166-.119-.247z"/></g><g><path d="m63 32c0-2.206-1.794-4-4-4h-12.001v-14c0-.552.449-1 1-1h9c.553 0 1-.448 1-1l.001-10c0-.266-.105-.52-.293-.708s-.442-.292-.707-.292h-18.079c-.986 0-1.833.735-1.972 1.71-.347 2.445-2.475 4.29-4.949 4.29-2.475 0-4.603-1.844-4.951-4.289-.138-.976-.986-1.711-1.971-1.711h-18.078c-.553 0-1 .447-1 1v10c0 .552.447 1 1 1h9c.551 0 1 .448 1 1v14h-12c-2.206-.001-4 1.794-4 4 0 1.903 1.338 3.493 3.121 3.895l3.384 22.837c.36 2.433 2.486 4.267 4.945 4.267h39.098.001c2.458 0 4.584-1.834 4.944-4.267l3.384-22.837c1.784-.402 3.123-1.992 3.123-3.895zm-7-21h-2v-8h2zm-48-8.001 2-.001v8.002h-2zm8 8.001h-4v-8.003l13.07-.006c.486 3.426 3.465 6.009 6.93 6.009 3.464 0 6.443-2.583 6.921-6h13.079v8h-4c-1.654 0-3 1.346-3 3v14h-26v-14c0-1.655-1.347-3-3-3zm3 25h26v4h-2.585c-.645 0-1.251-.251-1.707-.707-.835-.835-1.944-1.293-3.123-1.293h-.172c-1.179 0-2.288.459-3.122 1.293-.456.456-1.062.707-1.707.707h-2.172c-.645 0-1.251-.251-1.707-.707-.832-.835-1.941-1.293-3.12-1.293h-.172c-1.179 0-2.288.459-3.122 1.293-.455.456-1.061.707-1.706.707h-1.585zm-1.001 5.999 2.586.001c1.179 0 2.288-.459 3.122-1.293.456-.456 1.062-.708 1.707-.708h.172c.645 0 1.251.251 1.707.708.833.833 1.942 1.292 3.121 1.292h2.172c1.179 0 2.288-.459 3.122-1.292.456-.456 1.062-.708 1.707-.708h.172c.645 0 1.251.251 1.707.708.833.833 1.942 1.292 3.121 1.292h3.585c.553 0 1-.447 1-1v-5h10.842l-1.046 7.06c-1.755-.192-3.577.277-4.995 1.339l-.801.602c-1.719 1.289-4.279 1.291-6 0l-.8-.6c-2.407-1.805-5.99-1.805-8.399 0l-.801.6c-1.72 1.289-4.28 1.289-6 0l-.8-.6c-2.408-1.805-5.991-1.805-8.399 0l-.801.6c-1.72 1.289-4.28 1.289-6 0l-.8-.6c-1.417-1.063-3.238-1.531-4.995-1.339l-1.047-7.061h10.842v5c0 .551.447.999.999.999zm36.517 16.44c-.216 1.46-1.492 2.561-2.967 2.561h-39.099c-1.475 0-2.751-1.101-2.967-2.56l-1.986-13.403c1.235-.119 2.507.216 3.503.963l.8.6c2.408 1.805 5.993 1.806 8.399 0l.801-.6c1.72-1.289 4.279-1.29 6 0l.8.6c2.407 1.805 5.992 1.806 8.399 0l.801-.6c1.72-1.289 4.279-1.29 6 0l.8.6c1.204.902 2.695 1.399 4.2 1.399 1.504 0 2.996-.497 4.199-1.399l.801-.6c.995-.745 2.268-1.081 3.502-.963zm4.484-24.439h-54.001c-1.102 0-1.999-.898-1.999-2 0-1.103.897-2 1.999-2h54.001c1.102 0 2 .897 2 2.001 0 1.101-.898 1.999-2 1.999z"/><path d="m15.999 20.999c0-.859-.284-1.711-.799-2.399l-2.4-3.2c-.377-.502-1.221-.503-1.6 0l-2.4 3.201c-.517.688-.8 1.54-.8 2.399 0 2.205 1.794 3.999 4 3.999 2.205 0 3.999-1.794 3.999-4zm-5.999 0c0-.429.142-.855.4-1.2l1.6-2.133 1.6 2.133c.258.344.4.771.4 1.201 0 1.102-.897 1.999-2 1.999-1.104 0-2-.897-2-2z"/><path d="m52 15c0-.001 0 0 0 0-.315 0-.611.148-.8.4l-2.401 3.2c-.515.688-.799 1.54-.799 2.4 0 2.205 1.794 3.999 4 3.999s4-1.794 4-4c0-.858-.284-1.71-.8-2.399l-2.4-3.2c-.189-.253-.486-.4-.8-.4zm2 6c0 1.102-.897 1.999-2 1.999-1.102 0-1.999-.897-1.999-2 0-.43.142-.856.399-1.2l1.6-2.133 1.6 2.133c.257.345.4.771.4 1.201z"/><path d="m48.292 57.292c-.456.457-1.062.708-1.707.708h-.172c-.645 0-1.251-.251-1.707-.708-.833-.834-1.942-1.292-3.121-1.292h-1.172c-1.179 0-2.287.459-3.121 1.292l-1 1 1.414 1.415 1.001-1c.456-.457 1.062-.707 1.707-.707h1.172c.645 0 1.251.251 1.707.708.833.833 1.942 1.292 3.121 1.292h.172c1.179 0 2.288-.458 3.121-1.292l1-1-1.415-1.414z"/><path d="m27.292 49.292-1 1c-.456.457-1.062.708-1.707.708h-.172c-.645 0-1.251-.251-1.707-.708-.833-.834-1.942-1.292-3.121-1.292h-1.172c-1.179 0-2.287.459-3.121 1.292l-1 1 1.415 1.415 1-1c.456-.457 1.062-.707 1.707-.707h1.172c.645 0 1.251.251 1.707.708.833.833 1.942 1.292 3.121 1.292h.172c1.179 0 2.288-.458 3.121-1.292l1-1z"/><path d="m49 49h2v2h-2z"/><path d="m28 57h2v2h-2z"/><path d="m34 53h2v2h-2z"/><path d="m17 58h2v2h-2z"/><path d="m39 20.999c2.205 0 3.999-1.794 3.999-3.999v-5c0-.553-.447-1-1-1h-6c-.553 0-1 .447-1 1v5c.001 2.205 1.795 3.999 4.001 3.999zm-2-7.999h4v4c0 1.102-.897 1.999-1.999 1.999-1.103 0-2-.897-2-1.999v-4z"/></g></g></svg>