<svg id="Layer_1" enable-background="new 0 0 256 256" height="512" viewBox="0 0 256 256" width="512" xmlns="http://www.w3.org/2000/svg"><g><g><path d="m58.493 150.685h-39.765c-3.064 0-5.549-2.484-5.549-5.549 0-3.064 2.484-5.549 5.549-5.549h39.764c3.064 0 5.549 2.484 5.549 5.549 0 3.065-2.484 5.549-5.548 5.549z" fill="#f9cfcf"/></g><g><path d="m58.493 128.312h-30.517c-3.064 0-5.549-2.484-5.549-5.549 0-3.064 2.484-5.549 5.549-5.549h30.517c3.064 0 5.549 2.484 5.549 5.549-.001 3.065-2.485 5.549-5.549 5.549z" fill="#f9cfcf"/></g><g><path d="m62.56 173.058h-49.011c-3.064 0-5.549-2.484-5.549-5.549 0-3.064 2.484-5.549 5.549-5.549h49.011c3.064 0 5.549 2.484 5.549 5.549 0 3.064-2.484 5.549-5.549 5.549z" fill="#f9cfcf"/></g><g><path d="m134.518 202.377h79.732v18h-79.732z" fill="#f9a7a7"/></g><g><path d="m214.25 222.377h-79.732c-1.104 0-2-.896-2-2v-18c0-1.104.896-2 2-2h79.732c1.104 0 2 .896 2 2v18c0 1.105-.896 2-2 2zm-77.732-4h75.732v-14h-75.732z" fill="#3762cc"/></g><g><path d="m199.857 202.377-15.857-100.25h22.25l4.25 31.25 5.476 5.715c11.512 12.013 19.958 26.625 24.62 42.597l6.039 20.688z" fill="#f9a7a7"/></g><g><path d="m184 102.127v-10.5c0-1.657 1.343-3 3-3h23c1.657 0 3 1.343 3 3v7.5c0 1.657-1.343 3-3 3z" fill="#f9a7a7"/></g><g><path d="m246.635 204.377h-46.777c-.984 0-1.821-.716-1.976-1.688l-15.857-100.25c-.091-.578.075-1.167.455-1.611s.936-.701 1.521-.701h22.25c1 0 1.847.739 1.981 1.73l4.163 30.605 5.026 5.245c11.686 12.193 20.363 27.208 25.096 43.42l6.038 20.688c.177.604.058 1.257-.319 1.76-.379.506-.971.802-1.601.802zm-45.069-4h42.401l-5.291-18.127c-4.553-15.598-12.901-30.043-24.145-41.774l-5.477-5.715c-.292-.305-.48-.695-.537-1.114l-4.015-29.52h-18.163z" fill="#3762cc"/></g><g><path d="m210 104.127h-26c-1.104 0-2-.896-2-2v-10.5c0-2.757 2.243-5 5-5h23c2.757 0 5 2.243 5 5v7.5c0 2.757-2.243 5-5 5zm-24-4h24c.552 0 1-.449 1-1v-7.5c0-.551-.448-1-1-1h-23c-.552 0-1 .449-1 1z" fill="#3762cc"/></g><g><path d="m228.753 130.877h-4.535v-24h4.535c1.955 0 3.539 1.585 3.539 3.539v16.922c0 1.955-1.585 3.539-3.539 3.539z" fill="#ffea92"/></g><g><path d="m224.218 130.877h-3.926c-6.627 0-12-5.373-12-12 0-6.627 5.373-12 12-12h3.926z" fill="#e0ebfc"/></g><g><path d="m143.5 125.611h-38.779v-39.491c0-10.709 8.681-19.389 19.389-19.389 10.709 0 19.389 8.681 19.389 19.389v39.491z" fill="#4671c6"/></g><g><path d="m143.5 127.611h-38.779c-1.104 0-2-.896-2-2v-39.491c0-11.794 9.596-21.39 21.39-21.39s21.39 9.595 21.39 21.39v39.492c-.001 1.104-.897 1.999-2.001 1.999zm-36.779-4h34.779v-37.491c0-9.589-7.801-17.39-17.39-17.39s-17.39 7.801-17.39 17.39v37.491z" fill="#3762cc"/></g><g><path d="m149.875 186.145-2.422 6.489c-.492 1.318-.744 2.714-.744 4.122v1.485c0 2.285 1.852 4.137 4.137 4.137h27.433c3.091 0 5.597-2.506 5.597-5.597 0-2.258-1.357-4.295-3.44-5.165l-13.101-5.471z" fill="#e0ebfc"/></g><g><path d="m77.75 220.377h60.75c2.761 0 5-2.239 5-5v-41.5c0-2.761-2.239-5-5-5h-50.044c-4.989 0-9.356 3.349-10.649 8.167-3.357 12.501-5.057 25.389-5.057 38.333 0 2.762 2.239 5 5 5z" fill="#f9a7a7"/></g><g><path d="m139.5 168.877h-55.25c-4.418 0-8-3.582-8-8v-7.5c0-2.209 1.791-4 4-4h59.25c2.209 0 4 1.791 4 4v11.5c0 2.21-1.791 4-4 4z" fill="#4671c6"/></g><g><path d="m243 220.377h-57.5c-2.761 0-5-2.239-5-5v-3.5c0-18.64 15.11-33.75 33.75-33.75 18.64 0 33.75 15.11 33.75 33.75v3.5c0 2.762-2.239 5-5 5z" fill="#f9a7a7"/></g><g><path d="m40.991 149.377h57.518c2.342 0 4.241-1.899 4.241-4.241 0-2.342-1.899-4.241-4.241-4.241h-57.518c-2.342 0-4.241 1.899-4.241 4.241 0 2.343 1.899 4.241 4.241 4.241z" fill="#e0ebfc"/></g><g><path d="m92.909 140.895h-46.318c-2.209 0-4-1.791-4-4v-40.315c0-2.209 1.791-4 4-4h46.319c2.209 0 4 1.791 4 4v40.315c-.001 2.209-1.791 4-4.001 4z" fill="#6bdddd"/></g><g><path d="m76.194 111.088-1.745-1.544c-.374-.331-.936-.331-1.309 0l-2.734 2.418c-.374.331-.936.331-1.309 0l-2.734-2.418c-.374-.331-.935-.331-1.309 0l-1.748 1.545c-.638.564-1.643.111-1.643-.74v-17.769h16.175v17.768c-.001.851-1.006 1.304-1.644.74z" fill="#e0ebfc"/></g><g><path d="m59.32 135.194h-9.97c-.364 0-.659-.295-.659-.659v-4.864c0-.364.295-.659.659-.659h9.97c.364 0 .659.295.659.659v4.864c-.001.364-.296.659-.659.659z" fill="#e0ebfc"/></g><g><path d="m90.15 135.194h-6.153c-.364 0-.659-.295-.659-.659v-4.864c0-.364.295-.659.659-.659h6.153c.364 0 .659.295.659.659v4.864c0 .364-.295.659-.659.659z" fill="#e0ebfc"/></g><g><path d="m92.909 142.895h-46.318c-3.309 0-6-2.691-6-6v-40.315c0-3.309 2.691-6 6-6h46.318c3.309 0 6 2.691 6 6v40.315c0 3.309-2.691 6-6 6zm-46.318-48.315c-1.103 0-2 .897-2 2v40.315c0 1.103.897 2 2 2h46.318c1.103 0 2-.897 2-2v-40.315c0-1.103-.897-2-2-2z" fill="#3762cc"/></g><g><path d="m169.008 183.863-6.87-48.213c-.821-5.76-5.753-10.039-11.57-10.039h-45.847v13.766c0 5.523 4.477 10 10 10h24.819c1.989 0 3.667 1.48 3.915 3.453l3.967 31.564c.126 1 .976 1.751 1.984 1.751h17.622c1.217 0 2.152-1.078 1.98-2.282z" fill="#a4c9ff"/></g><g><path d="m201.375 90.728h-17.375-45v13.485h45v2.015c0 2.761 2.239 5 5 5h12.375c2.761 0 5-2.239 5-5v-10.5c0-2.761-2.239-5-5-5z" fill="#f9cfcf"/></g><g><path d="m196.107 106.603c-3.107 0-5.625-2.518-5.625-5.625 0-3.107 2.518-5.625 5.625-5.625 3.107 0 5.625 2.518 5.625 5.625 0 3.107-2.518 5.625-5.625 5.625z" fill="#4671c6"/></g><g><path d="m98.509 151.377h-57.518c-3.441 0-6.241-2.8-6.241-6.241s2.8-6.241 6.241-6.241h57.518c3.441 0 6.241 2.8 6.241 6.241s-2.8 6.241-6.241 6.241zm-57.518-8.482c-1.235 0-2.241 1.005-2.241 2.241s1.006 2.241 2.241 2.241h57.518c1.235 0 2.241-1.005 2.241-2.241s-1.006-2.241-2.241-2.241z" fill="#3762cc"/></g><g><path d="m201.375 113.228h-12.375c-3.859 0-7-3.14-7-7v-.015h-43c-1.104 0-2-.896-2-2v-13.485c0-1.104.896-2 2-2h62.375c3.859 0 7 3.14 7 7v10.5c0 3.86-3.141 7-7 7zm-60.375-11.015h43c1.104 0 2 .896 2 2v2.015c0 1.654 1.346 3 3 3h12.375c1.654 0 3-1.346 3-3v-10.5c0-1.654-1.346-3-3-3h-60.375z" fill="#3762cc"/></g><g><path d="m152.001 91.439-15.556 15.556c-.391.391-1.024.391-1.414 0l-19.799-19.799c-4.686-4.686-4.686-12.284 0-16.971 4.686-4.686 12.284-4.686 16.971 0l19.799 19.799c.389.392.389 1.025-.001 1.415z" fill="#a4c9ff"/></g><g><path d="m135.737 109.287c-.769 0-1.536-.292-2.121-.877l-19.799-19.799c-2.645-2.644-4.101-6.16-4.101-9.899 0-3.74 1.456-7.255 4.101-9.899 2.644-2.645 6.159-4.101 9.899-4.101 3.739 0 7.255 1.457 9.898 4.101l19.8 19.799c1.17 1.169 1.17 3.073 0 4.243l-15.557 15.556c-.584.584-1.351.876-2.12.876zm-12.02-40.576c-2.672 0-5.183 1.041-7.071 2.929s-2.929 4.4-2.929 7.071 1.04 5.182 2.929 7.071l19.092 19.091 14.143-14.142-19.094-19.091c-1.889-1.889-4.399-2.929-7.07-2.929zm28.284 22.728h.01zm-1.414-1.414c-.001 0-.002.001-.003.002z" fill="#3762cc"/></g><g><path d="m196.107 108.603c-4.204 0-7.625-3.42-7.625-7.625s3.421-7.625 7.625-7.625 7.625 3.42 7.625 7.625-3.42 7.625-7.625 7.625zm0-11.25c-1.999 0-3.625 1.626-3.625 3.625s1.626 3.625 3.625 3.625 3.625-1.626 3.625-3.625-1.626-3.625-3.625-3.625z" fill="#3762cc"/></g><g><path d="m178.278 204.377h-27.433c-3.385 0-6.138-2.753-6.138-6.137v-1.485c0-1.652.293-3.274.87-4.821l2.423-6.489c.292-.782 1.039-1.3 1.874-1.3h17.458c.265 0 .526.053.771.154l13.102 5.471c2.837 1.185 4.67 3.936 4.67 7.01 0 4.189-3.408 7.597-7.597 7.597zm-27.015-16.232-1.937 5.188c-.41 1.098-.618 2.249-.618 3.422v1.485c0 1.178.959 2.137 2.138 2.137h27.433c1.983 0 3.597-1.614 3.597-3.597 0-1.456-.868-2.758-2.211-3.319l-12.731-5.316z" fill="#3762cc"/></g><g><path d="m167.028 188.145h-17.622c-2.011 0-3.718-1.505-3.969-3.5l-3.967-31.564c-.122-.971-.952-1.703-1.931-1.703h-24.819c-6.617 0-12-5.383-12-12v-13.767c0-1.104.896-2 2-2h45.848c6.771 0 12.596 5.054 13.551 11.756l6.869 48.213c.163 1.148-.179 2.31-.938 3.186-.761.877-1.862 1.379-3.022 1.379zm-60.307-60.534v11.767c0 4.411 3.589 8 8 8h24.819c2.99 0 5.526 2.237 5.899 5.204l3.967 31.564h17.622-.001l-6.869-48.213c-.675-4.744-4.798-8.321-9.59-8.321h-43.847z" fill="#3762cc"/></g><g><path d="m138.5 222.377h-60.75c-3.859 0-7-3.14-7-7 0-13.114 1.725-26.185 5.125-38.852 1.525-5.681 6.699-9.648 12.581-9.648h50.044c3.859 0 7 3.14 7 7v41.5c0 3.86-3.141 7-7 7zm-50.044-51.5c-4.076 0-7.66 2.75-8.718 6.686-3.31 12.328-4.988 25.051-4.988 37.814 0 1.654 1.346 3 3 3h60.75c1.654 0 3-1.346 3-3v-41.5c0-1.654-1.346-3-3-3z" fill="#3762cc"/></g><g><path d="m139.5 170.877h-55.25c-5.514 0-10-4.486-10-10v-7.5c0-3.309 2.691-6 6-6h59.25c3.309 0 6 2.691 6 6v11.5c0 3.309-2.691 6-6 6zm-59.25-19.5c-1.103 0-2 .897-2 2v7.5c0 3.309 2.691 6 6 6h55.25c1.103 0 2-.897 2-2v-11.5c0-1.103-.897-2-2-2z" fill="#3762cc"/></g><g><circle cx="108.125" cy="215.252" fill="#4671c6" r="26.393"/></g><g><circle cx="108.125" cy="215.252" fill="#a4c9ff" r="14.393"/></g><g><path d="m108.125 243.645c-15.655 0-28.393-12.737-28.393-28.393s12.737-28.393 28.393-28.393 28.393 12.737 28.393 28.393-12.738 28.393-28.393 28.393zm0-52.785c-13.45 0-24.393 10.942-24.393 24.393s10.942 24.393 24.393 24.393 24.393-10.942 24.393-24.393-10.943-24.393-24.393-24.393z" fill="#3762cc"/></g><g><path d="m108.125 231.645c-9.039 0-16.393-7.354-16.393-16.393s7.354-16.393 16.393-16.393 16.393 7.354 16.393 16.393-7.354 16.393-16.393 16.393zm0-28.785c-6.833 0-12.393 5.559-12.393 12.393s5.56 12.393 12.393 12.393 12.393-5.559 12.393-12.393-5.56-12.393-12.393-12.393z" fill="#3762cc"/></g><g><path d="m243 222.377h-57.5c-3.859 0-7-3.14-7-7v-3.5c0-19.712 16.037-35.75 35.75-35.75s35.75 16.038 35.75 35.75v3.5c0 3.86-3.141 7-7 7zm-28.75-42.25c-17.507 0-31.75 14.243-31.75 31.75v3.5c0 1.654 1.346 3 3 3h57.5c1.654 0 3-1.346 3-3v-3.5c0-17.506-14.243-31.75-31.75-31.75z" fill="#3762cc"/></g><g><circle cx="214.25" cy="215.252" fill="#4671c6" r="26.392"/></g><g><circle cx="214.25" cy="215.252" fill="#a4c9ff" r="14.393"/></g><g><path d="m214.25 243.645c-15.655 0-28.393-12.737-28.393-28.393s12.737-28.393 28.393-28.393 28.393 12.737 28.393 28.393-12.738 28.393-28.393 28.393zm0-52.785c-13.45 0-24.393 10.942-24.393 24.393s10.942 24.393 24.393 24.393 24.393-10.942 24.393-24.393-10.943-24.393-24.393-24.393z" fill="#3762cc"/></g><g><path d="m214.25 231.645c-9.039 0-16.393-7.354-16.393-16.393s7.354-16.393 16.393-16.393 16.393 7.354 16.393 16.393-7.354 16.393-16.393 16.393zm0-28.785c-6.833 0-12.393 5.559-12.393 12.393s5.56 12.393 12.393 12.393 12.393-5.559 12.393-12.393-5.56-12.393-12.393-12.393z" fill="#3762cc"/></g><g><path d="m228.753 132.877h-4.535c-1.104 0-2-.896-2-2v-24c0-1.104.896-2 2-2h4.535c3.055 0 5.539 2.485 5.539 5.539v16.922c0 3.055-2.484 5.539-5.539 5.539zm-2.535-4h2.535c.849 0 1.539-.69 1.539-1.539v-16.922c0-.849-.69-1.539-1.539-1.539h-2.535z" fill="#3762cc"/></g><g><path d="m224.218 132.877h-3.926c-7.72 0-14-6.28-14-14s6.28-14 14-14h3.926c1.104 0 2 .896 2 2v24c0 1.105-.896 2-2 2zm-3.926-24c-5.514 0-10 4.486-10 10s4.486 10 10 10h1.926v-20z" fill="#3762cc"/></g><g><path d="m126.07 66.73h-1.962c-11.025 0-19.962-8.937-19.962-19.962v-4.951c0-11.025 8.937-19.962 19.962-19.962 11.025 0 19.962 8.937 19.962 19.962v6.913c0 9.941-8.058 18-18 18z" fill="#f9cfcf"/></g><g><path d="m126.07 68.73h-1.962c-12.109 0-21.962-9.852-21.962-21.962v-4.951c0-12.11 9.853-21.962 21.962-21.962s21.962 9.852 21.962 21.962v6.913c0 11.028-8.971 20-20 20zm-1.962-44.875c-9.904 0-17.962 8.058-17.962 17.962v4.951c0 9.904 8.058 17.962 17.962 17.962h1.962c8.822 0 16-7.178 16-16v-6.913c0-9.904-8.057-17.962-17.962-17.962z" fill="#3762cc"/></g><g><path d="m102.66 37.111c0 7.134-.562 11.645 2.828 17.312l2.276 3.806 16.345-6.086v-15.031h-21.449z" fill="#4671c6"/></g><g><path d="m107.765 60.228c-.688 0-1.348-.355-1.718-.973l-2.276-3.805c-3.24-5.417-3.191-9.96-3.13-15.712.009-.837.019-1.71.019-2.626 0-1.104.896-2 2-2h21.449c1.104 0 2 .896 2 2v15.031c0 .835-.52 1.583-1.302 1.875l-16.345 6.086c-.23.084-.465.124-.697.124zm-3.118-21.117c-.002.226-.005.449-.007.669-.059 5.52-.098 9.167 2.563 13.616l1.422 2.377 13.482-5.021v-11.641z" fill="#3762cc"/></g><g><path d="m124.111 54.313c-3.837 0-6.948-3.111-6.948-6.948 0-3.837 3.111-6.948 6.948-6.948 3.835 0 6.948 3.108 6.948 6.948-.001 3.838-3.111 6.948-6.948 6.948z" fill="#f9cfcf"/></g><g><path d="m158.31 30.48h-15.271c-1.974-9.214-10.156-16.125-19.959-16.125-11.278 0-20.42 9.142-20.42 20.42v2.336h55.65c1.831 0 3.315-1.484 3.315-3.315 0-1.832-1.484-3.316-3.315-3.316z" fill="#a4c9ff"/></g><g><path d="m158.31 39.111h-55.65c-1.104 0-2-.896-2-2v-2.335c0-12.363 10.058-22.42 22.421-22.42 9.953 0 18.753 6.69 21.515 16.125h13.715c2.931 0 5.315 2.384 5.315 5.315s-2.386 5.315-5.316 5.315zm-53.651-4h53.65c.726 0 1.315-.59 1.315-1.315s-.59-1.315-1.315-1.315h-15.271c-.943 0-1.758-.659-1.956-1.581-1.805-8.427-9.376-14.544-18.003-14.544-10.157 0-18.421 8.263-18.421 18.42v.335z" fill="#3762cc"/></g><g><path d="m136.688 48.355c-1.525 0-2.761-1.236-2.761-2.761v-2.416c0-1.525 1.236-2.761 2.761-2.761 1.525 0 2.761 1.236 2.761 2.761v2.416c-.001 1.525-1.237 2.761-2.761 2.761z" fill="#3762cc"/></g><g><path d="m143.021 55.813h-3.062c-1.746 0-3.388-.769-4.505-2.11-.354-.424-.296-1.055.129-1.408.424-.354 1.055-.296 1.408.128.735.883 1.817 1.39 2.968 1.39h3.062c.553 0 1 .448 1 1s-.448 1-1 1z" fill="#3762cc"/></g></g></svg>