<svg id="Layer_1" enable-background="new 0 0 512 512" height="512" viewBox="0 0 512 512" width="512" xmlns="http://www.w3.org/2000/svg"><g><g fill="#87c8f4"><path d="m150.673 464.976-6.423 23.721c-2.351 9.294-10.712 15.804-20.296 15.804h-13.216v-39.524h39.935z"/><path d="m361.495 464.976 6.261 23.721c2.351 9.294 10.712 15.804 20.296 15.804h13.216v-39.524h-39.773z"/></g><path d="m408.663 20.41v78.17h-305.32v-78.17c0-7.13 5.78-12.91 12.9-12.91h279.52c7.12 0 12.9 5.78 12.9 12.91z" fill="#ffcc83"/><path d="m408.663 20.41v78.17h-28.61v-78.17c0-7.13-5.78-12.91-12.91-12.91h28.62c7.12 0 12.9 5.78 12.9 12.91z" fill="#ff9e6e"/><path d="m432.723 128.81v276.289c0 8.41-6.82 15.23-15.22 15.23h-323c-8.4 0-15.22-6.82-15.22-15.23v-276.289c0-14.46 9.97-27.04 24.06-30.23 91.82-20.74 186.79-22.53 279.16-5.38 8.74 1.62 17.47 3.42 26.16 5.38 14.09 3.19 24.06 15.77 24.06 30.23z" fill="#ffe780"/><path d="m432.723 128.81v276.289c0 8.41-6.82 15.23-15.22 15.23h-323c-8.4 0-15.22-6.82-15.22-15.23v-8.77h310.22c8.4 0 15.22-6.82 15.22-15.23v-258.159c0-13.81-9.11-25.92-22.22-29.74 8.74 1.62 17.47 3.42 26.16 5.38 14.09 3.19 24.06 15.77 24.06 30.23z" fill="#ffcc83"/><g><path d="m370.273 252.03c0 63.1-51.16 114.26-114.27 114.26-3.88 0-7.72-.19-11.5-.57-57.71-5.77-102.77-54.47-102.77-113.69 0-59.23 45.06-107.93 102.77-113.7 3.78-.38 7.62-.57 11.5-.57 63.11 0 114.27 51.16 114.27 114.27z" fill="#526c7c"/><path d="m370.273 252.03c0 63.1-51.16 114.26-114.27 114.26-3.88 0-7.72-.19-11.5-.57 57.71-5.77 102.77-54.47 102.77-113.69 0-59.23-45.06-107.93-102.77-113.7 3.78-.38 7.62-.57 11.5-.57 63.11 0 114.27 51.16 114.27 114.27z" fill="#2e4754"/><path d="m336.503 277.82c-10.9 34.08-42.82 58.75-80.5 58.75-5.47 0-10.82-.52-15.99-1.52-39.02-7.47-68.51-41.8-68.51-83.02 0-3.39.2-6.73.59-10.01 4.32-36.67 32.09-66.15 67.9-73.02 5.18-1 10.54-1.52 16.01-1.52 36.96 0 68.38 23.75 79.85 56.82-13.25 1.68-23.5 13.01-23.5 26.73 0 1.2.08 2.39.23 3.55 1.62 12.29 11.52 21.97 23.92 23.24z" fill="#5ce8f2"/><path d="m336.503 277.82c-10.9 34.08-42.82 58.75-80.5 58.75-5.47 0-10.82-.52-15.99-1.52 26.22-5.02 48.12-22.17 59.68-45.39 2.66-5.33.61-11.93-4.69-14.65-8.7-4.47-14.65-13.53-14.65-23.98 0-10.27 5.75-19.2 14.19-23.75 5.16-2.78 7.04-9.32 4.32-14.51-11.76-22.39-33.26-38.87-58.87-43.77 5.18-1 10.54-1.52 16.01-1.52 36.96 0 68.38 23.75 79.85 56.82-13.25 1.68-23.5 13.01-23.5 26.73 0 1.2.08 2.39.23 3.55 1.62 12.29 11.52 21.97 23.92 23.24z" fill="#5ecaef"/><path d="m336.503 277.82c-10.9 34.08-42.82 58.75-80.5 58.75-5.47 0-10.82-.52-15.99-1.52-39.02-7.47-68.51-41.8-68.51-83.02 0-3.39.2-6.73.59-10.01 20.62 0 20.03 20.01 40.66 20.01 20.62 0 20.62-20.01 41.24-20.01 14.81 0 18.68 10.31 27.32 16.13 3.39 2.29 7.52 3.88 13.34 3.88 8.53 0 13.54-3.42 17.93-7.45 1.62 12.29 11.52 21.97 23.92 23.24z" fill="#93f9e5"/><path d="m336.503 277.82c-10.9 34.08-42.82 58.75-80.5 58.75-5.47 0-10.82-.52-15.99-1.52 26.22-5.02 48.12-22.17 59.68-45.39 2.66-5.33.61-11.93-4.69-14.65-6.65-3.42-11.69-9.51-13.69-16.86 3.39 2.29 7.52 3.88 13.34 3.88 8.53 0 13.54-3.42 17.93-7.45 1.62 12.29 11.52 21.97 23.92 23.24z" fill="#5ce8f2"/></g><path d="m430.903 435.34c0 16.11-12.86 29.22-28.88 29.62-.25.02-.5.02-.76.02h-293.69c-16.37 0-29.64-13.27-29.64-29.64 0-8.28 6.71-14.99 14.99-14.99h322.99c8.28 0 14.99 6.71 14.99 14.99z" fill="#dcf1ff"/><path d="m430.903 435.34c0 16.11-12.86 29.22-28.88 29.62h-29.17c16.36 0 29.63-13.27 29.63-29.64 0-8.02-6.3-14.57-14.22-14.97h27.65c8.28 0 14.99 6.71 14.99 14.99z" fill="#b6e5ff"/></g><g><path d="m432.717 180.287c4.143 0 7.5-3.358 7.5-7.5v-43.979c0-16.042-9.636-29.979-24.062-35.727v-72.676c0-11.251-9.15-20.405-20.398-20.405h-279.514c-11.248 0-20.398 9.154-20.398 20.405v72.675c-14.426 5.749-24.062 19.685-24.062 35.727v276.296c0 5.88 2.244 11.245 5.92 15.284-3.534 3.974-5.683 9.205-5.683 14.929 0 18.466 13.543 33.826 31.216 36.668v32.516c0 4.142 3.357 7.5 7.5 7.5h13.216c13.012 0 24.331-8.799 27.551-21.407l4.908-18.136h199.304l4.767 18.071c3.198 12.642 14.534 21.472 27.567 21.472h13.216c4.143 0 7.5-3.358 7.5-7.5v-32.515c17.673-2.842 31.216-18.203 31.216-36.668 0-5.724-2.149-10.955-5.683-14.929 3.676-4.039 5.92-9.405 5.92-15.284v-197.169c0-4.142-3.357-7.5-7.5-7.5s-7.5 3.358-7.5 7.5v197.168c0 4.26-3.463 7.726-7.719 7.726h-238.49c-4.143 0-7.5 3.358-7.5 7.5s3.357 7.5 7.5 7.5h238.489c4.126 0 7.482 3.359 7.482 7.487 0 12.208-9.929 22.14-22.132 22.14h-293.697c-12.203 0-22.132-9.932-22.132-22.14 0-4.128 3.356-7.487 7.482-7.487h49.865c4.143 0 7.5-3.358 7.5-7.5s-3.357-7.5-7.5-7.5h-49.864c-4.256 0-7.719-3.466-7.719-7.726v-276.296c0-11.065 7.49-20.485 18.215-22.908 49.475-11.177 100.278-16.845 151.002-16.845s101.527 5.667 151.003 16.845c10.724 2.423 18.214 11.843 18.214 22.908v43.979c0 4.143 3.357 7.501 7.5 7.501zm-38.952 292.17v24.543h-5.716c-6.157 0-11.514-4.174-13.044-10.225l-3.777-14.319h22.537zm-275.53 0h22.635l-3.863 14.272c-.011.04-.021.081-.032.121-1.511 5.977-6.867 10.15-13.024 10.15h-5.716zm282.92-383.192c-47.661-10.096-96.444-15.211-145.155-15.211s-97.495 5.115-145.155 15.211v-68.86c0-2.98 2.422-5.405 5.398-5.405h279.514c2.977 0 5.398 2.425 5.398 5.405z"/><path d="m211.344 29.187c-4.143 0-7.5 3.358-7.5 7.5v15.354c0 4.142 3.357 7.5 7.5 7.5s7.5-3.358 7.5-7.5v-15.354c0-4.142-3.358-7.5-7.5-7.5z"/><path d="m241.394 29.187c-4.143 0-7.5 3.358-7.5 7.5v15.354c0 4.142 3.357 7.5 7.5 7.5s7.5-3.358 7.5-7.5v-15.354c0-4.142-3.358-7.5-7.5-7.5z"/><path d="m271.394 29.187c-4.143 0-7.5 3.358-7.5 7.5v15.354c0 4.142 3.357 7.5 7.5 7.5s7.5-3.358 7.5-7.5v-15.354c0-4.142-3.358-7.5-7.5-7.5z"/><path d="m301.442 29.187c-4.143 0-7.5 3.358-7.5 7.5v15.354c0 4.142 3.357 7.5 7.5 7.5s7.5-3.358 7.5-7.5v-15.354c0-4.142-3.357-7.5-7.5-7.5z"/><path d="m256 373.79c67.143 0 121.768-54.65 121.768-121.823 0-67.174-54.625-121.824-121.768-121.824-18.284 0-35.866 3.957-52.26 11.761-3.74 1.781-5.328 6.256-3.548 9.996 1.781 3.741 6.259 5.327 9.995 3.548 14.363-6.838 29.777-10.305 45.813-10.305 58.872 0 106.768 47.921 106.768 106.824 0 58.902-47.896 106.823-106.768 106.823s-106.768-47.921-106.768-106.823c0-29.52 11.77-56.994 33.141-77.361 2.999-2.857 3.113-7.605.256-10.604-2.859-2.998-7.606-3.112-10.604-.255-24.371 23.226-37.793 54.557-37.793 88.22 0 67.173 54.625 121.823 121.768 121.823z"/><path d="m336.798 231.683c2.242-.285 4.236-1.565 5.429-3.486 1.191-1.921 1.453-4.276.713-6.412-12.833-37.001-47.771-61.862-86.939-61.862-50.73 0-92.002 41.291-92.002 92.043s41.271 92.044 92.001 92.044c40.181 0 75.4-25.704 87.64-63.962.688-2.152.37-4.501-.868-6.392-1.237-1.891-3.262-3.124-5.511-3.354-9.927-1.018-17.412-9.331-17.412-19.336 0-9.767 7.286-18.057 16.949-19.283zm-10.277 51.299c-12.172 27.83-39.591 46.028-70.521 46.028-42.459 0-77.002-34.562-77.002-77.043 0-.391.003-.78.009-1.169 2.968 1.339 5.243 3.611 8.11 6.476 5.441 5.435 12.213 12.199 25.629 12.199 13.352 0 20.279-6.721 25.846-12.122 4.72-4.579 8.129-7.888 15.4-7.888 7.272 0 10.684 3.309 15.403 7.888 5.567 5.4 12.495 12.122 25.849 12.122 5.401 0 9.77-1.136 13.367-2.779 3.76 7.359 10.097 13.196 17.91 16.288zm-21.672-32.016c0 .227.002.454.007.68-2.638 1.816-5.46 2.825-9.611 2.825-7.272 0-10.684-3.309-15.403-7.888-5.567-5.4-12.495-12.122-25.849-12.122-13.352 0-20.279 6.721-25.846 12.122-4.72 4.579-8.129 7.888-15.4 7.888-7.208 0-10.318-3.107-15.027-7.811-4.121-4.116-9.005-8.994-16.959-11.119 7.542-34.618 38.414-60.618 75.24-60.618 30.093 0 57.202 17.533 69.757 44.362-12.385 5.3-20.909 17.628-20.909 31.681z"/><path d="m129.1 146.888c4.063 0 7.358-3.294 7.358-7.358 0-4.063-3.294-7.358-7.358-7.358s-7.358 3.294-7.358 7.358 3.294 7.358 7.358 7.358z"/><path d="m382.92 132.171c-4.063 0-7.358 3.294-7.358 7.358s3.294 7.358 7.358 7.358 7.358-3.294 7.358-7.358-3.295-7.358-7.358-7.358z"/><path d="m129.09 379.776c4.063 0 7.358-3.294 7.358-7.358 0-4.063-3.294-7.358-7.358-7.358s-7.358 3.294-7.358 7.358 3.294 7.358 7.358 7.358z"/><path d="m382.91 379.775c4.063 0 7.358-3.294 7.358-7.358 0-4.063-3.294-7.358-7.358-7.358s-7.358 3.294-7.358 7.358 3.295 7.358 7.358 7.358z"/></g></svg>