<svg id="_x33_0" enable-background="new 0 0 64 64" height="512" viewBox="0 0 64 64" width="512" xmlns="http://www.w3.org/2000/svg"><g><g><g fill="#69d6f4"><circle cx="4" cy="56" r="2"/><circle cx="60" cy="26" r="2"/><circle cx="56" cy="6" r="4"/><circle cx="26" cy="4" r="2"/><circle cx="6" cy="6" r="4"/><path d="m34.53 22c-1.41 0-2.53 1.13-2.53 2.51v.01c0 .32.06.63.18.93 1.2 3.01 1.82 6.21 1.82 9.45v5.66c0 1.17.17 2.32.5 3.42-.71.79-1.61 1.39-2.64 1.73-.58.19-1.21.29-1.86.29-3.31 0-6-2.69-6-6-2.21 0-4-1.79-4-4 0-.76.22-1.46.59-2.07-1.56-1.08-2.59-2.88-2.59-4.93s1.03-3.85 2.59-4.93c-.37-.61-.59-1.31-.59-2.07 0-2.21 1.79-4 4-4 .2 0 .39.03.59.06-.37-.6-.59-1.3-.59-2.06 0-1.16.49-2.21 1.29-2.94.71-.66 1.67-1.06 2.71-1.06.83 0 1.6.25 2.24.69.54-1.56 2.01-2.69 3.76-2.69 1.02 0 1.95.38 2.66 1.01-.41.49-.66 1.13-.66 1.82 0 .75.3 1.47.83 2l4.83 4.83c1.5 1.5 2.34 3.53 2.34 5.65v5.69c0 .83-.34 1.58-.88 2.12s-1.29.88-2.12.88c-.55 0-1-.45-1-1v-5.53c0-1.51-.61-2.88-1.6-3.87s-2.36-1.6-3.87-1.6z"/></g><path d="m25.29 13.06c-.8.73-1.29 1.78-1.29 2.94 0 .76.22 1.46.59 2.06-.2-.03-.39-.06-.59-.06-2.21 0-4 1.79-4 4v-7c0-.83.34-1.58.88-2.12s1.29-.88 2.12-.88c.92 0 1.74.41 2.29 1.06z" fill="#f5e0cd"/><path d="m14 15v-4c0-1.66 1.34-3 3-3 .83 0 1.58.34 2.12.88s.88 1.29.88 2.12v4 7c0 .76.22 1.46.59 2.07-1.56 1.08-2.59 2.88-2.59 4.93s1.03 3.85 2.59 4.93c-.37.61-.59 1.31-.59 2.07 0 2.21 1.79 4 4 4 0 3.31 2.69 6 6 6 .65 0 1.28-.1 1.86-.29-.18 1.8-.52 3.58-1.01 5.33l-.47 1.61c-.25.9-.38 1.82-.38 2.75v6.6h-20v-5.78c0-1.43-.51-2.82-1.44-3.91l-1.67-1.94c-1.87-2.17-2.89-4.94-2.89-7.81v-5.66c0-3.24-.62-6.44-1.82-9.45-.12-.3-.18-.61-.18-.93 0 0 0 0 0-.01 0-1.38 1.12-2.51 2.53-2.51h.09c1.28 0 2.46.45 3.38 1.2v-.01-10.19c0-1.66 1.34-3 3-3 .83 0 1.58.34 2.12.88s.88 1.29.88 2.12z" fill="#f5e0cd"/><path d="m43.5 13.5-1.37-4.1c-.09-.27-.13-.54-.13-.82v-.01c0-.71.29-1.35.75-1.82.47-.46 1.11-.75 1.82-.75.89 0 1.71.46 2.18 1.22l5.17 8.41c1.36 2.2 2.08 4.74 2.08 7.33v22.04c0 1.31.32 2.61.94 3.76l7.06 13.24h-19l-2.51-8.38c-.32-1.07-.87-2.06-1.59-2.91l-2.01-2.34c-1.11-1.29-1.92-2.79-2.39-4.39-.33-1.1-.5-2.25-.5-3.42v-5.66c0-3.24-.62-6.44-1.82-9.45-.12-.3-.18-.61-.18-.93 0 0 0 0 0-.01 0-1.38 1.12-2.51 2.53-2.51 1.51 0 2.88.61 3.87 1.6s1.6 2.36 1.6 3.87v5.53c0 .55.45 1 1 1 .83 0 1.58-.34 2.12-.88s.88-1.29.88-2.12v-5.69c0-2.12-.84-4.15-2.34-5.65l-4.83-4.83c-.53-.53-.83-1.25-.83-2 0-.69.25-1.33.66-1.82.06-.06.11-.12.17-.18.51-.51 1.22-.83 2-.83.75 0 1.47.3 2 .83z" fill="#f5e0cd"/></g><path d="m61 6c0-2.757-2.243-5-5-5s-5 2.243-5 5 2.243 5 5 5 5-2.243 5-5zm-5 3c-1.654 0-3-1.346-3-3s1.346-3 3-3 3 1.346 3 3-1.346 3-3 3z"/><path d="m60 29c1.654 0 3-1.346 3-3s-1.346-3-3-3-3 1.346-3 3 1.346 3 3 3zm0-4c.552 0 1 .449 1 1s-.448 1-1 1-1-.449-1-1 .448-1 1-1z"/><path d="m23 4c0 1.654 1.346 3 3 3s3-1.346 3-3-1.346-3-3-3-3 1.346-3 3zm4 0c0 .551-.448 1-1 1s-1-.449-1-1 .448-1 1-1 1 .449 1 1z"/><path d="m7 56c0-1.654-1.346-3-3-3s-3 1.346-3 3 1.346 3 3 3 3-1.346 3-3zm-4 0c0-.551.448-1 1-1s1 .449 1 1-.448 1-1 1-1-.449-1-1z"/><path d="m6 11c2.757 0 5-2.243 5-5s-2.243-5-5-5-5 2.243-5 5 2.243 5 5 5zm0-8c1.654 0 3 1.346 3 3s-1.346 3-3 3-3-1.346-3-3 1.346-3 3-3z"/><path d="m55.823 48.294c-.538-1.01-.823-2.149-.823-3.294v-22.038c0-2.778-.77-5.497-2.226-7.861l-5.171-8.405c-.655-1.062-1.79-1.696-3.037-1.696-1.966 0-3.566 1.6-3.566 3.583 0 .382.062.761.184 1.128l.056.167c-.682-.558-1.518-.878-2.412-.878-.833 0-1.6.275-2.229.729-.778-.474-1.675-.729-2.599-.729-1.728 0-3.308.903-4.21 2.33-.566-.217-1.172-.33-1.79-.33-.974 0-1.876.291-2.646.775-.678-.496-1.496-.775-2.354-.775-.732 0-1.409.212-2 .556v-.556c0-2.206-1.794-4-4-4s-4 1.794-4 4v.556c-.591-.344-1.268-.556-2-.556-2.206 0-4 1.794-4 4v8.48c-.759-.308-1.592-.48-2.471-.48-1.946 0-3.529 1.577-3.529 3.516 0 .447.084.886.251 1.306 1.16 2.901 1.749 5.955 1.749 9.079v5.66c0 3.101 1.111 6.105 3.13 8.46l1.666 1.944c.776.907 1.204 2.062 1.204 3.255v4.78h-8v2h62.667zm-16.995-37.294c.481 0 .952.195 1.293.536l5.657 5.657c2.077 2.078 3.222 4.84 3.222 7.778v4.029h2v-4.029c0-3.472-1.353-6.736-3.808-9.192l-2.819-2.818-1.293-3.88c-.053-.163-.08-.33-.08-.515 0-.863.703-1.566 1.566-1.566.539 0 1.051.286 1.334.745l5.171 8.404c1.262 2.05 1.929 4.406 1.929 6.813v22.038c0 1.472.366 2.937 1.059 4.235l6.274 11.765h-16.589l-2.3-7.665c-.362-1.211-.964-2.312-1.787-3.272l-2.009-2.344c-1.708-1.991-2.648-4.534-2.648-7.158v-5.66c0-3.379-.637-6.684-1.892-9.821-.072-.182-.108-.372-.108-.565 0-.835.687-1.515 1.529-1.515 2.465 0 4.471 2.006 4.471 4.472v5.528c0 1.103.897 2 2 2 2.206 0 4-1.794 4-4v-5.687c0-2.404-.936-4.664-2.636-6.364l-4.829-4.828c-.345-.345-.535-.804-.535-1.292 0-1.009.82-1.829 1.828-1.829zm-7.481 41.928.461-1.613c.457-1.6.778-3.244.972-4.896.453-.196.885-.44 1.289-.728.515 1.198 1.2 2.326 2.061 3.331l2.01 2.344c.64.747 1.106 1.603 1.389 2.544l2.127 7.09h-10.656v-5.6c0-.835.116-1.667.347-2.472zm-1.668-39.414 1.075.729.43-1.227c.421-1.206 1.553-2.016 2.816-2.016.461 0 .907.117 1.314.316-.201.465-.314.975-.314 1.513 0 1.022.398 1.983 1.121 2.707l4.829 4.828c1.321 1.322 2.05 3.08 2.05 4.95v5.686c0 1.103-.897 2-2 2v-5.528c0-3.569-2.902-6.472-6.471-6.472-.528 0-1.024.124-1.474.332-.019-.111-.055-.217-.055-.332 0-1.103.897-2 2-2v-2c-2.206 0-4 1.794-4 4 0 .649.157 1.27.45 1.833-.278.502-.45 1.07-.45 1.682 0 .447.084.886.251 1.306 1.16 2.901 1.749 5.956 1.749 9.08v5.66c0 1.057.139 2.101.389 3.113-.92.847-2.128 1.326-3.389 1.326-2.757 0-5-2.243-5-5v-1h-1c-1.654 0-3-1.346-3-3 0-.539.15-1.06.445-1.547l.489-.805-.774-.536c-1.352-.936-2.16-2.473-2.16-4.112s.808-3.176 2.16-4.112l.774-.536-.489-.805c-.295-.487-.445-1.008-.445-1.547 0-1.654 1.346-3 3-3 .141 0 .275.023.439.048l2.105.313-1.103-1.821c-.293-.483-.441-1.002-.441-1.54 0-1.654 1.346-3 3-3 .603 0 1.183.178 1.679.514zm-6.679-.514c.303 0 .596.071.862.198-.543.8-.862 1.764-.862 2.802 0 .362.041.723.122 1.077-.79.14-1.506.479-2.122.944v-3.021c0-1.103.897-2 2-2zm-13.686 38.664-1.666-1.944c-1.708-1.992-2.648-4.535-2.648-7.159v-5.66c0-3.379-.637-6.684-1.892-9.821-.072-.182-.108-.372-.108-.565 0-.835.687-1.515 1.619-1.515 2.416 0 4.381 1.965 4.381 4.381v6.237l.975.487c1.866.934 3.025 2.809 3.025 4.895h2c0-2.799-1.528-5.321-4-6.617v-5.002c0-1.816-.766-3.453-2-4.616v-9.765c0-1.103.897-2 2-2s2 .897 2 2v15h2v-19c0-1.103.897-2 2-2s2 .897 2 2v13.118c-1.265 1.296-2 3.04-2 4.882 0 2.004.861 3.898 2.339 5.219-.223.572-.339 1.176-.339 1.781 0 2.436 1.75 4.47 4.059 4.911.448 3.431 3.39 6.089 6.941 6.089.234 0 .467-.014.698-.037-.186 1.283-.458 2.557-.814 3.802l-.461 1.614c-.28.984-.423 2.001-.423 3.021v5.6h-18v-4.78c0-1.67-.599-3.287-1.686-4.556z"/><path d="m23 31h2c0-1.103.897-2 2-2s2 .897 2 2-.897 2-2 2v2c2.206 0 4-1.794 4-4s-1.794-4-4-4-4 1.794-4 4z"/></g></svg>