<svg id="Capa_1" enable-background="new 0 0 512.022 512.022" height="512" viewBox="0 0 512.022 512.022" width="512" xmlns="http://www.w3.org/2000/svg"><g id="XMLID_1854_"><path id="XMLID_1862_" d="m176.338 404.268 227.931-227.931c25.824 4.352 53.292-3.413 73.22-23.341 24.287-24.287 30.525-59.771 18.75-89.829l-44.294 44.294c-13.085 13.085-34.301 13.085-47.386 0s-13.085-34.301 0-47.386l44.294-44.294c-30.058-11.775-65.542-5.537-89.829 18.75-19.928 19.928-27.693 47.396-23.341 73.221l-227.93 227.932c-25.824-4.352-53.292 3.413-73.22 23.341-24.287 24.287-30.525 59.771-18.75 89.829l44.294-44.294c13.085-13.085 34.301-13.085 47.386 0s13.085 34.301 0 47.386l-44.294 44.294c30.058 11.775 65.542 5.537 89.829-18.75 19.927-19.929 27.692-47.397 23.34-73.222z" fill="#c5d3de"/><path id="XMLID_2218_" d="m149.831 50.164h-64.167l-35.5 93h49.5l-23.25 79.25 97.25-116.984h-50.5z" fill="#00ccf2"/><path id="XMLID_2217_" d="m438.309 289.892h-64.167l-35.5 93h49.5l-23.25 79.25 97.25-116.984h-50.5z" fill="#00ccf2"/><g id="XMLID_2239_"><path id="XMLID_727_" d="m93.743 512.021c-11.505.001-23.104-2.115-34.223-6.471-3.142-1.231-5.451-3.963-6.141-7.266s.331-6.731 2.717-9.117l44.294-44.294c4.439-4.439 6.885-10.343 6.885-16.621 0-6.279-2.445-12.183-6.885-16.622-4.439-4.439-10.343-6.885-16.622-6.885-6.278 0-12.182 2.445-16.621 6.885l-44.294 44.294c-2.386 2.386-5.811 3.409-9.117 2.717-3.303-.689-6.034-2.999-7.266-6.141-13.603-34.726-5.363-74.192 20.99-100.548 20.162-20.161 48.523-29.996 76.739-26.859l78.627-78.627c3.906-3.904 10.236-3.904 14.143 0 3.905 3.905 3.905 10.237 0 14.143l-82.146 82.145c-2.287 2.287-5.532 3.326-8.733 2.79-23.542-3.969-47.65 3.716-64.487 20.551-16.864 16.865-24.299 40.561-20.726 63.52l32.127-32.127c16.963-16.964 44.565-16.962 61.528 0 16.963 16.964 16.963 44.564 0 61.528l-32.127 32.127c22.955 3.573 46.653-3.86 63.52-20.726 16.836-16.836 24.519-40.944 20.551-64.487-.537-3.191.502-6.445 2.79-8.733l227.931-227.931c2.288-2.287 5.535-3.323 8.733-2.79 23.544 3.969 47.651-3.715 64.487-20.551 16.864-16.865 24.299-40.561 20.726-63.52l-32.127 32.127c-16.964 16.964-44.566 16.962-61.528 0-16.963-16.964-16.963-44.564 0-61.528l32.127-32.127c-22.957-3.576-46.654 3.859-63.52 20.726-16.836 16.836-24.519 40.944-20.551 64.487.537 3.191-.502 6.445-2.79 8.733l-82.146 82.146c-3.906 3.904-10.236 3.904-14.142 0-3.905-3.905-3.905-10.237 0-14.143l78.627-78.627c-3.139-28.224 6.699-56.577 26.859-76.739 26.355-26.353 65.821-34.593 100.548-20.99 3.142 1.231 5.451 3.963 6.141 7.266s-.331 6.731-2.717 9.117l-44.294 44.294c-4.439 4.439-6.885 10.343-6.885 16.621 0 6.279 2.445 12.183 6.885 16.622 4.439 4.439 10.343 6.885 16.622 6.885 6.278 0 12.182-2.445 16.621-6.885l44.294-44.294c2.387-2.386 5.812-3.407 9.117-2.717 3.303.689 6.034 2.999 7.266 6.141 13.603 34.726 5.363 74.192-20.99 100.548-17.691 17.69-41.694 27.432-66.379 27.434-3.447 0-6.902-.189-10.36-.574l-220.893 220.893c3.139 28.224-6.699 56.577-26.859 76.739-17.918 17.916-41.899 27.46-66.326 27.461z"/></g><g id="XMLID_1861_"><path id="XMLID_726_" d="m154.043 367.979c-2.559 0-5.118-.977-7.071-2.929-3.905-3.905-3.905-10.237 0-14.143l203.936-203.936c3.906-3.904 10.236-3.904 14.143 0 3.905 3.905 3.905 10.237 0 14.143l-203.937 203.936c-1.953 1.952-4.511 2.929-7.071 2.929z"/></g><g id="XMLID_1860_"><path id="XMLID_723_" d="m76.409 232.415c-1.597 0-3.209-.383-4.696-1.175-4.186-2.229-6.229-7.092-4.895-11.642l19.49-66.435h-36.144c-3.29 0-6.37-1.618-8.236-4.328s-2.279-6.164-1.106-9.238l35.5-93c1.479-3.874 5.196-6.434 9.343-6.434h64.167c3.44 0 6.64 1.769 8.47 4.683 1.829 2.914 2.032 6.564.536 9.663l-19.744 40.92h34.571c3.878 0 7.406 2.242 9.054 5.753 1.646 3.511 1.115 7.657-1.364 10.64l-97.25 116.984c-1.955 2.351-4.8 3.608-7.696 3.609zm-11.723-99.251h34.979c3.15 0 6.116 1.484 8.005 4.006 1.888 2.522 2.478 5.786 1.591 8.81l-9.648 32.887 52.735-63.437h-29.183c-3.44 0-6.64-1.768-8.47-4.683-1.829-2.914-2.032-6.564-.537-9.663l19.745-40.92h-41.352z"/></g><g id="XMLID_1857_"><path id="XMLID_720_" d="m364.887 472.143c-1.597 0-3.209-.383-4.696-1.175-4.186-2.229-6.229-7.092-4.895-11.642l19.49-66.435h-36.145c-3.29 0-6.37-1.618-8.236-4.328s-2.279-6.164-1.106-9.238l35.5-93c1.479-3.874 5.196-6.434 9.343-6.434h64.167c3.44 0 6.64 1.768 8.47 4.683 1.829 2.914 2.032 6.564.536 9.663l-19.744 40.92h34.571c3.878 0 7.406 2.242 9.054 5.753 1.647 3.511 1.115 7.657-1.364 10.64l-97.25 116.984c-1.954 2.351-4.8 3.608-7.695 3.609zm-11.724-99.251h34.979c3.15 0 6.116 1.484 8.005 4.006 1.888 2.522 2.478 5.786 1.591 8.81l-9.648 32.887 52.735-63.437h-29.183c-3.441 0-6.64-1.769-8.47-4.683-1.829-2.914-2.032-6.565-.537-9.663l19.745-40.92h-41.352z"/></g><g id="XMLID_1855_"><g id="XMLID_1856_"><path id="XMLID_719_" d="m221.721 231.721c-2.641 0-5.21-1.07-7.07-2.93-1.859-1.86-2.93-4.44-2.93-7.07 0-2.641 1.07-5.21 2.93-7.07 1.86-1.87 4.44-2.93 7.07-2.93s5.21 1.06 7.07 2.93c1.859 1.86 2.93 4.441 2.93 7.07 0 2.63-1.07 5.2-2.93 7.07-1.86 1.859-4.44 2.93-7.07 2.93z"/></g></g></g></svg>