<svg id="Capa_1" enable-background="new 0 0 511.99 511.99" height="512" viewBox="0 0 511.99 511.99" width="512" xmlns="http://www.w3.org/2000/svg"><g><path d="m341.671 34.703h-253.222c-13.145 0-24.251 9.748-25.957 22.782l-10.702 81.809h326.54l-10.703-81.809c-1.705-13.034-12.811-22.782-25.956-22.782z" fill="#ceeafb"/><path d="m157.213 34.703h-68.764c-13.145 0-24.252 9.748-25.957 22.782l-10.702 81.809h126.072c-21.396-19.77-29.216-58.877-20.649-104.591z" fill="#a3defe"/><circle cx="128.6" cy="83.493" fill="#4e5660" r="17.608"/><circle cx="215.06" cy="83.493" fill="#4e5660" r="17.608"/><path d="m360.467 477.287h-290.814c-34.326 0-62.153-27.827-62.153-62.153v-247.381c0-19.589 15.88-35.469 35.469-35.469h344.181c19.589 0 35.469 15.88 35.469 35.469v247.381c.001 34.326-27.826 62.153-62.152 62.153z" fill="#fbf1cf"/><path d="m42.969 132.283c-19.589 0-35.469 15.88-35.469 35.47v247.381c0 34.326 27.827 62.153 62.153 62.153h183.695c-130.457-55.629-123.523-208.332-116.969-345.003h-93.41z" fill="#f7dfb7"/><path d="m215.06 281.491c-98.881 0-115.707-51.961-207.56-28.082v161.724c0 34.326 27.827 62.153 62.153 62.153h290.814c34.326 0 62.153-27.827 62.153-62.153v-161.723c-91.853-23.879-108.68 28.081-207.56 28.081z" fill="#ceeafb"/><path d="m134.663 267.875c-39.447-13.466-67.457-29.987-127.163-14.465v161.724c0 34.326 27.827 62.153 62.153 62.153h183.695c-87.692-37.394-113.308-118.647-118.685-209.412z" fill="#a3defe"/><circle cx="215.06" cy="307.819" fill="#4e5660" r="127.932"/><circle cx="215.06" cy="307.819" fill="#ceeafb" r="78.329"/><path d="m293.389 307.819c0-19.944-7.466-38.136-19.74-51.964-.427 57.091-65.406 112.836-124.335 94.521 13.96 21.523 38.182 35.773 65.746 35.773 43.26-.001 78.329-35.07 78.329-78.33z" fill="#a3defe"/><g><path d="m500.632 289.902-55.762-55.762c-8.992-8.992-21.188-14.044-33.905-14.044h-111.072c-12.717 0-24.913 5.052-33.905 14.044l-55.762 55.762c-5.157 5.157-5.157 13.519 0 18.676l24.146 24.146c5.157 5.157 13.519 5.157 18.676 0l26.984-26.984v96.951c0 10.216 8.281 18.497 18.497 18.497h113.8c10.216 0 18.497-8.282 18.497-18.497v-96.951l26.984 26.984c5.157 5.157 13.519 5.157 18.676 0l24.146-24.146c5.157-5.158 5.157-13.519 0-18.676z" fill="#7fd49d"/><path d="m319.609 220.096c0 19.783 16.037 35.82 35.82 35.82s35.82-16.037 35.82-35.82z" fill="#5ec783"/></g><path d="m276.801 83.493c0 4.142 3.358 7.5 7.5 7.5h37.827c4.142 0 7.5-3.358 7.5-7.5s-3.358-7.5-7.5-7.5h-37.827c-4.142 0-7.5 3.358-7.5 7.5zm-86.849 0c0 13.845 11.264 25.108 25.108 25.108 13.845 0 25.108-11.263 25.108-25.108s-11.263-25.108-25.108-25.108-25.108 11.264-25.108 25.108zm35.216 0c0 5.574-4.534 10.108-10.108 10.108s-10.108-4.534-10.108-10.108 4.535-10.108 10.108-10.108c5.574 0 10.108 4.535 10.108 10.108zm280.768 201.105-55.763-55.762c-5.777-5.777-12.607-10.113-20.054-12.848v-48.235c0-23.694-19.276-42.97-42.969-42.97h-3.155l-8.932-68.271c-1.82-13.914-12.228-25.354-25.899-28.469-4.042-.922-8.059 1.608-8.979 5.646-.92 4.039 1.608 8.059 5.646 8.979 7.579 1.727 13.349 8.072 14.358 15.789l8.677 66.326h-307.614l8.677-66.326c1.212-9.267 9.174-16.254 18.52-16.254h223.125c4.142 0 7.5-3.358 7.5-7.5s-3.358-7.5-7.5-7.5h-223.125c-16.852 0-31.207 12.6-33.393 29.309l-8.932 68.271h-3.154c-23.693 0-42.97 19.276-42.97 42.97v247.381c0 38.407 31.246 69.653 69.653 69.653h26.212c4.142 0 7.5-3.358 7.5-7.5s-3.358-7.5-7.5-7.5h-26.212c-30.136 0-54.653-24.517-54.653-54.653v-155.845c30.744-7.181 52.404-5.305 73.417.546-5.673 14.923-8.79 31.095-8.79 47.984 0 74.678 60.754 135.432 135.432 135.432 24.444 0 48.199-6.536 69.065-18.932 4.126 2.757 9.08 4.369 14.405 4.369 91.598-.01 113.866.016 114.902-.028-6.014 23.77-27.49 41.128-52.965 41.128h-229.16c-4.142 0-7.5 3.358-7.5 7.5s3.358 7.5 7.5 7.5h229.161c36.089 0 65.891-27.334 69.319-62.849 5.243-4.76 8.54-11.625 8.54-19.248v-78.844l14.181 14.181c8.072 8.073 21.208 8.074 29.283 0l24.146-24.146c8.072-8.075 8.072-21.21 0-29.284zm-490.936-40.677v-76.168c0-15.422 12.547-27.97 27.97-27.97.102 0 344.688.002 344.181 0 15.422 0 27.969 12.547 27.969 27.97v45.012c-4.393-.324.862-.1-103.767-.169-25.629-25.955-59.693-40.21-96.292-40.21-52.417 0-97.971 29.933-120.474 73.602-20.554-5.995-44.813-9.584-79.587-2.067zm367.734-16.325c-3.297 11.986-14.285 20.82-27.305 20.82s-24.008-8.833-27.304-20.82zm-167.674 200.655c-66.407 0-120.432-54.025-120.432-120.432s54.025-120.432 120.432-120.432c27.674 0 53.714 9.172 74.903 26.106-20.834 3.747-30.94 17.511-33.232 19.298-12.719-7.082-27.003-10.801-41.671-10.801-47.327 0-85.83 38.503-85.83 85.829 0 47.327 38.503 85.83 85.83 85.83 21.494 0 41.878-8.014 57.473-22.08v31.122c0 3.495.698 6.828 1.953 9.875-18.066 10.272-38.457 15.685-59.426 15.685zm-10.137-114.37 24.146 24.146c8.073 8.073 21.208 8.073 29.282 0l14.181-14.181v25.378c-13.323 18.466-34.64 29.424-57.473 29.424-39.056 0-70.83-31.774-70.83-70.83 0-51.928 54.482-86.369 101.369-63.896l-40.676 40.676c-8.072 8.074-8.072 21.209.001 29.283zm290.406-10.607-24.146 24.146c-2.229 2.229-5.84 2.23-8.07 0l-26.984-26.984c-4.704-4.708-12.803-1.374-12.803 5.303v96.951c0 6.099-4.967 10.997-10.997 10.997h-113.8c-6.064 0-10.997-4.933-10.997-10.997 0-9.641 0-87.124 0-96.951 0-6.659-8.083-10.024-12.803-5.303l-26.984 26.984c-2.229 2.229-5.839 2.23-8.069 0l-24.146-24.146c-2.225-2.225-2.225-5.845 0-8.069.307-.307 57.25-57.25 55.762-55.762 7.64-7.64 17.797-11.847 28.602-11.847h12.879c3.564 20.323 21.329 35.82 42.657 35.82s39.093-15.497 42.657-35.82h12.879c10.751 0 20.951 4.197 28.602 11.847l55.762 55.762c2.223 2.224 2.223 5.845-.001 8.069zm-391.837-219.781c0 13.845 11.263 25.108 25.108 25.108s25.108-11.263 25.108-25.108-11.264-25.108-25.108-25.108-25.108 11.264-25.108 25.108zm35.216 0c0 5.574-4.535 10.108-10.108 10.108-5.574 0-10.108-4.534-10.108-10.108s4.534-10.108 10.108-10.108 10.108 4.535 10.108 10.108z"/></g></svg>