<svg xmlns="http://www.w3.org/2000/svg" data-name="Layer 1" viewBox="0 0 512 512"><rect width="117.585" height="109.381" x="109.399" y="98.719" fill="#ffe966" rx="10"/><path fill="#ffe236" d="M216.9845,98.71856h-30a10,10,0,0,1,10,10V198.1a10,10,0,0,1-10,10h30a10,10,0,0,0,10-10V108.71856A10,10,0,0,0,216.9845,98.71856Z"/><path fill="#4a4f60" d="M215.73877,363.81339a48.81452,48.81452,0,0,1-97.629,0s-.63728-8.98207,2.83783-8.76487,94.79117-1.086,94.79117-1.086Z"/><path fill="#3b3f4d" d="M200.73877,354.17205v9.6413a48.82531,48.82531,0,0,1-41.31445,48.2403,48.84668,48.84668,0,0,0,56.31445-48.2403v-9.85083S209.72656,354.04827,200.73877,354.17205Z"/><path fill="#fff" d="M185.88867,365.90822c-1.30774,8.05962-8.59179,16.79768-18.96435,16.71183-10.5011-.08693-18.67591-9.17226-18.80677-18.80666a18.80484,18.80484,0,0,1,9.97022-16.58386c9.39587-4.93582,21.55383-.39485,26.06323,7.819A17.07836,17.07836,0,0,1,185.88867,365.90822Z"/><path fill="#f66" d="M385.30518,355.73164,83.99341,359.45525c-16.75818-28.78485,7.80249-87.47068,49.4032-111.51215,21.85608-12.63076,44.16992-13.24552,56.72009-12.502h76.64453c-15.999,24.35769-14.33166,55.44179,3.103,75.40349,14.066,16.10467,36.72986,23.07821,56.9834,18.61812,48.55395-10.69213,45.52209-66.83727,37.49133-104.7647-.605-2.85713-9.18529-33.57634-13.49327-46.18106l32.16905,7.31465c11.72461,32.61878,38.89429,117.90591,38.89429,117.90591Z"/><path fill="#ff4e4e" d="M190.1167 235.4411a115.82689 115.82689 0 0 0-13.86011 0zM254.86426 310.84454c12.95434 14.83179 33.1997 21.91058 52.14013 19.45434a59.3823 59.3823 0 0 1-37.14013-19.45434c-17.43469-19.96167-19.102-51.04578-3.103-75.40344h-15C235.76221 259.79876 237.42957 290.88287 254.86426 310.84454zM383.01477 185.8316l-32.16907-7.3147c.37574 1.09931.78553 2.34333 1.218 3.68769l15.95105 3.627c11.72461 32.61877 38.89429 117.90588 38.89429 117.90588h15S394.73938 218.45037 383.01477 185.8316z"/><path fill="#4a4f60" d="M474.04919,330.4088A48.81884,48.81884,0,1,1,392.50208,379.806"/><path fill="#3b3f4d" d="M474.04919,330.40881l-10.06958,6.09967a48.79785,48.79785,0,0,1-32.70422,75.834,48.80787,48.80787,0,0,0,42.7738-81.93365Z"/><path fill="#fff" d="M447.75745,347.60783A18.80947,18.80947,0,1,1,419.928,364.3952a21.46181,21.46181,0,0,1,27.82947-16.78737Z"/><path fill="#ff4e4e" d="M83.99682,359.45725C95.4774,306.29257,145.1024,276.30046,185.46218,286.641c29.24328,7.49238,52.31949,35.82548,57.703,70.76537Z"/><path fill="#ff3636" d="M185.46216,286.641a69.17039,69.17039,0,0,0-31.60742-.38544c.53711.12274,1.07348.24866,1.60742.38544,29.24328,7.49237,52.31958,35.82544,57.703,70.76538L84.08545,359.06958c-.02857.12982-.06055.25756-.08862.38769l159.16833-2.0509C237.78174,322.46643,214.70544,294.13336,185.46216,286.641Z"/><path fill="#ff4e4e" d="M415.70391,299.36117h3.46058a59.98073,59.98073,0,0,1,59.98073,59.98073v.00008a0,0,0,0,1,0,0H355.72316a0,0,0,0,1,0,0v-.00007A59.98075,59.98075,0,0,1,415.70391,299.36117Z" transform="rotate(-30.755 417.434 329.352)"/><path fill="#ff3636" d="M485.80237,323.567a59.994,59.994,0,0,0-66.55286-27.39911A59.96217,59.96217,0,0,1,444.7509,309.971,13.51984,13.51984,0,0,1,442.438,331.5196l-68.8363,40.9616a60.04612,60.04612,0,0,0,6.1366,14.2v.00006l106.06421-63.1142Z"/><path fill="#ff4e4e" d="M367.24576,141.7396H394.611a3,3,0,0,1,3,3v38.092a3,3,0,0,1-3,3H367.24576a22.046,22.046,0,0,1-22.046-22.046v0a22.046,22.046,0,0,1,22.046-22.046Z"/><path fill="#ff3636" d="M394.61108,141.73962h-15a3.00007,3.00007,0,0,1,3,3v38.09192a3.00007,3.00007,0,0,1-3,3h15a3.00007,3.00007,0,0,0,3-3V144.73962A3.00007,3.00007,0,0,0,394.61108,141.73962Z"/><rect width="140.855" height="27.345" x="137.656" y="208.1" fill="#4a4f60" rx="13.673"/><path fill="#3b3f4d" d="M264.83862,208.1h-30a13.67267,13.67267,0,1,1,0,27.34534h30a13.67267,13.67267,0,1,0,0-27.34534Z"/><path fill="#313440" d="M15,153.21338a7.49974,7.49974,0,0,0,7.5,7.5H79.39941a7.5,7.5,0,1,0,0-15H22.5A7.49974,7.49974,0,0,0,15,153.21338Zm175.69238-7.5h-15v-15a7.5,7.5,0,1,0-15,0v15h-15a7.5,7.5,0,0,0,0,15h15v15a7.5,7.5,0,0,0,15,0v-15h15a7.5,7.5,0,0,0,0-15ZM7.5,130.71338H64.39941a7.5,7.5,0,1,0,0-15H7.5a7.5,7.5,0,0,0,0,15Zm0,60H64.39941a7.5,7.5,0,1,0,0-15H7.5a7.5,7.5,0,0,0,0,15Zm497,215.26416H476.13428a56.03419,56.03419,0,0,0,18.10693-32.54346,56.60852,56.60852,0,0,0-8.88867-41.06769l4.28516-2.55a7.49976,7.49976,0,0,0,2.61035-10.28077,67.57635,67.57635,0,0,0-68.00782-32.21136c-6.395-15.21661-12.978-36.9101-19.35449-57.93561-3.71631-12.25543-7.52978-24.82672-11.3457-36.25293h4.07129a7.49974,7.49974,0,0,0,7.5-7.5V141.544a7.49974,7.49974,0,0,0-7.5-7.5H367.24609a29.59666,29.59666,0,0,0-28.57861,22.04589H309.9707a7.5,7.5,0,0,0,0,15h28.69678a29.49092,29.49092,0,0,0,5.96021,11.48194,7.53071,7.53071,0,0,0,.31176,1.2959c4.17774,12.22509,11.53418,39.69384,12.0625,42.188,8.2041,38.74512,9.35254,86.83155-31.76757,95.88672a51.98266,51.98266,0,0,1-49.72168-16.22754c-15.47193-17.71423-16.499-44.97863-2.50513-66.3161a21.15383,21.15383,0,0,0-11.3855-38.99444h-27.3374a17.47813,17.47813,0,0,0,.19971-2.5V108.52246a17.52,17.52,0,0,0-17.5-17.5h-97.585a17.52,17.52,0,0,0-17.5,17.5V197.9043a17.52,17.52,0,0,0,17.5,17.5h11.68018a21.0782,21.0782,0,0,0,6.14819,21.92157c-2.59008,1.20483-5.12475,2.50641-7.58423,3.92755-25.69921,14.85205-47.44238,43.78027-55.39453,73.69824-4.95263,18.63532-3.85156,35.564,3.07935,47.74042l.01733.0321c.05762.101.10767.20813.166.30853.02685.04633.06128.08649.08911.13208.114.18689.23706.36774.36694.54407.04419.05969.08374.12293.1294.18115a7.49521,7.49521,0,0,0,.56445.63709c.05884.05945.12085.11456.1814.17194q.24023.228.50049.43493c.06323.05011.12573.10041.19043.14838a7.45244,7.45244,0,0,0,.69116.4588c.01294.00757.02514.01678.03833.02429a7.45947,7.45947,0,0,0,.81225.3996c.05957.025.12061.04523.18042.06879q.32154.12606.65845.22387c.08691.025.17358.04846.26123.07044.08008.02.157.04657.23828.06415.14014.03027.27979.04541.41968.0675.08032.01257.15967.02875.24072.03876a7.5308,7.5308,0,0,0,.93042.06415c.01441,0,.02832-.00361.04273-.00367l.04321-.00024,26.58936-.34583a56.21453,56.21453,0,0,0,19.18188,39.56458H7.5a7.5,7.5,0,0,0,0,15h497a7.5,7.5,0,0,0,0-15ZM434.16992,301.57422a52.5937,52.5937,0,0,1,40.89356,19.46l-3.59278,2.13788a7.46308,7.46308,0,0,0-2.34643,1.3963l-86.31665,51.36328a52.56013,52.56013,0,0,1,21.63965-65.21875l2.97265-1.76953A52.16436,52.16436,0,0,1,434.16992,301.57422Zm15.71,64.25537a11.30491,11.30491,0,0,1-22.11694.80579l18.59985-11.068A11.3143,11.3143,0,0,1,449.87988,365.82959ZM352.7002,163.58984A14.56253,14.56253,0,0,1,367.24609,149.044h22.86524v29.09179H367.24609A14.56253,14.56253,0,0,1,352.7002,163.58984ZM261.62207,215.4043a6.1707,6.1707,0,0,1,.08667,12.34082H190.335a122.145,122.145,0,0,0-13.99707.00439H151.3291a6.17261,6.17261,0,1,1,0-12.34521Zm-142.22266-15a2.50264,2.50264,0,0,1-2.5-2.5V108.52246a2.50263,2.50263,0,0,1,2.5-2.5h97.585a2.50263,2.50263,0,0,1,2.5,2.5V197.9043a2.50264,2.50264,0,0,1-2.5,2.5ZM88.74512,318.80469c6.98047-26.26221,25.98047-51.605,48.40429-64.564a89.89263,89.89263,0,0,1,39.61939-11.49121h77.46069c-10.65869,24.74072-7.14453,53.21893,9.98633,72.83252a67.17011,67.17011,0,0,0,64.24512,21.00928c41.45312-9.12842,56.7998-49.48779,43.21582-113.64209-.51074-2.41388-4.42871-17.14887-8.22461-30.06537a29.64948,29.64948,0,0,0,3.79394.25189H377.7019c4.27466,12.39911,8.615,26.70978,12.82935,40.606,6.229,20.54211,12.654,41.71179,19.09082,57.48663a67.62075,67.62075,0,0,0-9.87305,4.82489l-2.97265,1.76953a67.39942,67.39942,0,0,0-32.4939,50.29047l-114.91235,1.49463c-7.5752-34.81165-31.88062-62.69928-62.04688-70.42767-20.54492-5.26563-43.88574-1.13819-64.03906,11.31933a102.7017,102.7017,0,0,0-36.74585,39.88117A78.8196,78.8196,0,0,1,88.74512,318.80469ZM93.822,351.631c6.58643-20.24585,19.85059-37.55554,37.34888-48.37219,16.70508-10.32471,35.8164-13.80322,52.42969-9.54834,23.88623,6.11981,43.37548,28.149,50.41821,56.09705Zm84.23291,13.90576a11.29851,11.29851,0,0,1-22.218.28894Zm-11.1311,39.39539a41.3613,41.3613,0,0,1-41.22412-38.71448l15.032-.19549a26.301,26.301,0,0,0,52.43628-.68195l15.03174-.1955A41.35759,41.35759,0,0,1,166.92383,404.93213Zm37.04492,1.04541a56.21188,56.21188,0,0,0,19.23584-41.028l19.50879-.25372a7.51562,7.51562,0,0,0,1.01611-.01318l120.4917-1.56708a67.05793,67.05793,0,0,0,9.07178,27.20477,7.49974,7.49974,0,0,0,10.28027,2.61035l5.17554-3.07971a56.32305,56.32305,0,0,0,12.56885,16.12659Zm234.78809-.73975a41.34819,41.34819,0,0,1-37.08765-23.07525l12.97314-7.71967a26.29618,26.29618,0,1,0,44.84058-26.68268l12.96387-7.71429a40.89889,40.89889,0,0,1,7.00927,30.854A41.37641,41.37641,0,0,1,438.75684,405.23779Z"/></svg>