<svg id="Layer_1" enable-background="new 0 0 512 512" height="512" viewBox="0 0 512 512" width="512" xmlns="http://www.w3.org/2000/svg"><g><path d="m432.733 222.8h-128.533c-8.284 0-15-6.716-15-15v-60.372c0-47.963 18.679-93.054 52.595-126.965l16.064-16.068c2.813-2.814 6.629-4.395 10.608-4.395h.001c3.979 0 7.795 1.581 10.607 4.396l16.065 16.068c33.914 33.91 52.593 79.001 52.593 126.964v60.372c0 8.284-6.715 15-15 15z" fill="#faf5f5"/><path d="m432.733 222.8c8.284 0 15-6.716 15-15v-60.372c0-47.963-18.679-93.054-52.593-126.964l-16.065-16.068c-2.812-2.815-6.629-4.396-10.607-4.396-.001 0-.001 0-.001 0v222.8z" fill="#ede6e6"/><path d="m174.6 128.533h-16.066c17.747 0 32.133-14.387 32.133-32.133s-14.386-32.133-32.133-32.133h16.066c17.747 0 32.133-14.387 32.133-32.133s-14.386-32.134-32.133-32.134h-126.4c-17.747 0-32.134 14.387-32.134 32.133s14.387 32.134 32.134 32.134h-16.067c-17.746 0-32.133 14.386-32.133 32.133s14.387 32.133 32.133 32.133h16.067c-17.747 0-32.133 14.387-32.133 32.133s14.386 32.134 32.133 32.134c0 8.284 6.716 15 15 15h96.4c8.284 0 15-6.716 15-15 17.747 0 32.133-14.387 32.133-32.133s-14.386-32.134-32.133-32.134z" fill="#00dde7"/><path d="m174.6 192.8c17.747 0 32.133-14.387 32.133-32.133s-14.386-32.133-32.133-32.133h-16.066c17.747 0 32.133-14.387 32.133-32.133s-14.386-32.133-32.133-32.133h16.066c17.747 0 32.133-14.387 32.133-32.133s-14.386-32.135-32.133-32.135h-71.233v207.8h56.233c8.284 0 15-6.716 15-15z" fill="#00bdcd"/><path d="m174.6 0h-126.4c-17.747 0-32.134 14.387-32.134 32.133s14.387 32.134 32.134 32.134h126.4c17.747 0 32.133-14.387 32.133-32.133s-14.386-32.134-32.133-32.134z" fill="#5ff9fe"/><path d="m174.6 128.533h-126.4c-17.747 0-32.133 14.387-32.133 32.133s14.386 32.134 32.133 32.134h126.4c17.747 0 32.133-14.387 32.133-32.133s-14.386-32.134-32.133-32.134z" fill="#00bdcd"/><path d="m346.939 261.46c-5.857-5.858-15.355-5.858-21.213 0l-224.932 224.933c-5.858 5.858-5.858 15.355 0 21.213 5.857 5.858 15.355 5.858 21.213 0l224.933-224.933c5.858-5.858 5.858-15.355-.001-21.213z" fill="#004c9c"/><path d="m165.061 261.46c5.857-5.858 15.355-5.858 21.213 0l224.933 224.933c5.858 5.858 5.858 15.355 0 21.213-5.857 5.858-15.355 5.858-21.213 0l-224.933-224.933c-5.859-5.858-5.859-15.355 0-21.213z" fill="#1861c8"/><path d="m464.866 192.8h-449.866c-8.284 0-15 6.716-15 15v64.267c0 8.284 6.716 15 15 15h449.866c26.031 0 47.134-21.102 47.134-47.134s-21.103-47.133-47.134-47.133z" fill="#ffd845"/><path d="m206.733 32.133c0-17.746-14.386-32.133-32.133-32.133h-71.233v64.267h71.233c17.747 0 32.133-14.387 32.133-32.134z" fill="#00dde7"/><path d="m206.733 160.667c0-17.747-14.386-32.133-32.133-32.133h-71.233v64.266h71.233c17.747 0 32.133-14.387 32.133-32.133z" fill="#00a0b5"/><path d="m464.866 192.8h-361.5v94.267h361.5c26.031 0 47.134-21.102 47.134-47.134s-21.103-47.133-47.134-47.133z" fill="#ecbe00"/></g></svg>