<svg xmlns="http://www.w3.org/2000/svg" width="64" height="64" enable-background="new 0 0 64 64" viewBox="0 0 64 64"><path fill="#FC6E51" d="M35,10.5h18.499c1.1,0,2-0.9,2-2v50.59l-1,0.641C52.698,60.77,49.68,61.5,45,61.5s-8.701,0.271-10.5-0.769
			l-1-0.591V37c0-0.83-0.67-1.5-1.5-1.5s-1.5,0.67-1.5,1.5v23.091l-1,0.641C27.709,61.771,23.68,61.5,19,61.5s-7.7-0.73-9.499-1.77
			l-1-0.591V8.5c0,1.1,0.891,2,2,2H30.5h3H35z"/><path fill="#545C66" d="M53.499,0.5c1.1,0,2,0.9,2,2s-0.9,2-2,2H10.501c-1.109,0-2-0.9-2-2s0.891-2,2-2H53.499z"/><path fill="#656D78" d="M10.501,4.5h42.998c1.1,0,2-0.9,2-2v6c0,1.1-0.9,2-2,2H35h-1.5h-3H10.501c-1.109,0-2-0.9-2-2v-6
			C8.501,3.6,9.392,4.5,10.501,4.5z"/><path fill="#E9573F" d="M30.5 59.09v1.41c0 1.66-4.65 3-11 3s-10.999-1.34-10.999-3v-1.36l1 .591C11.3 60.77 14.82 61.5 19.5 61.5s8.209-.73 10-1.77L30.5 59.09zM44.5 61.5c4.68 0 8.198-.73 9.999-1.77l1-.641v1.41c0 1.66-4.649 3-10.999 3s-11-1.34-11-3v-1.36l1 .591C36.299 60.77 39.82 61.5 44.5 61.5z"/><path fill="#545C66" d="M11.5 9C11.224 9 11 8.776 11 8.5v-2C11 6.224 11.224 6 11.5 6S12 6.224 12 6.5v2C12 8.776 11.776 9 11.5 9zM18.5 9C18.224 9 18 8.776 18 8.5v-2C18 6.224 18.224 6 18.5 6S19 6.224 19 6.5v2C19 8.776 18.776 9 18.5 9zM25.5 9C25.224 9 25 8.776 25 8.5v-2C25 6.224 25.224 6 25.5 6S26 6.224 26 6.5v2C26 8.776 25.776 9 25.5 9zM38.5 9C38.224 9 38 8.776 38 8.5v-2C38 6.224 38.224 6 38.5 6S39 6.224 39 6.5v2C39 8.776 38.776 9 38.5 9zM45.5 9C45.224 9 45 8.776 45 8.5v-2C45 6.224 45.224 6 45.5 6S46 6.224 46 6.5v2C46 8.776 45.776 9 45.5 9zM52.5 9C52.224 9 52 8.776 52 8.5v-2C52 6.224 52.224 6 52.5 6S53 6.224 53 6.5v2C53 8.776 52.776 9 52.5 9z"/><path fill="#E6E9ED" d="M30.5 20c-.276 0-.5-.224-.5-.5v-12C30 7.224 30.224 7 30.5 7S31 7.224 31 7.5v12C31 19.776 30.776 20 30.5 20zM33.5 20c-.276 0-.5-.224-.5-.5v-12C33 7.224 33.224 7 33.5 7S34 7.224 34 7.5v12C34 19.776 33.776 20 33.5 20z"/></svg>