<svg xmlns="http://www.w3.org/2000/svg" width="64" height="64" enable-background="new 0 0 64 64" viewBox="0 0 64 64"><path fill="#FFCE54" d="M55.5,5.5c-2.23-2-15-5-15-5c0,2-2,6-8.5,6s-8.5-4-8.5-6c0,0-12.77,3-15,5
			C6.76,7.061,2.87,16.529,1.24,20.62l0.029,0.01l10.03,5.96l2.2-5.09v41c0,0.55,0.45,1,1,1h35c0.55,0,1-0.45,1-1v-41l2.2,5.09
			l10.06-5.97C61.13,16.529,57.24,7.061,55.5,5.5z"/><path fill="#F6BB42" d="M11.3 26.59l-.8 1.85L.5 22.5c0 0 .28-.73.74-1.88l.029.01L11.3 26.59zM23.5.5h17c0 2-2 6-8.5 6S23.5 2.5 23.5.5zM63.5 22.5l-10 5.939-.8-1.85 10.06-5.97C63.22 21.77 63.5 22.5 63.5 22.5zM31.5 37c-5.238 0-9.5-4.262-9.5-9.5s4.262-9.5 9.5-9.5 9.5 4.262 9.5 9.5S36.738 37 31.5 37zM31.5 19c-4.687 0-8.5 3.813-8.5 8.5s3.813 8.5 8.5 8.5 8.5-3.813 8.5-8.5S36.187 19 31.5 19z"/><path fill="#F6BB42" d="M33.55,30c-0.128,0-0.256-0.049-0.354-0.146l-4-4c-0.195-0.195-0.195-0.512,0-0.707s0.512-0.195,0.707,0
				l4,4c0.195,0.195,0.195,0.512,0,0.707C33.806,29.951,33.678,30,33.55,30z"/><path fill="#F6BB42" d="M29.55 26c-.128 0-.256-.049-.354-.146-.195-.195-.195-.512 0-.707l8.999-8.999c.195-.195.512-.195.707 0s.195.512 0 .707l-8.999 8.999C29.806 25.951 29.678 26 29.55 26zM24.55 39c-.128 0-.256-.049-.354-.146-.195-.195-.195-.512 0-.707l9-9c.195-.195.512-.195.707 0s.195.512 0 .707l-9 9C24.806 38.951 24.678 39 24.55 39z"/><path fill="#EDAB37" d="M33.55,3h-3.001c-0.276,0-0.5-0.224-0.5-0.5s0.224-0.5,0.5-0.5h3.001c0.276,0,0.5,0.224,0.5,0.5
				S33.826,3,33.55,3z"/></svg>