<svg xmlns="http://www.w3.org/2000/svg" data-name="Layer 1" viewBox="0 0 512 512"><path fill="#2370b5" d="M383.78,267.35q0,53.11-5.12,106.15L366,504.56H295L256.29,186.1l-38.7,318.46h-71L133.9,373.5a1102.4,1102.4,0,0,1-.17-210.43c0-.11,3.54-1.58,3.55-1.7,3-31,3.73-60.58,9.32-91.24H366A1099.29,1099.29,0,0,1,383.78,267.35Z"/><path fill="#227fc0" d="M157.59,7.44H342.11a17.43,17.43,0,0,1,17.43,17.43V70a0,0,0,0,1,0,0H140.16a0,0,0,0,1,0,0V24.87A17.43,17.43,0,0,1,157.59,7.44Z"/><path fill="#8fc8ea" d="M191.64 70q-1.11 7.09-2.87 14.33c-10.9 44.89-37 77.23-61.48 78.62q4.44-46.74 12.87-92.95zM308 70q1.11 7.09 2.87 14.33c10.9 44.89 37 77.23 61.48 78.62Q368 116.22 359.52 70z"/><polyline fill="#f69531" points="178.57 297 128.23 230.2 132.84 369.79 178.57 297"/><polyline fill="#f69531" points="334.36 300.15 384.71 233.34 380.1 372.93 334.36 300.15"/><path d="M271.26,31.28H239.5a7.5,7.5,0,0,0,0,15h31.76a7.5,7.5,0,0,0,0-15ZM390.47,234.15a7.57,7.57,0,0,0,0-1q-1.09-35.37-4.44-70.64c0-.08,0-.17,0-.25-.1-1.06-.21-2.11-.32-3.16-.22-2.26-.44-4.52-.68-6.77-.17-1.61-.34-3.22-.52-4.84-.27-2.52-.55-5-.84-7.57-.13-1.16-.27-2.32-.41-3.47-.36-3-.72-6-1.1-9-.06-.5-.13-1-.2-1.5q-3.65-28.47-8.75-56.62V24.93A25,25,0,0,0,348.25,0H163.73A25,25,0,0,0,138.8,24.93V69.42c-5.57,30.65-9.89,61.9-12.83,92.89h0q-3.36,35.33-4.43,70.91a6,6,0,0,0,0,.85,1112.86,1112.86,0,0,0,4.63,140h0v0l12.69,131.06a7.5,7.5,0,0,0,7.47,6.78h71a7.5,7.5,0,0,0,7.45-6.6L256,248.22,287.25,505.4a7.49,7.49,0,0,0,7.44,6.6h71a7.51,7.51,0,0,0,7.47-6.78l12.68-131.06v0h0c3.42-35.34,5.16-71.29,5.16-106.83Q391,250.73,390.47,234.15ZM364,105.77l0,.3q2,13.75,3.75,27.56c0,.28.07.55.1.83.27,2.19.52,4.38.78,6.57.17,1.49.35,3,.51,4.46q.31,2.83.62,5.65c.08.74.15,1.47.23,2.21-18.64-7.87-37.24-35.95-45.68-70.72q-.61-2.52-1.15-5.06h36.2Q361.87,91.6,364,105.77ZM153.8,24.93A9.94,9.94,0,0,1,163.73,15H348.25a9.94,9.94,0,0,1,9.93,9.93V62.57H153.8ZM142,153.14c.07-.66.15-1.32.22-2q.44-4.12.91-8.24c.13-1.19.28-2.37.41-3.55.27-2.23.53-4.46.81-6.69.16-1.32.33-2.64.5-4q.41-3.15.82-6.3c.19-1.36.37-2.72.56-4.08q.44-3.12.88-6.24c.19-1.35.38-2.69.58-4l1-6.39c.2-1.28.39-2.55.59-3.83.37-2.32.75-4.64,1.12-7,.18-1.07.35-2.13.53-3.2.56-3.38,1.14-6.76,1.73-10.12h36.2q-.54,2.54-1.15,5.06c-8.45,34.78-27,62.86-45.69,70.73C142,153.28,142,153.21,142,153.14Zm-2.79,197.35c-2.4-31.51-3.44-63.18-3.11-94.82L170.24,301Zm188.37,78a7.5,7.5,0,0,0,10.6-.42l30.61-33.17L358.87,497H301.34l-37.9-311.86a7.5,7.5,0,0,0-14.89,0L210.65,497H153.11l-9.88-102.09,30.6,33.17a7.5,7.5,0,0,0,11-10.17L143,372.57l42.69-67.93a7.51,7.51,0,0,0-.37-8.51l-48.74-64.67q1-31,3.79-61.92c26.25-6,51.05-39,61.82-83.36.7-2.86,1.32-5.74,1.87-8.61H307.89c.56,2.87,1.18,5.75,1.87,8.6,10.78,44.38,35.59,77.34,61.84,83.37q2.76,30.89,3.8,61.91l-48.76,64.68a7.52,7.52,0,0,0-.36,8.51L369,372.57l-41.84,45.34A7.49,7.49,0,0,0,327.54,428.5Zm45.26-78L341.73,301l34.19-45.37c0,3.87.07,7.75.07,11.62C376,294.94,374.91,322.83,372.8,350.49Z"/></svg>