<?xml version="1.0" encoding="iso-8859-1"?>
<!-- Generator: Adobe Illustrator 19.0.0, SVG Export Plug-In . SVG Version: 6.00 Build 0)  -->
<svg version="1.1" id="Capa_1" xmlns="http://www.w3.org/2000/svg" xmlns:xlink="http://www.w3.org/1999/xlink" x="0px" y="0px"
	 viewBox="0 0 428.408 428.408" style="enable-background:new 0 0 428.408 428.408;" xml:space="preserve">
<g>
	<path style="fill:#00ACEA;" d="M388.702,184.947c-4.18,0-7.837-3.657-7.837-7.837V94.041c0.522-9.926-7.314-17.763-17.241-18.286
		c-0.522,0-0.522,0-1.045,0H192.784c-4.18,0-13.061-3.657-13.061-7.837c0-4.18,3.657-7.837,7.837-7.837h175.02
		c18.808,0,33.959,15.151,33.959,33.959v83.069C396.539,181.29,393.404,184.947,388.702,184.947z"/>
	<path style="fill:#00ACEA;" d="M7.837,186.514c-4.18,0-7.837-3.657-7.837-7.837V94.041c0-18.808,15.151-33.959,33.959-33.959
		h41.273c4.18,0-2.612,3.657-2.612,7.837s6.792,7.837,2.612,7.837H33.959c-9.926-0.522-17.763,7.314-18.286,17.241
		c0,0.522,0,0.522,0,1.045v84.637C15.674,182.857,12.539,186.514,7.837,186.514z"/>
</g>
<path style="fill:#00EFD1;" d="M49.633,138.449H47.02c-3.657-1.045-6.269-5.224-5.224-8.882c0-0.522,0-0.522,0.522-1.045
	l39.706-106.58c0.522-2.09,2.09-3.657,4.18-4.702h6.269l238.237,104.49c4.18,1.567,5.747,6.269,4.18,10.449
	c-1.567,4.18-6.269,5.747-10.449,4.18l0,0L94.041,34.482l-37.094,98.743C55.902,136.359,52.767,138.449,49.633,138.449z"/>
<path style="fill:#00ACEA;" d="M422.661,196.963h-25.6V151.51c0-15.151-12.539-27.69-27.69-27.69h-0.522H26.645
	C12.016,123.298,0.522,134.792,0,149.421c0,0.522,0,1.567,0,2.09v223.608c0,18.808,13.061,36.049,31.869,36.049h331.755
	c18.808,0,33.437-17.241,33.437-36.049V332.8h25.6c4.18,0,5.747-3.657,5.747-7.837V206.89
	C428.408,202.71,426.841,196.963,422.661,196.963z M381.388,375.119c0.522,10.449-7.314,19.331-17.763,20.375H31.869
	c-10.449,0-16.196-9.927-16.196-20.375V151.51c0-7.314,3.657-12.016,10.971-12.016h342.204c6.269-0.522,12.016,4.18,12.539,10.449
	c0,0.522,0,1.045,0,1.567v45.453h-67.918c-16.718,1.045-30.302,14.106-31.347,30.824v76.278c0,15.673,15.673,28.735,31.347,28.735
	h67.918V375.119z M412.735,317.127h-99.265c-7.314,0-15.673-5.747-15.673-13.061v-76.278c1.045-8.359,7.314-14.629,15.673-15.151
	h99.265V317.127z"/>
<g>
</g>
<g>
</g>
<g>
</g>
<g>
</g>
<g>
</g>
<g>
</g>
<g>
</g>
<g>
</g>
<g>
</g>
<g>
</g>
<g>
</g>
<g>
</g>
<g>
</g>
<g>
</g>
<g>
</g>
</svg>
