<svg height="512" viewBox="0 0 64 64" width="512" xmlns="http://www.w3.org/2000/svg"><g id="Fill_Outline" data-name="Fill Outline"><g id="Color"><g><g><path d="m15 24a4 4 0 0 0 -8 0 4 4 0 0 0 0 8 4 4 0 0 0 8 0 4 4 0 0 0 0-8z" fill="#84d2f4"/><path d="m17 31a7.981 7.981 0 0 1 -7.524-10.7 4 4 0 0 0 -2.476 3.7 4 4 0 0 0 0 8 4 4 0 0 0 8 0 3.973 3.973 0 0 0 2.661-1.033c-.219.018-.438.033-.661.033z" fill="#4891d3"/><circle cx="11" cy="28" fill="#f9e109" r="2"/><path d="m12.32 29.49a1.94 1.94 0 0 1 -1.32.51 2.006 2.006 0 0 1 -2-2 1.971 1.971 0 0 1 .77-1.57 8.053 8.053 0 0 0 2.55 3.06z" fill="#fcbc04"/></g><g><path d="m37 23.105v-3.105l2-1v-4h-18v4l2 1v1.927a8.939 8.939 0 0 0 -5 8.02v22.106a8.947 8.947 0 0 0 8.947 8.947h16.106a8.947 8.947 0 0 0 8.947-8.947v-6a25.054 25.054 0 0 0 -15-22.948zm10 18.895a10 10 0 0 1 -10-10v-4.439a21.113 21.113 0 0 1 10.6 14.439z" fill="#57b7eb"/><path d="m37 23.105v-3.105h-10a3 3 0 0 1 -3-3h15v-2h-18v4l2 1v1.927a8.939 8.939 0 0 0 -5 8.02v22.106a8.947 8.947 0 0 0 8.947 8.947h16.106a8.947 8.947 0 0 0 8.947-8.947v-6a25.054 25.054 0 0 0 -15-22.948zm10 18.895a10 10 0 0 1 -10-10v-4.439a21.113 21.113 0 0 1 10.6 14.439z" fill="#4891d3"/><path d="m26.947 21a8.947 8.947 0 0 0 -8.947 8.947v22.106a8.947 8.947 0 0 0 8.947 8.947h16.106a8.947 8.947 0 0 0 8.947-8.947v-6a25.052 25.052 0 0 0 -25.053-25.053zm20.053 21a10 10 0 0 1 -10-10v-4.439a21.113 21.113 0 0 1 10.6 14.439z" fill="#84d2f4"/><path d="m37 11h-14l1-8h12z" fill="#f9e109"/><path d="m21 11h18v4h-18z" fill="#f9e109"/><g fill="#57b7eb"><path d="m46.619 30.549a25.259 25.259 0 0 0 -1.933-2.187 10.312 10.312 0 0 0 1.933 2.187z"/><path d="m46 52a22 22 0 0 1 -22-22v-8.493a8.944 8.944 0 0 0 -6 8.44v22.106a8.947 8.947 0 0 0 8.947 8.947h16.106a8.947 8.947 0 0 0 8.947-8.947v-.053z"/></g><path d="m33 37v-4a4 4 0 0 0 -4-4h-2a4 4 0 0 0 -4 4v14a8 8 0 0 0 8 8h12a4 4 0 0 0 4-4 4 4 0 0 0 -4-4 10 10 0 0 1 -10-10z" fill="#f9e109"/><g fill="#fcbc04"><path d="m46.87 52a3.992 3.992 0 0 1 -3.87 3h-12a8 8 0 0 1 -8-8v-14a3.984 3.984 0 0 1 1.01-2.65 21.991 21.991 0 0 0 21.99 21.65z"/><path d="m26 13a2.99 2.99 0 0 1 -2.816-2h-2.184v4h18v-2z"/><path d="m30.531 9a4 4 0 0 1 -3.969-4.5l.188-1.5h-2.75l-1 8h14l-.25-2z"/></g></g><g><path d="m55 13a4 4 0 0 0 -8 0 4 4 0 0 0 0 8 4 4 0 0 0 8 0 4 4 0 0 0 0-8z" fill="#57b7eb"/><path d="m57 20a7.981 7.981 0 0 1 -7.524-10.7 4 4 0 0 0 -2.476 3.7 4 4 0 0 0 0 8 4 4 0 0 0 8 0 3.973 3.973 0 0 0 2.661-1.033c-.219.018-.438.033-.661.033z" fill="#4891d3"/><circle cx="51" cy="17" fill="#f9e109" r="2"/><path d="m52.32 18.49a1.94 1.94 0 0 1 -1.32.51 2.006 2.006 0 0 1 -2-2 1.971 1.971 0 0 1 .77-1.57 8.053 8.053 0 0 0 2.55 3.06z" fill="#fcbc04"/></g><g><path d="m17 9a1.992 1.992 0 0 0 -1.41-1.9 1.987 1.987 0 0 0 -2.69-2.69 1.986 1.986 0 0 0 -3.8 0 1.987 1.987 0 0 0 -2.69 2.69 1.986 1.986 0 0 0 0 3.8 1.987 1.987 0 0 0 2.69 2.69 1.986 1.986 0 0 0 3.8 0 1.987 1.987 0 0 0 2.69-2.69 1.992 1.992 0 0 0 1.41-1.9z" fill="#f9e109"/><path d="m10 6a5.964 5.964 0 0 1 .788-2.965 1.982 1.982 0 0 0 -1.688 1.375 1.987 1.987 0 0 0 -2.69 2.69 1.986 1.986 0 0 0 0 3.8 1.987 1.987 0 0 0 2.69 2.69 1.986 1.986 0 0 0 3.8 0 2 2 0 0 0 2.342-.347 1.952 1.952 0 0 0 .558-1.253 6 6 0 0 1 -5.8-5.99z" fill="#fcbc04"/><circle cx="11" cy="9" fill="#84d2f4" r="2"/><path d="m12.17 10.62a1.972 1.972 0 0 1 -1.17.38 2 2 0 0 1 -.87-3.8 5.955 5.955 0 0 0 2.04 3.42z" fill="#57b7eb"/></g><g><path d="m15 55a1.992 1.992 0 0 0 -1.41-1.9 1.987 1.987 0 0 0 -2.69-2.69 1.986 1.986 0 0 0 -3.8 0 1.987 1.987 0 0 0 -2.69 2.69 1.986 1.986 0 0 0 0 3.8 1.987 1.987 0 0 0 2.69 2.69 1.986 1.986 0 0 0 3.8 0 1.987 1.987 0 0 0 2.69-2.69 1.992 1.992 0 0 0 1.41-1.9z" fill="#f9e109"/><path d="m8 52a5.964 5.964 0 0 1 .788-2.965 1.982 1.982 0 0 0 -1.688 1.375 1.987 1.987 0 0 0 -2.69 2.69 1.986 1.986 0 0 0 0 3.8 1.987 1.987 0 0 0 2.69 2.69 1.986 1.986 0 0 0 3.8 0 2 2 0 0 0 2.342-.347 1.952 1.952 0 0 0 .558-1.253 6 6 0 0 1 -5.8-5.99z" fill="#fcbc04"/><circle cx="9" cy="55" fill="#84d2f4" r="2"/><path d="m10.17 56.62a1.972 1.972 0 0 1 -1.17.38 2 2 0 0 1 -.87-3.8 5.955 5.955 0 0 0 2.04 3.42z" fill="#57b7eb"/></g><g><path d="m61 55a1.992 1.992 0 0 0 -1.41-1.9 1.987 1.987 0 0 0 -2.69-2.69 1.986 1.986 0 0 0 -3.8 0 1.987 1.987 0 0 0 -2.69 2.69 1.986 1.986 0 0 0 0 3.8 1.987 1.987 0 0 0 2.69 2.69 1.986 1.986 0 0 0 3.8 0 1.987 1.987 0 0 0 2.69-2.69 1.992 1.992 0 0 0 1.41-1.9z" fill="#f9e109"/><path d="m54 52a5.964 5.964 0 0 1 .788-2.965 1.982 1.982 0 0 0 -1.688 1.375 1.987 1.987 0 0 0 -2.69 2.69 1.986 1.986 0 0 0 0 3.8 1.987 1.987 0 0 0 2.69 2.69 1.986 1.986 0 0 0 3.8 0 2 2 0 0 0 2.342-.347 1.952 1.952 0 0 0 .558-1.253 6 6 0 0 1 -5.8-5.99z" fill="#fcbc04"/><circle cx="55" cy="55" fill="#84d2f4" r="2"/><path d="m56.17 56.62a1.972 1.972 0 0 1 -1.17.38 2 2 0 0 1 -.87-3.8 5.955 5.955 0 0 0 2.04 3.42z" fill="#57b7eb"/></g></g></g><g id="Outline_copy" data-name="Outline copy"><g fill="#464a51"><path d="m11 25a3 3 0 1 0 3 3 3 3 0 0 0 -3-3zm0 4a1 1 0 1 1 1-1 1 1 0 0 1 -1 1z"/><path d="m15 31a1 1 0 0 0 -1 1 3 3 0 0 1 -6 0 1 1 0 0 0 -1-1 3 3 0 0 1 0-6 1 1 0 0 0 1-1 3 3 0 0 1 6 0 1 1 0 0 0 1 1 2.983 2.983 0 0 1 2.617 1.55 9.919 9.919 0 0 0 -.617 3.4v8.05a1 1 0 0 0 2 0v-8.053a7.9 7.9 0 0 1 4.442-7.123 1.15 1.15 0 0 0 .113-.066 7.862 7.862 0 0 1 3.392-.758 1 1 0 1 0 0-2 9.881 9.881 0 0 0 -2.947.459v-.459a1 1 0 0 0 -.553-.895l-1.447-.723v-6.382h16v2h-13a1 1 0 0 0 0 2h13v2.382l-1.447.723a1 1 0 0 0 -.553.895v1.623a25.816 25.816 0 0 0 -4.413-1.211 1 1 0 0 0 -.354 1.969 23.845 23.845 0 0 1 5.054 1.5l.312.141a24.066 24.066 0 0 1 14.401 22.031 1 1 0 0 0 2 0 26.051 26.051 0 0 0 -15-23.575v-1.86l1.447-.723a1 1 0 0 0 .553-.895v-8a1 1 0 0 0 -1-1h-1.117l-.891-7.124a1 1 0 0 0 -.992-.876h-12a1 1 0 0 0 -.992.876l-.891 7.124h-1.117a1 1 0 0 0 -1 1v8a1 1 0 0 0 .553.895l1.447.723v.734a9.924 9.924 0 0 0 -3.392 3.188 4.974 4.974 0 0 0 -2.692-1.457 5 5 0 0 0 -9.832 0 5 5 0 0 0 0 9.832 5 5 0 0 0 9.916-.915 1 1 0 0 0 -1-1zm9.883-27h10.234l.75 6h-11.734z"/><path d="m43 54a1 1 0 0 0 0 2 5 5 0 0 0 0-10 9.01 9.01 0 0 1 -9-9v-4a5.006 5.006 0 0 0 -5-5h-2a5.006 5.006 0 0 0 -5 5v14a9.011 9.011 0 0 0 9 9h8a1 1 0 0 0 0-2h-8a7.008 7.008 0 0 1 -7-7v-14a3 3 0 0 1 3-3h2a3 3 0 0 1 3 3v4a11.013 11.013 0 0 0 11 11 3 3 0 0 1 0 6z"/><path d="m27 35h2a1 1 0 0 0 0-2h-2a1 1 0 0 0 0 2z"/><path d="m27 39h2a1 1 0 0 0 0-2h-2a1 1 0 0 0 0 2z"/><path d="m27 43h2a1 1 0 0 0 0-2h-2a1 1 0 0 0 0 2z"/><path d="m27 47h6a1 1 0 0 0 0-2h-6a1 1 0 0 0 0 2z"/><path d="m29 51h9a1 1 0 0 0 0-2h-9a1 1 0 0 0 0 2z"/><path d="m48.581 41.808a22.012 22.012 0 0 0 -11.1-15.125 1 1 0 0 0 -1.481.878v4.439a11.013 11.013 0 0 0 11 11h.6a1 1 0 0 0 .981-1.192zm-10.581-9.808v-2.671a19.994 19.994 0 0 1 8.341 11.647 9.012 9.012 0 0 1 -8.341-8.976z"/><path d="m46.084 21.916a5 5 0 0 0 9.832 0 5 5 0 0 0 3.413-7.416 1 1 0 1 0 -1.73 1 3 3 0 0 1 -2.599 4.5 1 1 0 0 0 -1 1 3 3 0 0 1 -6 0 1 1 0 0 0 -1-1 3 3 0 0 1 0-6 1 1 0 0 0 1-1 3 3 0 0 1 6 0 1 1 0 0 0 2 0 5 5 0 0 0 -9.916-.916 5 5 0 0 0 0 9.832z"/><path d="m51 14a3 3 0 1 0 3 3 3 3 0 0 0 -3-3zm0 4a1 1 0 1 1 1-1 1 1 0 0 1 -1 1z"/><path d="m5.208 11.4a2.986 2.986 0 0 0 3.392 3.392 2.986 2.986 0 0 0 4.8 0 2.986 2.986 0 0 0 3.392-3.392 2.986 2.986 0 0 0 0-4.8 2.986 2.986 0 0 0 -3.392-3.392 2.986 2.986 0 0 0 -4.8 0 2.986 2.986 0 0 0 -3.392 3.392 2.986 2.986 0 0 0 0 4.8zm1.5-3.345a1 1 0 0 0 .592-1.422.987.987 0 0 1 1.333-1.333 1 1 0 0 0 1.421-.589.987.987 0 0 1 1.892 0 1 1 0 0 0 1.421.589.987.987 0 0 1 1.338 1.338 1 1 0 0 0 .589 1.421.987.987 0 0 1 0 1.892 1 1 0 0 0 -.589 1.421.987.987 0 0 1 -1.338 1.338 1 1 0 0 0 -1.421.588.986.986 0 0 1 -1.892 0 1 1 0 0 0 -1.421-.588.987.987 0 0 1 -1.333-1.343 1 1 0 0 0 -.588-1.421.986.986 0 0 1 0-1.892z"/><path d="m11 12a3 3 0 1 0 -3-3 3 3 0 0 0 3 3zm0-4a1 1 0 1 1 -1 1 1 1 0 0 1 1-1z"/><path d="m14.792 52.6a2.986 2.986 0 0 0 -3.392-3.392 2.986 2.986 0 0 0 -4.8 0 2.986 2.986 0 0 0 -3.392 3.392 2.986 2.986 0 0 0 0 4.8 2.986 2.986 0 0 0 3.392 3.392 2.986 2.986 0 0 0 4.8 0 2.986 2.986 0 0 0 3.392-3.392 2.986 2.986 0 0 0 0-4.8zm-1.5 3.345a1 1 0 0 0 -.589 1.421.987.987 0 0 1 -1.338 1.338 1 1 0 0 0 -1.421.588.986.986 0 0 1 -1.892 0 1 1 0 0 0 -1.421-.588.987.987 0 0 1 -1.331-1.337 1 1 0 0 0 -.588-1.421.986.986 0 0 1 0-1.892 1 1 0 0 0 .588-1.421.987.987 0 0 1 1.333-1.333 1 1 0 0 0 1.421-.589.987.987 0 0 1 1.892 0 1 1 0 0 0 1.421.589.987.987 0 0 1 1.338 1.338 1 1 0 0 0 .589 1.421.987.987 0 0 1 0 1.892z"/><path d="m9 52a3 3 0 1 0 3 3 3 3 0 0 0 -3-3zm0 4a1 1 0 1 1 1-1 1 1 0 0 1 -1 1z"/><path d="m60.792 52.6a2.987 2.987 0 0 0 -3.392-3.392 2.986 2.986 0 0 0 -4.8 0 2.987 2.987 0 0 0 -3.392 3.392 2.962 2.962 0 0 0 -.165 4.643 7.848 7.848 0 0 1 -5.99 2.757h-16.106a7.956 7.956 0 0 1 -7.947-7.947v-10.053a1 1 0 0 0 -2 0v10.053a9.958 9.958 0 0 0 9.947 9.947h16.106a9.96 9.96 0 0 0 6.609-2.544 2.934 2.934 0 0 0 .389.494 2.979 2.979 0 0 0 2.55.842 2.986 2.986 0 0 0 4.8 0 2.987 2.987 0 0 0 3.391-3.392 2.986 2.986 0 0 0 0-4.8zm-1.5 3.345a1 1 0 0 0 -.588 1.421.987.987 0 0 1 -1.338 1.338 1 1 0 0 0 -1.421.588.986.986 0 0 1 -1.892 0 1 1 0 0 0 -1.421-.588.993.993 0 0 1 -1.168-.169.981.981 0 0 1 -.26-.905c.01-.031.024-.059.031-.09a1.019 1.019 0 0 1 .059-.174 1 1 0 0 0 -.588-1.421.986.986 0 0 1 0-1.892 1 1 0 0 0 .588-1.421.987.987 0 0 1 1.339-1.332 1 1 0 0 0 1.421-.589.987.987 0 0 1 1.892 0 1 1 0 0 0 1.421.589.987.987 0 0 1 1.338 1.338 1 1 0 0 0 .588 1.421.986.986 0 0 1 0 1.892z"/><path d="m55 52a3 3 0 1 0 3 3 3 3 0 0 0 -3-3zm0 4a1 1 0 1 1 1-1 1 1 0 0 1 -1 1z"/><path d="m57 6h1v1a1 1 0 0 0 2 0v-1h1a1 1 0 0 0 0-2h-1v-1a1 1 0 0 0 -2 0v1h-1a1 1 0 0 0 0 2z"/><path d="m61 29h-1v-1a1 1 0 0 0 -2 0v1h-1a1 1 0 0 0 0 2h1v1a1 1 0 0 0 2 0v-1h1a1 1 0 0 0 0-2z"/><path d="m6 39a1 1 0 0 0 -1 1v1h-1a1 1 0 0 0 0 2h1v1a1 1 0 0 0 2 0v-1h1a1 1 0 0 0 0-2h-1v-1a1 1 0 0 0 -1-1z"/></g></g></g></svg>