<svg xmlns="http://www.w3.org/2000/svg" data-name="Layer 1" viewBox="0 0 32 32"><defs><pattern id="a" width="26.2" height="183.8" data-name="Unnamed Pattern" patternTransform="matrix(1 0 0 -1 46 477.2)" patternUnits="userSpaceOnUse" viewBox="0 0 26.2 183.8"><rect width="26.2" height="183.8" fill="none"/><rect width="26.2" height="183.8" fill="none"/><rect width="26.2" height="40" y="71.8" fill="#fcd302"/><rect width="26.2" height="19.9" y="39.7" fill="#fabe13"/><rect width="26.2" height="19.9" y="19.8" fill="#e9b120"/><rect width="26.2" height="19.9" fill="#d6a428"/><rect width="26.2" height="19.9" y="124" fill="#fcdd47"/><rect width="26.2" height="19.9" y="144" fill="#fcea95"/><rect width="26.2" height="19.9" y="163.9" fill="#fff3c9"/></pattern></defs><rect width="25" height="31" x="3.5" y=".5" fill="#f6981d" rx="1"/><path fill="#e27626" d="M4.5.5h23a1,1,0,0,1,1,1v5a0,0,0,0,1,0,0H3.5a0,0,0,0,1,0,0v-5A1,1,0,0,1,4.5.5Z"/><path fill="#8a8790" d="M3.5,27.5h25a0,0,0,0,1,0,0v3a1,1,0,0,1-1,1H4.5a1,1,0,0,1-1-1v-3A0,0,0,0,1,3.5,27.5Z"/><circle cx="16" cy="17" r="7.5" fill="#58565d"/><circle cx="16" cy="17" r="5.5" fill="#cdd4ec"/><rect width="7" height="2" x="5.5" y="2.5" fill="#fff" rx=".5"/><circle cx="16" cy="3.5" r="1" fill="#fff"/><path fill="#fff" d="M26.5 3h-6a.5.5 0 0 1 0-1h6a.5.5 0 0 1 0 1zM26.5 30h-6a.5.5 0 0 1 0-1h6a.5.5 0 0 1 0 1z"/><rect width="1" height="1" x="20" y="4" fill="#fff" rx=".5"/><rect width="1" height="1" x="22" y="4" fill="#fff" rx=".5"/><rect width="1" height="1" x="24" y="4" fill="#f0748d" rx=".5"/><rect width="1" height="1" x="26" y="4" fill="url(#a)" rx=".5"/><path fill="#4eb9e9" d="M16,17.24l.08-.09a3.67,3.67,0,0,1,5.42.09h0a5.5,5.5,0,0,1-11,.09l.29.19A4.43,4.43,0,0,0,16,17.24Z"/></svg>