<svg xmlns="http://www.w3.org/2000/svg" data-name="Layer 1" viewBox="0 0 32 32"><rect width="25" height="31" x="3.5" y=".5" fill="#f6981d" rx="1"/><path fill="#e27626" d="M4.5.5h23a1,1,0,0,1,1,1v5a0,0,0,0,1,0,0H3.5a0,0,0,0,1,0,0v-5A1,1,0,0,1,4.5.5Z"/><path fill="#8a8790" d="M3.5,27.5h25a0,0,0,0,1,0,0v3a1,1,0,0,1-1,1H4.5a1,1,0,0,1-1-1v-3A0,0,0,0,1,3.5,27.5Z"/><circle cx="16" cy="17" r="7.5" fill="#58565d"/><circle cx="16" cy="17" r="5.5" fill="#cdd4ec"/><rect width="7" height="2" x="5.5" y="2.5" fill="#fff" rx=".5"/><circle cx="16.5" cy="3.5" r="1" fill="#fff"/><path fill="#4eb9e9" d="M16,17l.08-.09A3.68,3.68,0,0,1,21.5,17h0a5.5,5.5,0,0,1-11,.1l.29.18A4.42,4.42,0,0,0,16,17Z"/><path d="M20.5,30h6a.5.5,0,0,0,0-1h-6a.5.5,0,0,0,0,1ZM16,25a8,8,0,1,0-8-8A8,8,0,0,0,16,25Zm0-15a7,7,0,1,1-7,7A7,7,0,0,1,16,10Zm-.6,13q.3,0,.6,0h0a6,6,0,1,0-6-6v.09h0a2.46,2.46,0,0,0,0,.28c0,.09,0,.19,0,.28s0,.18,0,.27,0,.22.06.33,0,.12,0,.17.07.28.11.42a.08.08,0,0,1,0,0A6,6,0,0,0,15.4,23ZM11,16.84a5,5,0,0,1,9.84-1,4.29,4.29,0,0,0-2-.6,4.17,4.17,0,0,0-3.1,1.31l-.06.06a3.92,3.92,0,0,1-4.6.24Zm.35,2a4.66,4.66,0,0,1-.26-.85,4.92,4.92,0,0,0,5.21-.64l0-.05.09-.08A3.15,3.15,0,0,1,21,17.18a3,3,0,0,1,0,.43,4,4,0,0,1-.07.48,2.67,2.67,0,0,1-.15.48c0,.15-.09.3-.15.44s-.16.3-.24.45-.14.26-.22.38-.22.27-.33.4-.18.22-.28.32a4.35,4.35,0,0,1-.41.34,4.19,4.19,0,0,1-.33.26c-.15.1-.32.18-.49.27s-.23.13-.35.18a5.26,5.26,0,0,1-.6.19,3.18,3.18,0,0,1-.33.1,5.15,5.15,0,0,1-1,.1h0a5.87,5.87,0,0,1-.94-.09l-.35-.1-.52-.16-.41-.19c-.13-.07-.26-.13-.38-.21L13,21l-.31-.25-.36-.35-.25-.3c-.1-.13-.2-.26-.29-.4s-.15-.27-.22-.41A3.39,3.39,0,0,1,11.37,18.88ZM12,2H6A1,1,0,0,0,5,3V4A1,1,0,0,0,6,5h6a1,1,0,0,0,1-1V3A1,1,0,0,0,12,2Zm0,2.5V4H6V3h6V4h0ZM26.5,2h-6a.5.5,0,0,0,0,1h6a.5.5,0,0,0,0-1Zm0,2a.5.5,0,1,0,.5.5A.5.5,0,0,0,26.5,4Zm1-4H4.5A1.5,1.5,0,0,0,3,1.5v29A1.5,1.5,0,0,0,4.5,32h23A1.5,1.5,0,0,0,29,30.5V1.5A1.5,1.5,0,0,0,27.5,0ZM28,30.5a.5.5,0,0,1-.5.5H4.5a.5.5,0,0,1-.5-.5V28H28ZM28,27H4V7H28ZM28,6H4V1.5A.5.5,0,0,1,4.5,1h23a.5.5,0,0,1,.5.5ZM16.5,2A1.5,1.5,0,1,0,18,3.5,1.5,1.5,0,0,0,16.5,2Zm0,2a.5.5,0,1,1,.5-.5A.5.5,0,0,1,16.5,4Zm4,0a.5.5,0,1,0,.5.5A.5.5,0,0,0,20.5,4Zm2,0a.5.5,0,1,0,.5.5A.5.5,0,0,0,22.5,4Zm2,0a.5.5,0,1,0,.5.5A.5.5,0,0,0,24.5,4Z"/></svg>